<?xml version="1.0" encoding="UTF-8" standalone="no"?>
<!-- Created with Inkscape (http://www.inkscape.org/) -->

<svg
   sodipodi:docname="instagram_qr.svg"
   inkscape:version="1.3.2 (091e20e, 2023-11-25, custom)"
   id="svg5"
   version="1.1"
   viewBox="0 0 30 50"
   height="50mm"
   width="30mm"
   xml:space="preserve"
   xmlns:inkscape="http://www.inkscape.org/namespaces/inkscape"
   xmlns:sodipodi="http://sodipodi.sourceforge.net/DTD/sodipodi-0.dtd"
   xmlns="http://www.w3.org/2000/svg"
   xmlns:svg="http://www.w3.org/2000/svg"><sodipodi:namedview
     id="namedview7"
     pagecolor="#666666"
     bordercolor="#666666"
     borderopacity="1.0"
     inkscape:pageshadow="2"
     inkscape:pageopacity="0.0"
     inkscape:pagecheckerboard="0"
     inkscape:document-units="mm"
     showgrid="false"
     inkscape:snap-bbox="true"
     inkscape:bbox-paths="true"
     inkscape:bbox-nodes="true"
     inkscape:snap-bbox-edge-midpoints="true"
     inkscape:snap-bbox-midpoints="true"
     inkscape:object-paths="true"
     inkscape:snap-intersection-paths="true"
     inkscape:snap-smooth-nodes="true"
     inkscape:snap-midpoints="true"
     inkscape:snap-object-midpoints="true"
     inkscape:snap-page="true"
     inkscape:snap-center="true"
     inkscape:snap-text-baseline="true"
     inkscape:snap-global="false"
     showguides="true"
     inkscape:guide-bbox="true"
     inkscape:zoom="5.12"
     inkscape:cx="58.886719"
     inkscape:cy="93.652344"
     inkscape:window-width="1920"
     inkscape:window-height="1137"
     inkscape:window-x="-8"
     inkscape:window-y="-8"
     inkscape:window-maximized="1"
     inkscape:current-layer="layer1"
     inkscape:showpageshadow="2"
     inkscape:deskcolor="#d1d1d1" /><defs
     id="defs2" /><rect
     x="2.6565287"
     y="17.795753"
     width="24.777033"
     height="24.777033"
     fill="#ffffff"
     id="rect1"
     style="stroke-width:0.0123885;shape-rendering:crispEdges"
     ry="0.95893741" /><g
     inkscape:label="Layer 1"
     inkscape:groupmode="layer"
     id="layer1"><path
       style="font-size:4.17019px;line-height:1.25;font-family:'Century Gothic';-inkscape-font-specification:'Century Gothic, Normal';fill:#ffffff;stroke-width:0.390956"
       d="M 4.4362832,44.084518 H 4.723391 v 0.822635 H 5.1754331 V 45.1515 H 4.723391 v 1.971066 H 4.4362832 V 45.1515 h -0.388919 v -0.244347 h 0.388919 z m 1.1626848,-0.03258 h 0.2871078 v 1.747082 l 1.0242215,-0.891867 h 0.4194624 l -1.2156266,1.056801 1.2868945,1.158612 H 6.997855 L 5.8860758,46.126852 v 0.995714 H 5.598968 Z m 2.4088548,2.622659 q 0.1038475,0 0.1771516,0.0733 0.073304,0.0733 0.073304,0.179188 0,0.103847 -0.073304,0.179187 -0.073304,0.0733 -0.1771516,0.0733 -0.1038475,0 -0.1771516,-0.0733 -0.073304,-0.07534 -0.073304,-0.179187 0,-0.105884 0.073304,-0.179188 0.073304,-0.0733 0.1771516,-0.0733 z m 0.7330411,-1.767444 h 0.2911803 v 0.32376 q 0.1303184,-0.191405 0.2748904,-0.285072 0.144572,-0.0957 0.3013614,-0.0957 0.1181011,0 0.252492,0.07534 l -0.1486445,0.240275 q -0.089594,-0.03869 -0.1506807,-0.03869 -0.1425358,0 -0.2748904,0.118101 -0.1323547,0.116065 -0.2015864,0.362448 -0.052942,0.189369 -0.052942,0.765621 v 0.749331 H 8.7408639 Z m 2.4108911,-0.05701 q 0.511093,0 0.84707,0.370593 0.305434,0.338013 0.305434,0.800236 0,0.46426 -0.32376,0.812454 -0.321724,0.346159 -0.828744,0.346159 -0.509056,0 -0.832816,-0.346159 -0.3217239,-0.348194 -0.3217239,-0.812454 0,-0.460187 0.3054339,-0.7982 0.335977,-0.372629 0.849106,-0.372629 z m 0,0.278962 q -0.354303,0 -0.608832,0.262674 -0.254528,0.262673 -0.254528,0.635302 0,0.240275 0.116065,0.44797 0.116065,0.207695 0.313579,0.321723 0.197514,0.111993 0.433716,0.111993 0.236202,0 0.433716,-0.111993 0.197514,-0.114028 0.313579,-0.321723 0.116065,-0.207695 0.116065,-0.44797 0,-0.372629 -0.256565,-0.635302 -0.254528,-0.262674 -0.606795,-0.262674 z m 1.679885,-0.221948 h 0.283036 v 0.38281 q 0.148644,-0.211767 0.305434,-0.309506 0.21584,-0.130318 0.454078,-0.130318 0.160862,0 0.305434,0.06312 0.144572,0.06312 0.236202,0.169006 0.09163,0.103848 0.158826,0.299325 0.142535,-0.260636 0.356339,-0.395027 0.213804,-0.136427 0.460187,-0.136427 0.230093,0 0.405209,0.116064 0.177151,0.116065 0.262673,0.32376 0.08552,0.207695 0.08552,0.623085 v 1.209518 h -0.29118 v -1.209518 q 0,-0.356339 -0.05091,-0.488694 -0.05091,-0.134391 -0.175116,-0.21584 -0.122173,-0.08145 -0.293216,-0.08145 -0.207695,0 -0.380775,0.122174 -0.171042,0.122173 -0.250455,0.325796 -0.07941,0.203622 -0.07941,0.680099 v 0.867432 h -0.283035 v -1.134177 q 0,-0.401137 -0.05091,-0.543673 -0.04887,-0.144572 -0.173079,-0.230093 -0.12421,-0.08756 -0.295253,-0.08756 -0.197514,0 -0.370593,0.120138 -0.171043,0.118101 -0.254528,0.319687 -0.08145,0.201586 -0.08145,0.616976 v 0.9387 H 12.83164 Z m 6.120895,0 v 2.215413 h -0.280999 v -0.380774 q -0.179188,0.217876 -0.403173,0.327832 -0.221949,0.109957 -0.486658,0.109957 -0.470368,0 -0.804309,-0.34005 -0.331905,-0.342086 -0.331905,-0.83078 0,-0.478513 0.335978,-0.818563 0.335977,-0.340049 0.808381,-0.340049 0.272854,0 0.492767,0.116064 0.221948,0.116065 0.388919,0.348195 v -0.407245 z m -1.140286,0.217876 q -0.238239,0 -0.439825,0.118101 -0.201587,0.116065 -0.321724,0.327832 -0.118101,0.211768 -0.118101,0.44797 0,0.234166 0.120137,0.44797 0.120138,0.213803 0.321724,0.333941 0.203623,0.118101 0.435752,0.118101 0.234166,0 0.443897,-0.118101 0.209732,-0.118101 0.321724,-0.319688 0.114029,-0.201586 0.114029,-0.454078 0,-0.384847 -0.254528,-0.643447 -0.252492,-0.258601 -0.623085,-0.258601 z m 1.781697,-0.217876 h 0.285071 v 0.397064 q 0.171043,-0.228057 0.378738,-0.34005 0.207695,-0.114028 0.452042,-0.114028 0.24842,0 0.439825,0.126246 0.193442,0.126246 0.285072,0.340049 0.09163,0.213804 0.09163,0.665846 v 1.140286 h -0.283035 v -1.056801 q 0,-0.38281 -0.03258,-0.511092 -0.05091,-0.219913 -0.191405,-0.329869 -0.1405,-0.111992 -0.366521,-0.111992 -0.2586,0 -0.464259,0.171043 -0.203623,0.171043 -0.268782,0.423534 -0.04072,0.164935 -0.04072,0.602723 v 0.812454 h -0.285071 z m 2.791665,-0.822635 h 0.287108 v 0.822635 h 0.452042 V 45.1515 h -0.452042 v 1.971066 H 22.385611 V 45.1515 h -0.388919 v -0.244347 h 0.388919 z m 1.264497,-0.08959 q 0.09774,0 0.16697,0.06923 0.06923,0.06923 0.06923,0.166971 0,0.0957 -0.06923,0.164934 -0.06923,0.06923 -0.16697,0.06923 -0.0957,0 -0.164935,-0.06923 -0.06923,-0.06923 -0.06923,-0.164934 0,-0.09774 0.06923,-0.166971 0.06923,-0.06923 0.164935,-0.06923 z m -0.142536,0.912229 h 0.287108 v 2.215413 h -0.287108 z m 0.875576,-0.855215 h 0.287108 v 1.747082 l 1.024222,-0.891867 h 0.419462 l -1.215626,1.056801 1.286894,1.158612 h -0.403173 l -1.111779,-0.995714 v 0.995714 h -0.287108 z"
       id="text41604-1-2-4-4-9"
       aria-label="tk.romantik" /><g
       id="g15048-3-5"
       transform="matrix(1.9915519,0,0,1.9915519,-944.47637,-227.88663)"
       style="display:inline"><g
         id="g10256-4-4-6"
         transform="matrix(0.74194823,0,0,0.74194823,68.940803,-0.05975342)"><path
           style="fill:#ffffff;fill-opacity:1;stroke-width:0.00339027"
           d="m 556.33137,163.93 c -0.83488,-0.0388 -1.61265,-0.35936 -2.23249,-0.92009 -0.63978,-0.57875 -1.04429,-1.35463 -1.15076,-2.20719 -0.0195,-0.1563 -0.0254,-0.26055 -0.0254,-0.44751 0,-0.19225 0.006,-0.29344 0.0272,-0.46108 0.10833,-0.85422 0.52127,-1.63416 1.1732,-2.21586 0.1904,-0.1699 0.41299,-0.32822 0.63695,-0.45306 0.39303,-0.21908 0.83012,-0.36248 1.27805,-0.41928 0.16885,-0.0214 0.26767,-0.0273 0.46108,-0.0273 0.1934,0 0.29223,0.006 0.46107,0.0273 0.71178,0.0903 1.37684,0.39334 1.91551,0.87291 0.44052,0.39221 0.77757,0.88345 0.9791,1.42705 0.0946,0.25519 0.15952,0.51946 0.1936,0.78824 0.0214,0.16884 0.0272,0.26767 0.0272,0.46108 0,0.1934 -0.006,0.29223 -0.0272,0.46107 -0.0931,0.73431 -0.41434,1.42158 -0.91903,1.96636 -0.68925,0.74401 -1.63495,1.15553 -2.64381,1.15046 -0.0541,-2.9e-4 -0.12349,-0.002 -0.15426,-0.003 z m 0.34412,-0.34898 c 0.79522,-0.0463 1.52599,-0.37074 2.09119,-0.92859 0.51947,-0.51271 0.84767,-1.17607 0.93779,-1.89548 0.0192,-0.1532 0.0222,-0.2086 0.0222,-0.40174 0,-0.19314 -0.003,-0.24855 -0.0222,-0.40175 -0.10931,-0.87258 -0.57144,-1.66266 -1.28145,-2.19082 -0.45008,-0.33479 -0.96807,-0.54331 -1.52208,-0.61271 -0.15321,-0.0192 -0.20861,-0.0223 -0.40175,-0.0223 -0.19314,0 -0.24854,0.003 -0.40174,0.0223 -0.87031,0.10902 -1.6592,0.5694 -2.18719,1.27641 -0.32248,0.43182 -0.53264,0.93792 -0.60801,1.46422 -0.0255,0.17802 -0.0303,0.2523 -0.0303,0.46465 0,0.18728 0.002,0.22862 0.0169,0.36106 0.11544,1.02188 0.71231,1.92777 1.61018,2.44382 0.42895,0.24653 0.91579,0.39122 1.41544,0.42066 0.0674,0.004 0.29456,0.004 0.36107,2.9e-4 z"
           id="path33545-0-5-7-7-3-9"
           sodipodi:nodetypes="sssscsssscsssscsssssssssssscssscssss" /></g><path
         style="fill:#ffffff;fill-opacity:1;stroke-width:0.00249993"
         d="m 481.3295,120.43613 c -0.19257,-0.005 -0.31686,-0.0229 -0.43412,-0.0627 -0.16495,-0.056 -0.30422,-0.16286 -0.39689,-0.30458 -0.078,-0.11935 -0.12189,-0.25397 -0.1392,-0.42748 -0.0115,-0.11524 -0.0139,-0.2352 -0.0139,-0.69749 0,-0.41371 7.5e-4,-0.49454 0.009,-0.64248 0.0105,-0.20194 0.0554,-0.35241 0.14596,-0.48999 0.10769,-0.16359 0.26349,-0.27073 0.47267,-0.32506 0.0936,-0.0243 0.13792,-0.0285 0.40249,-0.038 0.12568,-0.004 0.87275,-0.004 0.97623,5e-5 0.19827,0.009 0.28729,0.018 0.36999,0.039 0.14061,0.0357 0.26274,0.10357 0.36465,0.20266 0.0668,0.0649 0.11169,0.12731 0.15302,0.21255 0.043,0.0886 0.0699,0.18309 0.0849,0.29794 0.0111,0.0845 0.0107,0.0633 0.0117,0.70703 7.5e-4,0.65745 7.5e-4,0.65447 -0.012,0.77373 -0.0226,0.20437 -0.0953,0.36731 -0.22311,0.49925 -0.13074,0.13502 -0.29888,0.21421 -0.51348,0.24184 -0.0727,0.009 -0.12425,0.0117 -0.31445,0.0139 -0.22498,0.003 -0.83522,0.002 -0.94334,-2.2e-4 z m 0.66961,-0.26972 c 0.45991,-0.004 0.52155,-0.007 0.62476,-0.029 0.0896,-0.0193 0.15652,-0.0479 0.21726,-0.0928 0.11012,-0.0814 0.17906,-0.20049 0.20555,-0.35498 0.0217,-0.12645 0.0259,-0.34668 0.0199,-1.03072 -0.003,-0.30417 -0.004,-0.36076 -0.0152,-0.43125 -0.0164,-0.1096 -0.0451,-0.19334 -0.0891,-0.25999 -0.0674,-0.10215 -0.16013,-0.16984 -0.28397,-0.20729 -0.12378,-0.0374 -0.24876,-0.0439 -0.84177,-0.0439 -0.55817,0 -0.6812,0.005 -0.80258,0.0363 -0.20164,0.051 -0.33907,0.19445 -0.3859,0.40267 -0.0194,0.0865 -0.0277,0.2318 -0.0302,0.53849 -0.001,0.19294 0.002,0.72362 0.006,0.82373 0.006,0.1475 0.0244,0.24591 0.0631,0.33187 0.0721,0.16019 0.21763,0.26525 0.41082,0.29665 0.041,0.007 0.0759,0.009 0.17375,0.014 0.1832,0.009 0.31092,0.01 0.72748,0.006 z m -0.2275,-0.45659 c -0.16179,-0.0191 -0.29187,-0.0728 -0.41373,-0.17057 -0.026,-0.0208 -0.084,-0.0783 -0.10633,-0.10535 -0.0765,-0.0926 -0.12823,-0.19464 -0.15621,-0.30814 -0.0575,-0.23326 -0.004,-0.47559 0.14857,-0.66642 0.0688,-0.0864 0.15854,-0.15837 0.25896,-0.20782 0.0806,-0.0397 0.15908,-0.0632 0.24617,-0.0738 0.0418,-0.005 0.14524,-0.005 0.18867,0 0.20744,0.0243 0.39536,0.13323 0.52358,0.30358 0.0293,0.0389 0.0473,0.0683 0.0729,0.11887 0.0605,0.1196 0.0879,0.2514 0.0799,0.38499 -0.0102,0.1707 -0.0741,0.3286 -0.18523,0.45749 -0.10694,0.12407 -0.24802,0.21057 -0.40599,0.24892 -0.0613,0.0149 -0.0883,0.0178 -0.16875,0.0186 -0.0406,4.4e-4 -0.0777,2.2e-4 -0.0825,-4.5e-4 z m 0.13028,-0.27461 c 0.20142,-0.0235 0.37032,-0.16934 0.42208,-0.36432 0.0132,-0.0498 0.0161,-0.0731 0.0161,-0.13073 -1e-5,-0.0713 -0.009,-0.11805 -0.0335,-0.1812 -0.0586,-0.14898 -0.1906,-0.26344 -0.34571,-0.29991 -0.0451,-0.0106 -0.0709,-0.0137 -0.1167,-0.0137 -0.0458,0 -0.0716,0.003 -0.11669,0.0137 -0.10975,0.0258 -0.21219,0.0932 -0.28108,0.18494 -0.0794,0.10576 -0.11433,0.24586 -0.0934,0.37492 0.0429,0.26471 0.28371,0.44733 0.54897,0.4163 z m 0.6972,-1.1164 c -0.10155,-0.0262 -0.16159,-0.13593 -0.12788,-0.23372 0.0101,-0.0292 0.0209,-0.0465 0.043,-0.0686 0.048,-0.048 0.11324,-0.0654 0.17874,-0.0477 0.064,0.0173 0.11449,0.0717 0.12763,0.13757 0.005,0.0252 0.004,0.0663 -0.003,0.0876 -0.019,0.0625 -0.0678,0.10942 -0.12972,0.12502 -0.0261,0.007 -0.0632,0.007 -0.089,-1.5e-4 z"
         id="path14791-5-5" /></g><path
       id="path484"
       style="stroke-width:0.0135004"
       d="M -296.45358 -2469.9735 C -296.61153 -2469.9735 -296.74097 -2469.8432 -296.74097 -2469.6852 L -296.74097 -2468.6217 L -296.74097 -2467.2718 L -296.74097 -2465.9219 L -296.74097 -2464.5719 L -296.74097 -2463.222 L -296.74097 -2461.8712 L -296.74097 -2460.8077 C -296.74097 -2460.6497 -296.61289 -2460.5203 -296.45358 -2460.5203 L -287.57521 -2460.5203 C -287.41726 -2460.5203 -287.28781 -2460.6484 -287.28781 -2460.8077 L -287.28781 -2461.8712 L -287.28781 -2463.222 L -287.28781 -2464.5719 L -287.28781 -2465.9219 L -287.28781 -2467.2718 L -287.28781 -2468.6217 L -287.28781 -2469.6852 C -287.28781 -2469.8432 -287.41592 -2469.9735 -287.57521 -2469.9735 L -296.45358 -2469.9735 z M -266.75232 -2469.9735 C -266.91028 -2469.9735 -267.03972 -2469.8432 -267.03972 -2469.6852 L -267.03972 -2468.6217 L -267.03972 -2467.2718 L -267.03972 -2465.9219 L -267.03972 -2464.5719 L -267.03972 -2463.222 L -267.03972 -2461.8712 L -267.03972 -2460.8077 C -267.03972 -2460.6497 -266.91163 -2460.5203 -266.75232 -2460.5203 L -257.87486 -2460.5203 C -257.71691 -2460.5203 -257.58746 -2460.6484 -257.58746 -2460.8077 L -257.58746 -2461.8712 L -257.58746 -2463.222 L -257.58746 -2464.5719 L -257.58746 -2465.9219 L -257.58746 -2467.2718 L -257.58746 -2468.6217 L -257.58746 -2469.6852 C -257.58746 -2469.8432 -257.71556 -2469.9735 -257.87486 -2469.9735 L -266.75232 -2469.9735 z M -285.26427 -2469.9717 A 0.67502677 0.67502677 0 0 0 -285.26427 -2468.6217 L -284.58885 -2468.6217 L -283.91434 -2468.6217 A 0.67502677 0.67502677 0 0 0 -283.91434 -2469.9717 L -284.58885 -2469.9717 L -285.26427 -2469.9717 z M -275.81383 -2469.9717 A 0.67502677 0.67502677 0 0 0 -275.81383 -2468.6217 A 0.67501851 0.67501851 0 0 1 -275.13932 -2467.9463 A 0.67542004 0.67542004 0 0 0 -273.78848 -2467.9463 L -273.78848 -2468.6217 L -273.78848 -2469.2963 A 0.67501851 0.67501851 0 0 0 -274.4639 -2469.9717 L -275.13932 -2469.9717 L -275.81383 -2469.9717 z M -269.06416 -2469.9717 A 0.67502 0.67502 0 0 0 -269.73868 -2469.2963 A 0.67501851 0.67501851 0 0 1 -270.4141 -2468.6217 A 0.67501947 0.67501947 0 0 0 -270.4141 -2467.2718 A 0.67501851 0.67501851 0 0 1 -269.73868 -2466.5964 L -269.73868 -2465.9219 L -269.73868 -2464.5719 L -269.73868 -2463.8965 A 0.67502 0.67502 0 0 0 -268.38874 -2463.8965 L -268.38874 -2464.5719 L -268.38874 -2465.9219 L -268.38874 -2467.2718 L -268.38874 -2468.6217 L -268.38874 -2469.2963 A 0.67502 0.67502 0 0 0 -269.06416 -2469.9717 z M -295.22513 -2468.6217 L -288.80365 -2468.6217 C -288.71185 -2468.6217 -288.63956 -2468.5465 -288.63956 -2468.4567 L -288.63956 -2467.2718 L -288.63956 -2465.9219 L -288.63956 -2464.5719 L -288.63956 -2463.222 L -288.63956 -2462.0362 C -288.63956 -2461.9442 -288.71325 -2461.8712 -288.80365 -2461.8712 L -295.22513 -2461.8712 C -295.31693 -2461.8712 -295.38923 -2461.9465 -295.38923 -2462.0362 L -295.38923 -2463.222 L -295.38923 -2464.5719 L -295.38923 -2465.9219 L -295.38923 -2467.2718 L -295.38923 -2468.4567 C -295.38923 -2468.5487 -295.31553 -2468.6217 -295.22513 -2468.6217 z M -278.5137 -2468.6217 A 0.67501851 0.67501851 0 0 0 -279.18912 -2467.9463 A 0.67501851 0.67501851 0 0 0 -278.5137 -2467.2718 A 0.67501947 0.67501947 0 0 0 -278.5137 -2468.6217 z M -265.52387 -2468.6217 L -259.1033 -2468.6217 C -259.0115 -2468.6217 -258.9383 -2468.5465 -258.9383 -2468.4567 L -258.9383 -2467.2718 L -258.9383 -2465.9219 L -258.9383 -2464.5719 L -258.9383 -2463.222 L -258.9383 -2462.0362 C -258.9383 -2461.9442 -259.0129 -2461.8712 -259.1033 -2461.8712 L -265.52387 -2461.8712 C -265.61567 -2461.8712 -265.68888 -2461.9465 -265.68888 -2462.0362 L -265.68888 -2463.222 L -265.68888 -2464.5719 L -265.68888 -2465.9219 L -265.68888 -2467.2718 L -265.68888 -2468.4567 C -265.68888 -2468.5487 -265.61427 -2468.6217 -265.52387 -2468.6217 z M -293.75281 -2467.2727 C -293.91076 -2467.2727 -294.04111 -2467.1446 -294.04111 -2466.9853 L -294.04111 -2465.9219 L -294.04111 -2464.5719 L -294.04111 -2463.5076 C -294.04111 -2463.3496 -293.91212 -2463.2202 -293.75281 -2463.2202 L -290.27689 -2463.2202 C -290.11893 -2463.2202 -289.98949 -2463.3483 -289.98949 -2463.5076 L -289.98949 -2464.5719 L -289.98949 -2465.9219 L -289.98949 -2466.9853 C -289.98949 -2467.1432 -290.11759 -2467.2727 -290.27689 -2467.2727 L -293.75281 -2467.2727 z M -264.05246 -2467.2727 C -264.21042 -2467.2727 -264.33985 -2467.1446 -264.33985 -2466.9853 L -264.33985 -2465.9219 L -264.33985 -2464.5719 L -264.33985 -2463.5076 C -264.33985 -2463.3496 -264.21177 -2463.2202 -264.05246 -2463.2202 L -260.57563 -2463.2202 C -260.41767 -2463.2202 -260.28824 -2463.3483 -260.28824 -2463.5076 L -260.28824 -2464.5719 L -260.28824 -2465.9219 L -260.28824 -2466.9853 C -260.28824 -2467.1432 -260.41633 -2467.2727 -260.57563 -2467.2727 L -264.05246 -2467.2727 z M -285.26427 -2467.2718 A 0.67502 0.67502 0 0 0 -285.93878 -2466.5964 L -285.93878 -2465.9219 L -285.93878 -2464.5719 L -285.93878 -2463.8965 A 0.67501851 0.67501851 0 0 0 -285.26427 -2463.222 A 0.67501851 0.67501851 0 0 1 -284.58885 -2462.5466 A 0.675025 0.675025 0 0 0 -283.23892 -2462.5466 A 0.67501851 0.67501851 0 0 1 -282.5644 -2463.222 L -281.88898 -2463.222 L -281.21447 -2463.222 A 0.67501851 0.67501851 0 0 0 -280.53905 -2463.8965 L -280.53905 -2464.5719 L -280.53905 -2465.2465 A 0.67501851 0.67501851 0 0 1 -279.86363 -2465.9219 A 0.67505 0.67505 0 0 0 -279.86363 -2467.2718 L -280.53905 -2467.2718 L -281.21447 -2467.2718 A 0.67501851 0.67501851 0 0 0 -281.88898 -2466.5964 L -281.88898 -2465.9219 L -281.88898 -2465.2465 A 0.67501851 0.67501851 0 0 1 -282.5644 -2464.5719 A 0.67501851 0.67501851 0 0 1 -283.23892 -2465.2465 A 0.67501851 0.67501851 0 0 0 -283.91434 -2465.9219 A 0.67501851 0.67501851 0 0 1 -284.58885 -2466.5964 A 0.67502 0.67502 0 0 0 -285.26427 -2467.2718 z M -275.81383 -2467.27 A 0.67501851 0.67501851 0 0 0 -276.48925 -2466.5964 L -276.48925 -2465.9219 L -276.48925 -2464.5719 L -276.48925 -2463.8965 A 0.67501851 0.67501851 0 0 1 -277.16376 -2463.222 A 0.67501851 0.67501851 0 0 0 -277.83918 -2462.5466 L -277.83918 -2461.8712 L -277.83918 -2461.1967 A 0.67501851 0.67501851 0 0 1 -278.5137 -2460.5212 A 0.67502677 0.67502677 0 0 0 -278.5137 -2459.1713 L -277.83918 -2459.1713 L -276.48925 -2459.1713 L -275.13932 -2459.1713 L -274.4639 -2459.1713 A 0.67501851 0.67501851 0 0 1 -273.78848 -2458.4968 A 0.67501851 0.67501851 0 0 0 -272.43854 -2458.4968 L -272.43854 -2459.1713 L -272.43854 -2459.8467 A 0.67501851 0.67501851 0 0 0 -273.11396 -2460.5212 A 0.67501851 0.67501851 0 0 1 -273.78848 -2461.1967 A 0.67501851 0.67501851 0 0 1 -273.11396 -2461.8712 A 0.67501851 0.67501851 0 0 1 -272.43854 -2461.1967 A 0.67502 0.67502 0 0 0 -271.08861 -2461.1967 A 0.67501851 0.67501851 0 0 1 -270.4141 -2461.8712 A 0.67542004 0.67542004 0 0 0 -270.4141 -2463.222 L -271.08861 -2463.222 L -271.76403 -2463.222 A 0.67501851 0.67501851 0 0 1 -272.43854 -2463.8965 L -272.43854 -2464.5719 L -272.43854 -2465.9219 L -272.43854 -2466.5964 A 0.67501851 0.67501851 0 0 0 -273.78848 -2466.5964 L -273.78848 -2465.9219 L -273.78848 -2465.2465 A 0.67501851 0.67501851 0 0 1 -274.4639 -2464.5719 A 0.67501851 0.67501851 0 0 1 -275.13932 -2465.2465 L -275.13932 -2465.9219 L -275.13932 -2466.5964 A 0.67501851 0.67501851 0 0 0 -275.81383 -2467.27 z M -279.86363 -2463.2193 A 0.67501851 0.67501851 0 0 0 -280.53905 -2462.5466 L -280.53905 -2461.8712 L -280.53905 -2461.1967 A 0.67501851 0.67501851 0 0 0 -279.18912 -2461.1967 L -279.18912 -2461.8712 L -279.18912 -2462.5466 A 0.67501851 0.67501851 0 0 0 -279.86363 -2463.2193 z M -285.26427 -2461.8712 A 0.67501851 0.67501851 0 0 0 -285.93878 -2461.1967 A 0.67501851 0.67501851 0 0 0 -285.26427 -2460.5212 A 0.67502677 0.67502677 0 0 0 -285.26427 -2461.8712 z M -282.5644 -2461.8712 A 0.67501851 0.67501851 0 0 0 -283.23892 -2461.1967 A 0.67501851 0.67501851 0 0 0 -282.5644 -2460.5212 A 0.67502677 0.67502677 0 0 0 -282.5644 -2461.8712 z M -275.81383 -2461.8712 A 0.67501851 0.67501851 0 0 1 -275.13932 -2461.1967 A 0.67501851 0.67501851 0 0 1 -275.81383 -2460.5212 A 0.67501851 0.67501851 0 0 1 -276.48925 -2461.1967 A 0.67501851 0.67501851 0 0 1 -275.81383 -2461.8712 z M -269.06416 -2461.8712 A 0.67501851 0.67501851 0 0 0 -269.73868 -2461.1967 A 0.67501851 0.67501851 0 0 0 -269.06416 -2460.5212 A 0.67502677 0.67502677 0 0 0 -269.06416 -2461.8712 z M -283.91434 -2460.5212 A 0.67501851 0.67501851 0 0 0 -284.58885 -2459.8467 A 0.67501851 0.67501851 0 0 0 -283.91434 -2459.1713 A 0.67502677 0.67502677 0 0 0 -283.91434 -2460.5212 z M -281.21447 -2460.5212 A 0.67501851 0.67501851 0 0 0 -281.88898 -2459.8467 A 0.67501851 0.67501851 0 0 0 -281.21447 -2459.1713 A 0.67502677 0.67502677 0 0 0 -281.21447 -2460.5212 z M -270.4141 -2460.5194 A 0.67502282 0.67502282 0 0 0 -271.08861 -2459.8467 L -271.08861 -2459.1713 L -271.08861 -2457.8214 L -271.08861 -2457.1469 A 0.67502282 0.67502282 0 0 0 -269.73868 -2457.1469 L -269.73868 -2457.8214 L -269.73868 -2459.1713 L -269.73868 -2459.8467 A 0.67502282 0.67502282 0 0 0 -270.4141 -2460.5194 z M -296.06465 -2459.1713 A 0.67501851 0.67501851 0 0 0 -296.73916 -2458.4968 L -296.73916 -2457.8214 L -296.73916 -2457.1469 A 0.67501851 0.67501851 0 0 0 -295.38923 -2457.1469 A 0.67501851 0.67501851 0 0 1 -294.71471 -2457.8214 L -294.03929 -2457.8214 L -292.68936 -2457.8214 L -292.01394 -2457.8214 A 0.67505 0.67505 0 0 0 -292.01394 -2459.1713 L -292.68936 -2459.1713 L -294.03929 -2459.1713 L -295.38923 -2459.1713 L -296.06465 -2459.1713 z M -287.96414 -2459.1713 A 0.67501851 0.67501851 0 0 0 -288.63956 -2458.4968 A 0.67501851 0.67501851 0 0 0 -287.96414 -2457.8214 A 0.67505 0.67505 0 0 0 -287.96414 -2459.1713 z M -285.26427 -2459.1713 A 0.67502 0.67502 0 0 0 -285.93878 -2458.4968 L -285.93878 -2457.8214 L -285.93878 -2456.4714 L -285.93878 -2455.796 A 0.67502 0.67502 0 0 0 -284.58885 -2455.796 A 0.67501851 0.67501851 0 0 1 -283.91434 -2456.4714 A 0.67502677 0.67502677 0 0 0 -283.91434 -2457.8214 A 0.67501851 0.67501851 0 0 1 -284.58885 -2458.4968 A 0.67502 0.67502 0 0 0 -285.26427 -2459.1713 z M -267.71332 -2459.1713 A 0.67501851 0.67501851 0 0 0 -268.38874 -2458.4968 A 0.67501851 0.67501851 0 0 0 -267.71332 -2457.8214 A 0.67505 0.67505 0 0 0 -267.71332 -2459.1713 z M -263.66352 -2459.1713 A 0.67501851 0.67501851 0 0 0 -264.33894 -2458.4968 A 0.67501851 0.67501851 0 0 1 -265.01346 -2457.8214 L -265.68888 -2457.8214 L -266.36339 -2457.8214 A 0.67502677 0.67502677 0 0 0 -266.36339 -2456.4714 L -265.68888 -2456.4714 L -265.01346 -2456.4714 A 0.67501851 0.67501851 0 0 1 -264.33894 -2455.796 A 0.67501851 0.67501851 0 0 0 -263.66352 -2455.1215 L -262.98901 -2455.1215 L -262.31359 -2455.1215 A 0.67501851 0.67501851 0 0 0 -261.63817 -2455.796 L -261.63817 -2456.4714 L -261.63817 -2457.1469 A 0.67501851 0.67501851 0 0 1 -260.96366 -2457.8214 A 0.67505 0.67505 0 0 0 -260.96366 -2459.1713 L -261.63817 -2459.1713 L -262.98901 -2459.1713 L -263.66352 -2459.1713 z M -258.26379 -2459.1713 A 0.67501851 0.67501851 0 0 0 -258.9383 -2458.4968 A 0.67501851 0.67501851 0 0 0 -258.26379 -2457.8214 A 0.67505 0.67505 0 0 0 -258.26379 -2459.1713 z M -290.66401 -2457.8214 A 0.67501851 0.67501851 0 0 0 -291.33943 -2457.1469 A 0.67501851 0.67501851 0 0 0 -290.66401 -2456.4714 A 0.67502677 0.67502677 0 0 0 -290.66401 -2457.8214 z M -277.16376 -2457.8214 A 0.67501851 0.67501851 0 0 0 -277.83918 -2457.1469 L -277.83918 -2456.4714 L -277.83918 -2455.796 A 0.67502 0.67502 0 0 0 -276.48925 -2455.796 A 0.67501851 0.67501851 0 0 1 -275.81383 -2456.4714 A 0.67502677 0.67502677 0 0 0 -275.81383 -2457.8214 L -276.48925 -2457.8214 L -277.16376 -2457.8214 z M -259.61372 -2457.8196 A 0.67501851 0.67501851 0 0 0 -260.28824 -2457.1469 L -260.28824 -2456.4714 L -260.28824 -2455.1215 L -260.28824 -2454.4461 A 0.67501851 0.67501851 0 0 0 -258.9383 -2454.4461 L -258.9383 -2455.1215 L -258.9383 -2456.4714 L -258.9383 -2457.1469 A 0.67501851 0.67501851 0 0 0 -259.61372 -2457.8196 z M -287.96414 -2456.4714 A 0.67501851 0.67501851 0 0 0 -288.63956 -2455.796 A 0.67501851 0.67501851 0 0 0 -287.96414 -2455.1215 A 0.67505 0.67505 0 0 0 -287.96414 -2456.4714 z M -271.76403 -2456.4714 A 0.67501851 0.67501851 0 0 0 -272.43854 -2455.796 A 0.67501851 0.67501851 0 0 0 -271.76403 -2455.1215 A 0.67505 0.67505 0 0 0 -271.76403 -2456.4714 z M -293.36478 -2456.4687 A 0.67501891 0.67501891 0 0 0 -294.03929 -2455.796 A 0.67501851 0.67501851 0 0 1 -294.71471 -2455.1215 L -295.38923 -2455.1215 L -296.06465 -2455.1215 A 0.67501947 0.67501947 0 0 0 -296.06465 -2453.7716 A 0.67501851 0.67501851 0 0 1 -295.38923 -2453.0961 A 0.67501851 0.67501851 0 0 1 -296.06465 -2452.4216 A 0.67542004 0.67542004 0 0 0 -296.06465 -2451.0708 A 0.67501851 0.67501851 0 0 1 -295.38923 -2450.3963 L -295.38923 -2449.7209 L -295.38923 -2448.3709 L -295.38923 -2447.021 L -295.38923 -2446.3465 A 0.67501851 0.67501851 0 0 0 -294.71471 -2445.6711 A 0.67501851 0.67501851 0 0 1 -294.03929 -2444.9965 L -294.03929 -2444.3211 L -294.03929 -2443.6457 A 0.67501851 0.67501851 0 0 1 -294.71471 -2442.9712 A 0.67502677 0.67502677 0 0 0 -294.71471 -2441.6213 L -294.03929 -2441.6213 L -292.68936 -2441.6213 L -292.01394 -2441.6213 A 0.67502677 0.67502677 0 0 0 -292.01394 -2442.9712 A 0.67501851 0.67501851 0 0 1 -292.68936 -2443.6457 L -292.68936 -2444.3211 L -292.68936 -2445.6711 L -292.68936 -2446.3465 A 0.67501851 0.67501851 0 0 0 -293.36478 -2447.021 A 0.67501851 0.67501851 0 0 1 -294.03929 -2447.6964 A 0.67501851 0.67501851 0 0 1 -293.36478 -2448.3709 A 0.67501851 0.67501851 0 0 1 -292.68936 -2447.6964 A 0.67502 0.67502 0 0 0 -291.33943 -2447.6964 L -291.33943 -2448.3709 L -291.33943 -2449.0463 A 0.67501851 0.67501851 0 0 0 -292.01394 -2449.7209 L -292.68936 -2449.7209 L -293.36478 -2449.7209 A 0.67501851 0.67501851 0 0 1 -294.03929 -2450.3963 A 0.67501851 0.67501851 0 0 1 -293.36478 -2451.0708 L -292.68936 -2451.0708 L -291.33943 -2451.0708 L -290.66401 -2451.0708 A 0.67501851 0.67501851 0 0 0 -289.98949 -2451.7462 A 0.67501851 0.67501851 0 0 1 -289.31407 -2452.4216 L -288.63956 -2452.4216 L -287.96414 -2452.4216 A 0.67502677 0.67502677 0 0 0 -287.96414 -2453.7716 L -288.63956 -2453.7716 L -289.31407 -2453.7716 A 0.67501851 0.67501851 0 0 1 -289.98949 -2454.4461 A 0.67501851 0.67501851 0 0 0 -290.66401 -2455.1215 L -291.33943 -2455.1215 L -292.01394 -2455.1215 A 0.67501851 0.67501851 0 0 1 -292.68936 -2455.796 A 0.67501891 0.67501891 0 0 0 -293.36478 -2456.4687 z M -286.6142 -2455.1215 A 0.67501851 0.67501851 0 0 0 -287.28963 -2454.4461 A 0.67501851 0.67501851 0 0 0 -286.6142 -2453.7716 A 0.67501947 0.67501947 0 0 0 -286.6142 -2455.1215 z M -281.21447 -2455.1215 A 0.67501851 0.67501851 0 0 0 -281.88898 -2454.4461 L -281.88898 -2453.7716 L -281.88898 -2453.0961 A 0.67501851 0.67501851 0 0 1 -282.5644 -2452.4216 A 0.67501851 0.67501851 0 0 1 -283.23892 -2453.0961 A 0.67501851 0.67501851 0 0 0 -283.91434 -2453.7716 L -284.58885 -2453.7716 L -285.26427 -2453.7716 A 0.67501851 0.67501851 0 0 0 -285.93878 -2453.0961 A 0.67501851 0.67501851 0 0 1 -286.6142 -2452.4216 A 0.67542004 0.67542004 0 0 0 -286.6142 -2451.0708 L -285.93878 -2451.0708 L -284.58885 -2451.0708 L -283.91434 -2451.0708 A 0.67501851 0.67501851 0 0 1 -283.23892 -2450.3963 A 0.67501851 0.67501851 0 0 1 -283.91434 -2449.7209 A 0.67501947 0.67501947 0 0 0 -283.91434 -2448.3709 L -283.23892 -2448.3709 L -282.5644 -2448.3709 A 0.67501851 0.67501851 0 0 0 -281.88898 -2449.0463 L -281.88898 -2449.7209 L -281.88898 -2450.3963 A 0.67501851 0.67501851 0 0 1 -281.21447 -2451.0708 A 0.67501851 0.67501851 0 0 0 -280.53905 -2451.7462 L -280.53905 -2452.4216 L -280.53905 -2453.0961 A 0.67501851 0.67501851 0 0 1 -279.86363 -2453.7716 L -279.18912 -2453.7716 L -278.5137 -2453.7716 A 0.67501947 0.67501947 0 0 0 -278.5137 -2455.1215 L -279.18912 -2455.1215 L -280.53905 -2455.1215 L -281.21447 -2455.1215 z M -269.06416 -2455.1215 A 0.67502 0.67502 0 0 0 -269.73868 -2454.4461 L -269.73868 -2453.7716 L -269.73868 -2453.0961 A 0.67502 0.67502 0 0 0 -268.38874 -2453.0961 L -268.38874 -2453.7716 L -268.38874 -2454.4461 A 0.67502 0.67502 0 0 0 -269.06416 -2455.1215 z M -265.01346 -2455.1215 A 0.67502 0.67502 0 0 0 -265.68888 -2454.4461 A 0.67501851 0.67501851 0 0 1 -266.36339 -2453.7716 A 0.67501851 0.67501851 0 0 0 -267.03881 -2453.0961 L -267.03881 -2452.4216 L -267.03881 -2451.7462 A 0.67501851 0.67501851 0 0 1 -267.71332 -2451.0708 A 0.67501851 0.67501851 0 0 0 -268.38874 -2450.3963 A 0.67501851 0.67501851 0 0 1 -269.06416 -2449.7209 A 0.67501851 0.67501851 0 0 1 -269.73868 -2450.3963 L -269.73868 -2451.0708 L -269.73868 -2451.7462 A 0.67501851 0.67501851 0 0 0 -270.4141 -2452.4216 L -271.08861 -2452.4216 L -271.76403 -2452.4216 A 0.67501851 0.67501851 0 0 1 -272.43854 -2453.0961 L -272.43854 -2453.7716 L -272.43854 -2454.4461 A 0.67501851 0.67501851 0 0 0 -273.78848 -2454.4461 A 0.67501851 0.67501851 0 0 1 -274.4639 -2453.7716 A 0.67501851 0.67501851 0 0 1 -275.13932 -2454.4461 A 0.67501851 0.67501851 0 0 0 -276.48925 -2454.4461 L -276.48925 -2453.7716 L -276.48925 -2453.0961 A 0.67501851 0.67501851 0 0 0 -275.81383 -2452.4216 A 0.67501851 0.67501851 0 0 1 -275.13932 -2451.7462 A 0.67501851 0.67501851 0 0 1 -275.81383 -2451.0708 A 0.67501851 0.67501851 0 0 1 -276.48925 -2451.7462 A 0.67501851 0.67501851 0 0 0 -277.16376 -2452.4216 L -277.83918 -2452.4216 L -278.5137 -2452.4216 A 0.67542004 0.67542004 0 0 0 -278.5137 -2451.0708 A 0.67501851 0.67501851 0 0 1 -277.83918 -2450.3963 A 0.67501851 0.67501851 0 0 0 -277.16376 -2449.7209 L -276.48925 -2449.7209 L -275.81383 -2449.7209 A 0.67501851 0.67501851 0 0 1 -275.13932 -2449.0463 L -275.13932 -2448.3709 L -275.13932 -2447.6964 A 0.67501851 0.67501851 0 0 0 -274.4639 -2447.021 L -273.78848 -2447.021 L -273.11396 -2447.021 A 0.67501851 0.67501851 0 0 1 -272.43854 -2446.3465 A 0.67501851 0.67501851 0 0 1 -273.11396 -2445.6711 A 0.67501947 0.67501947 0 0 0 -273.11396 -2444.3211 L -272.43854 -2444.3211 L -271.76403 -2444.3211 A 0.67501851 0.67501851 0 0 0 -271.08861 -2444.9965 A 0.67501851 0.67501851 0 0 1 -270.4141 -2445.6711 A 0.67502677 0.67502677 0 0 0 -270.4141 -2447.021 A 0.67501851 0.67501851 0 0 1 -271.08861 -2447.6964 A 0.67501851 0.67501851 0 0 1 -270.4141 -2448.3709 L -269.73868 -2448.3709 L -268.38874 -2448.3709 L -267.71332 -2448.3709 A 0.67501851 0.67501851 0 0 1 -267.03881 -2447.6964 A 0.67501851 0.67501851 0 0 1 -267.71332 -2447.021 A 0.67502677 0.67502677 0 0 0 -267.71332 -2445.6711 L -267.03881 -2445.6711 L -266.36339 -2445.6711 A 0.67501851 0.67501851 0 0 1 -265.68888 -2444.9965 A 0.67502 0.67502 0 0 0 -264.33894 -2444.9965 L -264.33894 -2445.6711 L -264.33894 -2446.3465 A 0.67501851 0.67501851 0 0 0 -265.01346 -2447.021 A 0.67501851 0.67501851 0 0 1 -265.68888 -2447.6964 A 0.67501851 0.67501851 0 0 1 -265.01346 -2448.3709 A 0.67501851 0.67501851 0 0 1 -264.33894 -2447.6964 A 0.67501851 0.67501851 0 0 0 -262.98901 -2447.6964 L -262.98901 -2448.3709 L -262.98901 -2449.7209 L -262.98901 -2450.3963 A 0.67501851 0.67501851 0 0 0 -263.66352 -2451.0708 L -264.33894 -2451.0708 L -265.01346 -2451.0708 A 0.67501851 0.67501851 0 0 1 -265.68888 -2451.7462 A 0.67501851 0.67501851 0 0 1 -265.01346 -2452.4216 A 0.67501851 0.67501851 0 0 0 -264.33894 -2453.0961 L -264.33894 -2453.7716 L -264.33894 -2454.4461 A 0.67502 0.67502 0 0 0 -265.01346 -2455.1215 z M -262.31359 -2452.4216 A 0.67542004 0.67542004 0 0 0 -262.31359 -2451.0708 A 0.67501851 0.67501851 0 0 1 -261.63817 -2450.3963 A 0.67502 0.67502 0 0 0 -260.28824 -2450.3963 L -260.28824 -2451.0708 L -260.28824 -2451.7462 A 0.67501851 0.67501851 0 0 0 -260.96366 -2452.4216 L -261.63817 -2452.4216 L -262.31359 -2452.4216 z M -289.31407 -2451.0708 A 0.67501851 0.67501851 0 0 0 -289.98949 -2450.3963 L -289.98949 -2449.7209 L -289.98949 -2448.3709 L -289.98949 -2447.6964 A 0.67501851 0.67501851 0 0 0 -289.31407 -2447.021 L -288.63956 -2447.021 L -287.96414 -2447.021 A 0.67505 0.67505 0 0 0 -287.96414 -2448.3709 A 0.67501851 0.67501851 0 0 1 -288.63956 -2449.0463 A 0.67501851 0.67501851 0 0 1 -287.96414 -2449.7209 A 0.67502677 0.67502677 0 0 0 -287.96414 -2451.0708 L -288.63956 -2451.0708 L -289.31407 -2451.0708 z M -279.86363 -2451.069 A 0.67501851 0.67501851 0 0 0 -280.53905 -2450.3963 L -280.53905 -2449.7209 L -280.53905 -2449.0463 A 0.67501851 0.67501851 0 0 0 -279.86363 -2448.3709 L -279.18912 -2448.3709 L -278.5137 -2448.3709 A 0.67501947 0.67501947 0 0 0 -278.5137 -2449.7209 A 0.67501851 0.67501851 0 0 1 -279.18912 -2450.3963 A 0.67501851 0.67501851 0 0 0 -279.86363 -2451.069 z M -259.61372 -2449.7209 A 0.67501851 0.67501851 0 0 0 -260.28824 -2449.0463 A 0.67501851 0.67501851 0 0 1 -260.96366 -2448.3709 A 0.67505 0.67505 0 0 0 -260.96366 -2447.021 A 0.67501851 0.67501851 0 0 1 -260.28824 -2446.3465 A 0.67501851 0.67501851 0 0 0 -259.61372 -2445.6711 L -258.9383 -2445.6711 L -258.26379 -2445.6711 A 0.67502677 0.67502677 0 0 0 -258.26379 -2447.021 A 0.67501851 0.67501851 0 0 1 -258.9383 -2447.6964 A 0.67501851 0.67501851 0 0 1 -258.26379 -2448.3709 A 0.67501947 0.67501947 0 0 0 -258.26379 -2449.7209 L -258.9383 -2449.7209 L -259.61372 -2449.7209 z M -281.21447 -2448.3709 A 0.67501851 0.67501851 0 0 0 -281.88898 -2447.6964 A 0.67501851 0.67501851 0 0 0 -281.21447 -2447.021 A 0.67505 0.67505 0 0 0 -281.21447 -2448.3709 z M -290.66401 -2447.021 A 0.67501851 0.67501851 0 0 0 -291.33943 -2446.3465 A 0.67501851 0.67501851 0 0 0 -290.66401 -2445.6711 A 0.67502677 0.67502677 0 0 0 -290.66401 -2447.021 z M -286.6142 -2447.021 A 0.67501851 0.67501851 0 0 0 -287.28963 -2446.3465 A 0.67501851 0.67501851 0 0 1 -287.96414 -2445.6711 A 0.67501947 0.67501947 0 0 0 -287.96414 -2444.3211 A 0.67501851 0.67501851 0 0 1 -287.28963 -2443.6457 A 0.67501851 0.67501851 0 0 1 -287.96414 -2442.9712 A 0.67502677 0.67502677 0 0 0 -287.96414 -2441.6213 L -287.28963 -2441.6213 L -286.6142 -2441.6213 A 0.67501851 0.67501851 0 0 1 -285.93878 -2440.9458 A 0.67501851 0.67501851 0 0 0 -285.26427 -2440.2713 A 0.67501851 0.67501851 0 0 1 -284.58885 -2439.5959 L -284.58885 -2438.9205 L -284.58885 -2437.5706 L -284.58885 -2436.896 A 0.67501851 0.67501851 0 0 0 -283.91434 -2436.2206 L -283.23892 -2436.2206 L -282.5644 -2436.2206 A 0.67501851 0.67501851 0 0 0 -281.88898 -2436.896 L -281.88898 -2437.5706 L -281.88898 -2438.246 A 0.67501851 0.67501851 0 0 0 -282.5644 -2438.9205 A 0.67501851 0.67501851 0 0 1 -283.23892 -2439.5959 A 0.67501851 0.67501851 0 0 1 -282.5644 -2440.2713 A 0.67502677 0.67502677 0 0 0 -282.5644 -2441.6213 L -283.23892 -2441.6213 L -283.91434 -2441.6213 A 0.67501851 0.67501851 0 0 1 -284.58885 -2442.2958 A 0.67501851 0.67501851 0 0 1 -283.91434 -2442.9712 L -283.23892 -2442.9712 L -282.5644 -2442.9712 A 0.67505 0.67505 0 0 0 -282.5644 -2444.3211 A 0.67501851 0.67501851 0 0 1 -283.23892 -2444.9965 L -283.23892 -2445.6711 L -283.23892 -2446.3465 A 0.67501851 0.67501851 0 0 0 -283.91434 -2447.021 L -284.58885 -2447.021 L -285.93878 -2447.021 L -286.6142 -2447.021 z M -279.86363 -2447.021 A 0.67501851 0.67501851 0 0 0 -280.53905 -2446.3465 A 0.67501851 0.67501851 0 0 1 -281.21447 -2445.6711 A 0.67501947 0.67501947 0 0 0 -281.21447 -2444.3211 A 0.67501851 0.67501851 0 0 1 -280.53905 -2443.6457 A 0.67501851 0.67501851 0 0 1 -281.21447 -2442.9712 A 0.67502677 0.67502677 0 0 0 -281.21447 -2441.6213 A 0.67501851 0.67501851 0 0 1 -280.53905 -2440.9458 A 0.67501851 0.67501851 0 0 1 -281.21447 -2440.2713 A 0.67542004 0.67542004 0 0 0 -281.21447 -2438.9205 L -280.53905 -2438.9205 L -279.18912 -2438.9205 L -278.5137 -2438.9205 A 0.67501851 0.67501851 0 0 0 -277.83918 -2439.5959 A 0.67501851 0.67501851 0 0 1 -277.16376 -2440.2713 A 0.67502677 0.67502677 0 0 0 -277.16376 -2441.6213 A 0.67501851 0.67501851 0 0 1 -277.83918 -2442.2958 A 0.67501851 0.67501851 0 0 0 -278.5137 -2442.9712 A 0.67501851 0.67501851 0 0 1 -279.18912 -2443.6457 L -279.18912 -2444.3211 L -279.18912 -2444.9965 A 0.67501851 0.67501851 0 0 1 -278.5137 -2445.6711 A 0.67502677 0.67502677 0 0 0 -278.5137 -2447.021 L -279.18912 -2447.021 L -279.86363 -2447.021 z M -275.81383 -2447.021 A 0.67501851 0.67501851 0 0 0 -276.48925 -2446.3465 A 0.67501851 0.67501851 0 0 0 -275.81383 -2445.6711 A 0.67502677 0.67502677 0 0 0 -275.81383 -2447.021 z M -296.06465 -2445.6711 A 0.67501851 0.67501851 0 0 0 -296.73916 -2444.9965 A 0.67501851 0.67501851 0 0 0 -296.06465 -2444.3211 A 0.67501947 0.67501947 0 0 0 -296.06465 -2445.6711 z M -285.26427 -2445.6711 A 0.67501851 0.67501851 0 0 1 -284.58885 -2444.9965 A 0.67501851 0.67501851 0 0 1 -285.26427 -2444.3211 A 0.67501851 0.67501851 0 0 1 -285.93878 -2444.9965 A 0.67501851 0.67501851 0 0 1 -285.26427 -2445.6711 z M -262.31359 -2445.6711 A 0.67501947 0.67501947 0 0 0 -262.31359 -2444.3211 A 0.67501851 0.67501851 0 0 1 -261.63817 -2443.6457 L -261.63817 -2442.9712 L -261.63817 -2442.2958 A 0.67502 0.67502 0 0 0 -260.28824 -2442.2958 L -260.28824 -2442.9712 L -260.28824 -2444.3211 L -260.28824 -2444.9965 A 0.67501851 0.67501851 0 0 0 -260.96366 -2445.6711 L -261.63817 -2445.6711 L -262.31359 -2445.6711 z M -290.66401 -2444.3211 A 0.67505 0.67505 0 0 0 -290.66401 -2442.9712 L -289.98949 -2442.9712 L -289.31407 -2442.9712 A 0.67505 0.67505 0 0 0 -289.31407 -2444.3211 L -289.98949 -2444.3211 L -290.66401 -2444.3211 z M -275.81383 -2444.3211 A 0.67505 0.67505 0 0 0 -275.81383 -2442.9712 A 0.67501851 0.67501851 0 0 1 -275.13932 -2442.2958 A 0.67501851 0.67501851 0 0 0 -274.4639 -2441.6213 L -273.78848 -2441.6213 L -272.43854 -2441.6213 L -271.08861 -2441.6213 L -270.4141 -2441.6213 A 0.67501851 0.67501851 0 0 1 -269.73868 -2440.9458 L -269.73868 -2440.2713 L -269.73868 -2438.9205 L -269.73868 -2437.5706 L -269.73868 -2436.896 A 0.67501851 0.67501851 0 0 0 -269.06416 -2436.2206 A 0.67501851 0.67501851 0 0 1 -268.38874 -2435.5461 A 0.67501851 0.67501851 0 0 0 -267.71332 -2434.8707 L -267.03881 -2434.8707 L -266.36339 -2434.8707 A 0.67501851 0.67501851 0 0 0 -265.68888 -2435.5461 A 0.67501851 0.67501851 0 0 1 -265.01346 -2436.2206 A 0.67501851 0.67501851 0 0 1 -264.33894 -2435.5461 A 0.67501851 0.67501851 0 0 1 -265.01346 -2434.8707 A 0.67502677 0.67502677 0 0 0 -265.01346 -2433.5208 L -264.33894 -2433.5208 L -263.66352 -2433.5208 A 0.67501851 0.67501851 0 0 1 -262.98901 -2432.8462 L -262.98901 -2432.1708 L -262.98901 -2431.4954 A 0.67542004 0.67542004 0 0 0 -261.63817 -2431.4954 A 0.67501851 0.67501851 0 0 1 -260.96366 -2432.1708 A 0.67501851 0.67501851 0 0 0 -260.28824 -2432.8462 L -260.28824 -2433.5208 L -260.28824 -2434.1962 A 0.67501851 0.67501851 0 0 1 -259.61372 -2434.8707 A 0.67501851 0.67501851 0 0 0 -258.9383 -2435.5461 A 0.67501851 0.67501851 0 0 1 -258.26379 -2436.2206 A 0.67505 0.67505 0 0 0 -258.26379 -2437.5706 L -258.9383 -2437.5706 L -259.61372 -2437.5706 A 0.67501851 0.67501851 0 0 1 -260.28824 -2438.246 A 0.67501851 0.67501851 0 0 0 -260.96366 -2438.9205 A 0.67501851 0.67501851 0 0 1 -261.63817 -2439.5959 A 0.67501851 0.67501851 0 0 0 -262.31359 -2440.2713 A 0.67501851 0.67501851 0 0 1 -262.98901 -2440.9458 L -262.98901 -2441.6213 L -262.98901 -2442.2958 A 0.67501851 0.67501851 0 0 0 -263.66352 -2442.9712 L -264.33894 -2442.9712 L -265.01346 -2442.9712 A 0.67501851 0.67501851 0 0 1 -265.68888 -2443.6457 A 0.67501891 0.67501891 0 0 0 -267.03881 -2443.6457 A 0.67501851 0.67501851 0 0 1 -267.71332 -2442.9712 L -268.38874 -2442.9712 L -269.06416 -2442.9712 A 0.67501851 0.67501851 0 0 1 -269.73868 -2443.6457 A 0.67502282 0.67502282 0 0 0 -271.08861 -2443.6457 A 0.67501851 0.67501851 0 0 1 -271.76403 -2442.9712 L -272.43854 -2442.9712 L -273.11396 -2442.9712 A 0.67501851 0.67501851 0 0 1 -273.78848 -2443.6457 A 0.67501851 0.67501851 0 0 0 -274.4639 -2444.3211 L -275.13932 -2444.3211 L -275.81383 -2444.3211 z M -258.26379 -2444.3211 A 0.675025 0.675025 0 0 0 -258.9383 -2443.6457 L -258.9383 -2442.9712 L -258.9383 -2442.2958 A 0.675025 0.675025 0 0 0 -257.58837 -2442.2958 L -257.58837 -2442.9712 L -257.58837 -2443.6457 A 0.675025 0.675025 0 0 0 -258.26379 -2444.3211 z M -267.71332 -2441.6213 L -267.03881 -2441.6213 L -265.68888 -2441.6213 L -265.01346 -2441.6213 A 0.67501851 0.67501851 0 0 1 -264.33894 -2440.9458 L -264.33894 -2440.2713 L -264.33894 -2438.9205 L -264.33894 -2438.246 A 0.67501851 0.67501851 0 0 1 -265.01346 -2437.5706 L -265.68888 -2437.5706 L -267.03881 -2437.5706 L -267.71332 -2437.5706 A 0.67501851 0.67501851 0 0 1 -268.38874 -2438.246 L -268.38874 -2438.9205 L -268.38874 -2440.2713 L -268.38874 -2440.9458 A 0.67501851 0.67501851 0 0 1 -267.71332 -2441.6213 z M -259.61372 -2441.6185 A 0.67501851 0.67501851 0 0 0 -260.28824 -2440.9458 L -260.28824 -2440.2713 L -260.28824 -2439.5959 A 0.67501851 0.67501851 0 0 0 -258.9383 -2439.5959 L -258.9383 -2440.2713 L -258.9383 -2440.9458 A 0.67501851 0.67501851 0 0 0 -259.61372 -2441.6185 z M -296.45358 -2440.2722 C -296.61153 -2440.2722 -296.74097 -2440.1428 -296.74097 -2439.9848 L -296.74097 -2438.9205 L -296.74097 -2437.5706 L -296.74097 -2436.2206 L -296.74097 -2434.8707 L -296.74097 -2433.5208 L -296.74097 -2432.1708 L -296.74097 -2431.1065 C -296.74097 -2430.9485 -296.61289 -2430.8191 -296.45358 -2430.8191 L -287.57521 -2430.8191 C -287.41726 -2430.8191 -287.28781 -2430.9472 -287.28781 -2431.1065 L -287.28781 -2432.1708 L -287.28781 -2433.5208 L -287.28781 -2434.8707 L -287.28781 -2436.2206 L -287.28781 -2437.5706 L -287.28781 -2438.9205 L -287.28781 -2439.9848 C -287.28781 -2440.1428 -287.41592 -2440.2722 -287.57521 -2440.2722 L -296.45358 -2440.2722 z M -274.4639 -2440.2713 A 0.67501851 0.67501851 0 0 0 -275.13932 -2439.5959 A 0.67501851 0.67501851 0 0 0 -274.4639 -2438.9205 A 0.67542004 0.67542004 0 0 0 -274.4639 -2440.2713 z M -271.76403 -2440.2713 A 0.67502 0.67502 0 0 0 -272.43854 -2439.5959 L -272.43854 -2438.9205 L -272.43854 -2438.246 A 0.67502 0.67502 0 0 0 -271.08861 -2438.246 L -271.08861 -2438.9205 L -271.08861 -2439.5959 A 0.67502 0.67502 0 0 0 -271.76403 -2440.2713 z M -266.36339 -2440.2713 A 0.67501851 0.67501851 0 0 0 -267.03881 -2439.5959 A 0.67501851 0.67501851 0 0 0 -266.36339 -2438.9205 A 0.67542004 0.67542004 0 0 0 -266.36339 -2440.2713 z M -295.22513 -2438.9205 L -288.80365 -2438.9205 C -288.71185 -2438.9205 -288.63956 -2438.846 -288.63956 -2438.7564 L -288.63956 -2437.5706 L -288.63956 -2436.2206 L -288.63956 -2434.8707 L -288.63956 -2433.5208 L -288.63956 -2432.3358 C -288.63956 -2432.2438 -288.71325 -2432.1708 -288.80365 -2432.1708 L -295.22513 -2432.1708 C -295.31693 -2432.1708 -295.38923 -2432.2461 -295.38923 -2432.3358 L -295.38923 -2433.5208 L -295.38923 -2434.8707 L -295.38923 -2436.2206 L -295.38923 -2437.5706 L -295.38923 -2438.7564 C -295.38923 -2438.8484 -295.31553 -2438.9205 -295.22513 -2438.9205 z M -275.81383 -2438.9187 A 0.67501851 0.67501851 0 0 0 -276.48925 -2438.246 A 0.67501851 0.67501851 0 0 1 -277.16376 -2437.5706 A 0.67501851 0.67501851 0 0 0 -277.83918 -2436.896 L -277.83918 -2436.2206 L -277.83918 -2435.5461 A 0.67501851 0.67501851 0 0 0 -277.16376 -2434.8707 A 0.67501851 0.67501851 0 0 1 -276.48925 -2434.1962 A 0.67501851 0.67501851 0 0 0 -275.81383 -2433.5208 L -275.13932 -2433.5208 L -274.4639 -2433.5208 A 0.67501851 0.67501851 0 0 1 -273.78848 -2432.8462 A 0.67501851 0.67501851 0 0 0 -273.11396 -2432.1708 L -272.43854 -2432.1708 L -271.08861 -2432.1708 L -270.4141 -2432.1708 A 0.67501851 0.67501851 0 0 1 -269.73868 -2431.4954 A 0.67501851 0.67501851 0 0 0 -269.06416 -2430.8209 L -268.38874 -2430.8209 L -267.03881 -2430.8209 L -265.68888 -2430.8209 L -265.01346 -2430.8209 A 0.67501851 0.67501851 0 0 0 -265.01346 -2432.1708 L -265.68888 -2432.1708 L -267.03881 -2432.1708 L -267.71332 -2432.1708 A 0.67501851 0.67501851 0 0 1 -268.38874 -2432.8462 A 0.67501851 0.67501851 0 0 0 -269.06416 -2433.5208 L -269.73868 -2433.5208 L -270.4141 -2433.5208 A 0.67501851 0.67501851 0 0 1 -271.08861 -2434.1962 A 0.67501851 0.67501851 0 0 0 -271.76403 -2434.8707 A 0.67501851 0.67501851 0 0 1 -272.43854 -2435.5461 A 0.67501851 0.67501851 0 0 0 -273.11396 -2436.2206 L -273.78848 -2436.2206 L -274.4639 -2436.2206 A 0.67501851 0.67501851 0 0 1 -275.13932 -2436.896 L -275.13932 -2437.5706 L -275.13932 -2438.246 A 0.67501851 0.67501851 0 0 0 -275.81383 -2438.9187 z M -293.75281 -2437.5724 C -293.91076 -2437.5724 -294.04111 -2437.4443 -294.04111 -2437.285 L -294.04111 -2436.2206 L -294.04111 -2434.8707 L -294.04111 -2433.8072 C -294.04111 -2433.6493 -293.91212 -2433.5198 -293.75281 -2433.5198 L -290.27689 -2433.5198 C -290.11893 -2433.5198 -289.98949 -2433.648 -289.98949 -2433.8072 L -289.98949 -2434.8707 L -289.98949 -2436.2206 L -289.98949 -2437.285 C -289.98949 -2437.4429 -290.11759 -2437.5724 -290.27689 -2437.5724 L -293.75281 -2437.5724 z M -262.31359 -2437.5706 A 0.67501851 0.67501851 0 0 1 -261.63817 -2436.896 L -261.63817 -2436.2206 L -261.63817 -2435.5461 A 0.67501851 0.67501851 0 0 1 -262.31359 -2434.8707 A 0.67501851 0.67501851 0 0 1 -262.98901 -2435.5461 L -262.98901 -2436.2206 L -262.98901 -2436.896 A 0.67501851 0.67501851 0 0 1 -262.31359 -2437.5706 z M -279.86363 -2437.5687 A 0.67501851 0.67501851 0 0 0 -280.53905 -2436.896 A 0.67501851 0.67501851 0 0 1 -281.21447 -2436.2206 A 0.67501851 0.67501851 0 0 0 -281.88898 -2435.5461 L -281.88898 -2434.8707 L -281.88898 -2434.1962 A 0.67501851 0.67501851 0 0 1 -282.5644 -2433.5208 L -283.23892 -2433.5208 L -283.91434 -2433.5208 A 0.67501851 0.67501851 0 0 1 -284.58885 -2434.1962 L -284.58885 -2434.8707 L -284.58885 -2435.5461 A 0.67502 0.67502 0 0 0 -285.93878 -2435.5461 L -285.93878 -2434.8707 L -285.93878 -2433.5208 L -285.93878 -2432.1708 L -285.93878 -2431.4954 A 0.67501851 0.67501851 0 0 0 -285.26427 -2430.8209 L -284.58885 -2430.8209 L -283.91434 -2430.8209 A 0.67501851 0.67501851 0 0 0 -283.23892 -2431.4954 A 0.67501851 0.67501851 0 0 1 -282.5644 -2432.1708 L -281.88898 -2432.1708 L -281.21447 -2432.1708 A 0.67501851 0.67501851 0 0 0 -280.53905 -2432.8462 L -280.53905 -2433.5208 L -280.53905 -2434.1962 A 0.67501851 0.67501851 0 0 1 -279.86363 -2434.8707 A 0.67501851 0.67501851 0 0 0 -279.18912 -2435.5461 L -279.18912 -2436.2206 L -279.18912 -2436.896 A 0.67501851 0.67501851 0 0 0 -279.86363 -2437.5687 z M -270.4141 -2436.2206 A 0.67501851 0.67501851 0 0 0 -271.08861 -2435.5461 A 0.67501851 0.67501851 0 0 0 -270.4141 -2434.8707 A 0.67501947 0.67501947 0 0 0 -270.4141 -2436.2206 z M -278.5137 -2434.8707 A 0.67501851 0.67501851 0 0 0 -279.18912 -2434.1962 A 0.67501851 0.67501851 0 0 0 -278.5137 -2433.5208 A 0.67502677 0.67502677 0 0 0 -278.5137 -2434.8707 z M -258.26379 -2434.8707 A 0.675025 0.675025 0 0 0 -258.9383 -2434.1962 L -258.9383 -2433.5208 L -258.9383 -2432.8462 A 0.675025 0.675025 0 0 0 -257.58837 -2432.8462 L -257.58837 -2433.5208 L -257.58837 -2434.1962 A 0.675025 0.675025 0 0 0 -258.26379 -2434.8707 z M -277.16376 -2433.5208 A 0.67502 0.67502 0 0 0 -277.83918 -2432.8462 L -277.83918 -2432.1708 L -277.83918 -2431.4954 A 0.67502 0.67502 0 0 0 -276.48925 -2431.4954 L -276.48925 -2432.1708 L -276.48925 -2432.8462 A 0.67502 0.67502 0 0 0 -277.16376 -2433.5208 z M -279.86363 -2432.1708 A 0.67501851 0.67501851 0 0 0 -280.53905 -2431.4954 A 0.67501851 0.67501851 0 0 0 -279.86363 -2430.8209 A 0.67501851 0.67501851 0 0 0 -279.86363 -2432.1708 z M -274.4639 -2432.1708 A 0.67501851 0.67501851 0 0 0 -275.13932 -2431.4954 A 0.67501851 0.67501851 0 0 0 -274.4639 -2430.8209 A 0.67501851 0.67501851 0 0 0 -274.4639 -2432.1708 z M -259.61372 -2432.1708 A 0.67501851 0.67501851 0 0 0 -260.28824 -2431.4954 A 0.67501851 0.67501851 0 0 0 -259.61372 -2430.8209 A 0.67501851 0.67501851 0 0 0 -259.61372 -2432.1708 z "
       transform="matrix(0.57,0,0,0.57,173,1427)" /></g><style
     type="text/css"
     id="style1">
	.background-color{fill:#ffffff;}
	.frame-color{fill:url(#FrameBody);}
	.text-color{fill:#FFFFFF;}
	.icon-color{fill:url(#InstagramIcon);}
	.circle-color{fill:#FFFFFF;}
</style><style
     type="text/css"
     id="style1-3">
	.background-color{fill:#ffffff;}
	.frame-color{fill:url(#FrameBody);}
	.text-color{fill:#FFFFFF;}
	.icon-color{fill:url(#InstagramIcon);}
	.circle-color{fill:#FFFFFF;}
</style><style
     type="text/css"
     id="style1-1">
	.frame-color{fill:#000000;}
	.background-color{fill:#ffffff;}
	.text-color{fill:#FFFFFF;}
	.outline{fill:#E6E6E6;}
</style></svg>
