<?xml version="1.0" encoding="UTF-8" standalone="no"?>
<!-- Created with Inkscape (http://www.inkscape.org/) -->

<svg
   sodipodi:docname="telegram_qr.svg"
   inkscape:version="1.3.2 (091e20e, 2023-11-25, custom)"
   id="svg5"
   version="1.1"
   viewBox="0 0 30 50"
   height="50mm"
   width="30mm"
   xml:space="preserve"
   xmlns:inkscape="http://www.inkscape.org/namespaces/inkscape"
   xmlns:sodipodi="http://sodipodi.sourceforge.net/DTD/sodipodi-0.dtd"
   xmlns="http://www.w3.org/2000/svg"
   xmlns:svg="http://www.w3.org/2000/svg"><sodipodi:namedview
     id="namedview7"
     pagecolor="#6d6d6d"
     bordercolor="#666666"
     borderopacity="1.0"
     inkscape:pageshadow="2"
     inkscape:pageopacity="0.0"
     inkscape:pagecheckerboard="0"
     inkscape:document-units="mm"
     showgrid="false"
     inkscape:snap-bbox="true"
     inkscape:bbox-paths="true"
     inkscape:bbox-nodes="true"
     inkscape:snap-bbox-edge-midpoints="true"
     inkscape:snap-bbox-midpoints="true"
     inkscape:object-paths="true"
     inkscape:snap-intersection-paths="true"
     inkscape:snap-smooth-nodes="true"
     inkscape:snap-midpoints="true"
     inkscape:snap-object-midpoints="true"
     inkscape:snap-page="true"
     inkscape:snap-center="true"
     inkscape:snap-text-baseline="true"
     inkscape:snap-global="false"
     showguides="true"
     inkscape:guide-bbox="true"
     inkscape:zoom="5.1241862"
     inkscape:cx="35.810564"
     inkscape:cy="85.96487"
     inkscape:window-width="1920"
     inkscape:window-height="1137"
     inkscape:window-x="-8"
     inkscape:window-y="-8"
     inkscape:window-maximized="1"
     inkscape:current-layer="layer1"
     inkscape:showpageshadow="2"
     inkscape:deskcolor="#d1d1d1" /><defs
     id="defs2" /><g
     inkscape:label="Layer 1"
     inkscape:groupmode="layer"
     id="layer1"><rect
       x="2.6041784"
       y="17.731577"
       width="24.777033"
       height="24.777033"
       fill="#ffffff"
       id="rect1"
       style="stroke-width:0.0123885;shape-rendering:crispEdges"
       ry="0.95893741" /><path
       style="fill:#ffffff;fill-opacity:1;stroke-width:0.00500955"
       d="m 14.922592,14.119809 c -1.23365,-0.05736 -2.38289,-0.531007 -3.29879,-1.359553 -0.94537,-0.855172 -1.54307,-2.001649 -1.70041,-3.2614048 -0.0289,-0.23096 -0.0374,-0.385007 -0.0374,-0.661255 0,-0.284075 0.008,-0.4336 0.0402,-0.68131 0.16012,-1.262225 0.77023,-2.414677 1.73355,-3.274211 0.28135,-0.251055 0.61025,-0.484982 0.94119,-0.66946 0.58073,-0.323727 1.22659,-0.535608 1.88847,-0.619532 0.2495,-0.03167 0.39552,-0.04043 0.68131,-0.04043 0.28576,0 0.4318,0.008 0.68129,0.04043 1.05173,0.133434 2.03445,0.581195 2.83041,1.289829 0.65092,0.579541 1.14896,1.305402 1.44674,2.108655 0.13981,0.37708 0.23572,0.767564 0.28607,1.164719 0.0317,0.249482 0.0402,0.395523 0.0402,0.68131 0,0.285768 -0.008,0.431809 -0.0402,0.68129 -0.13762,1.0850378 -0.61224,2.1005698 -1.35798,2.9055548 -1.01846,1.099357 -2.41585,1.707437 -3.90657,1.699949 -0.0799,-4.38e-4 -0.18243,-0.002 -0.22793,-0.004 z m 0.50848,-0.515672 c 1.17504,-0.06851 2.25484,-0.547816 3.08999,-1.3721 0.76759,-0.757606 1.25255,-1.737808 1.38571,-2.8008188 0.0285,-0.22638 0.0329,-0.308232 0.0329,-0.593622 0,-0.285389 -0.004,-0.367262 -0.0329,-0.593642 -0.16152,-1.28935 -0.84436,-2.456798 -1.89351,-3.237207 -0.66504,-0.494702 -1.43043,-0.802815 -2.24906,-0.90536 -0.22638,-0.02848 -0.30825,-0.03286 -0.59364,-0.03286 -0.28539,0 -0.36725,0.004 -0.59363,0.03286 -1.28598,0.161117 -2.45168,0.841351 -3.23185,1.886059 -0.4765,0.638074 -0.78704,1.385902 -0.89841,2.163563 -0.0376,0.263044 -0.0448,0.372818 -0.0448,0.686587 0,0.276726 0.002,0.337807 0.0249,0.533517 0.17067,1.5099548 1.05251,2.8485168 2.37925,3.6110418 0.63383,0.364295 1.3532,0.578088 2.09148,0.621583 0.0996,0.006 0.43526,0.006 0.53352,4.39e-4 z m 0.91355,-1.973748 c -0.0468,-0.008 -0.10834,-0.0245 -0.15435,-0.04302 -0.041,-0.01593 -0.0775,-0.04342 -0.62431,-0.462936 -0.31945,-0.245021 -0.58213,-0.44561 -0.58375,-0.44569 -0.002,-1.59e-4 -0.62831,0.568409 -0.68931,0.626682 -0.0524,0.05019 -0.12029,0.07429 -0.20945,0.07429 -0.0564,1.19e-4 -0.13842,-0.01593 -0.17546,-0.03286 -0.058,-0.02748 -0.1173,-0.09699 -0.15813,-0.185413 -0.0357,-0.07727 -0.055,-0.138015 -0.35495,-1.118894 -0.0745,-0.2435668 -0.13602,-0.4434988 -0.13702,-0.4442948 -8.6e-4,-8.57e-4 -0.26854,-0.09141 -0.59496,-0.201326 -0.32643,-0.109934 -0.60477,-0.204851 -0.61855,-0.210946 -0.0958,-0.04262 -0.1882,-0.1177 -0.24251,-0.197562 -0.0669,-0.09838 -0.0838,-0.233469 -0.042,-0.337587 0.039,-0.09759 0.13423,-0.190393 0.25245,-0.246594 0.0484,-0.0229 5.1161,-2.011627 5.19198,-2.037438 0.0832,-0.02828 0.14897,-0.03923 0.23546,-0.03864 0.0603,2.79e-4 0.0831,0.002 0.11531,0.01 0.10456,0.02788 0.17785,0.08663 0.22311,0.178642 0.0265,0.05357 0.0352,0.08962 0.038,0.155341 l 0.002,0.05517 -0.45323,2.283056 c -0.35717,1.7991478 -0.45601,2.2891688 -0.46638,2.3118128 -0.0362,0.07946 -0.12328,0.181629 -0.19458,0.22859 -0.0432,0.02848 -0.10675,0.05676 -0.15434,0.06851 -0.0478,0.01195 -0.15893,0.01792 -0.20557,0.01 z m 0.13741,-0.414541 c 0.0119,-0.008 0.0263,-0.0235 0.0339,-0.03426 0.0139,-0.01792 0.0486,-0.196168 0.45039,-2.2238068 0.24018,-1.212317 0.43798,-2.209587 0.43957,-2.216179 0.002,-0.01195 10e-4,-0.01195 -0.0159,-0.008 -0.01,0.0015 -0.0444,0.01195 -0.0747,0.0225 -0.0585,0.02011 -5.07388,1.986832 -5.11228,2.004636 -0.0119,0.006 -0.0277,0.01394 -0.034,0.01792 l -0.0119,0.008 0.0119,0.008 c 0.006,0.004 0.0205,0.01394 0.0317,0.01992 0.0221,0.01195 1.18127,0.402074 1.19221,0.402074 0.002,0 0.6747,-0.424101 1.49089,-0.942462 0.81624,-0.518361 1.50002,-0.951065 1.51952,-0.961541 0.19895,-0.107145 0.38624,-0.04939 0.43097,0.133036 0.0179,0.07508 0.008,0.145184 -0.0313,0.210387 -0.0349,0.05815 4e-5,0.02609 -1.78102,1.627516 -0.29977,0.269557 -0.54439,0.490679 -0.54354,0.491356 0.13722,0.111925 1.85027,1.4307708 1.87648,1.4448108 0.0374,0.02011 0.0978,0.01792 0.12786,-0.002 z m -2.01865,-0.611885 c 0.10376,-0.0948 0.1886,-0.174061 0.1886,-0.176053 0,-0.006 -0.31598,-0.246554 -0.31951,-0.243029 -10e-4,0.0015 -0.0179,0.125468 -0.0344,0.274794 -0.0179,0.149367 -0.0325,0.283578 -0.0345,0.298315 -0.002,0.02231 -10e-4,0.02609 0.002,0.02251 0.002,-0.002 0.092,-0.08185 0.19577,-0.176651 z"
       id="path33545-0-5-9-5" /><path
       style="font-size:3.98649px;line-height:1.25;font-family:'Century Gothic';-inkscape-font-specification:'Century Gothic, Normal';fill:#ffffff;stroke-width:0.373734"
       d="m 4.6152602,44.07811 h 0.2744605 v 0.786398 h 0.4321292 v 0.233583 H 4.8897207 V 46.98233 H 4.6152602 V 45.098091 H 4.2434733 v -0.233583 h 0.3717869 z m 1.1114676,-0.03114 h 0.2744605 v 1.670121 L 6.9802921,44.864508 H 7.3812769 L 6.2191995,45.874756 7.4494054,46.98233 H 7.0639928 L 6.0011883,46.030478 V 46.98233 H 5.7267278 Z m 1.6759609,3.23513 h 2.0399617 v 0.198546 H 7.4026887 Z m 2.2170957,-2.417588 h 0.2783535 v 0.309498 q 0.1245781,-0.182974 0.2627811,-0.272514 0.138204,-0.09149 0.288086,-0.09149 0.112899,0 0.24137,0.07202 l -0.142097,0.229691 q -0.08565,-0.03698 -0.144043,-0.03698 -0.136257,0 -0.262781,0.112898 -0.126524,0.110952 -0.1927063,0.346482 -0.05061,0.181027 -0.05061,0.731895 V 46.98233 H 9.6197844 Z m 2.3046896,-0.0545 q 0.488578,0 0.809756,0.354268 0.291979,0.323124 0.291979,0.764985 0,0.443809 -0.309498,0.776665 -0.307552,0.33091 -0.792237,0.33091 -0.486632,0 -0.79613,-0.33091 -0.307552,-0.332856 -0.307552,-0.776665 0,-0.439915 0.29198,-0.763039 0.321177,-0.356214 0.811702,-0.356214 z m 0,0.266674 q -0.338696,0 -0.582012,0.251102 -0.243316,0.251102 -0.243316,0.607317 0,0.22969 0.110952,0.428236 0.110952,0.198546 0.299765,0.307552 0.188814,0.107059 0.414611,0.107059 0.225797,0 0.41461,-0.107059 0.188814,-0.109006 0.299766,-0.307552 0.110952,-0.198546 0.110952,-0.428236 0,-0.356215 -0.245263,-0.607317 -0.243316,-0.251102 -0.580065,-0.251102 z m 1.605886,-0.212171 h 0.270568 v 0.365947 q 0.142096,-0.202439 0.291979,-0.295872 0.206332,-0.124578 0.434076,-0.124578 0.153775,0 0.291979,0.06034 0.138203,0.06034 0.225797,0.161562 0.08759,0.09927 0.151829,0.28614 0.136257,-0.249156 0.340643,-0.377627 0.204385,-0.130417 0.439915,-0.130417 0.219958,0 0.387359,0.110952 0.169348,0.110952 0.251102,0.309498 0.08175,0.198546 0.08175,0.595637 v 1.156238 h -0.278354 v -1.156238 q 0,-0.340642 -0.04866,-0.467166 -0.04866,-0.128471 -0.167402,-0.206332 -0.116791,-0.07786 -0.2803,-0.07786 -0.198546,0 -0.364,0.116791 -0.163509,0.116792 -0.239423,0.311445 -0.07592,0.194653 -0.07592,0.65014 v 0.829221 h -0.270567 v -1.084216 q 0,-0.383466 -0.04866,-0.519723 -0.04672,-0.138204 -0.165455,-0.219958 -0.118738,-0.0837 -0.282246,-0.0837 -0.188813,0 -0.354268,0.114845 -0.163509,0.112898 -0.243316,0.305605 -0.07786,0.192706 -0.07786,0.589798 V 46.98233 H 13.53036 Z m 5.851264,0 v 2.117822 h -0.268621 v -0.364 q -0.171294,0.208278 -0.385413,0.313391 -0.212171,0.105112 -0.46522,0.105112 -0.449648,0 -0.768878,-0.32507 -0.317285,-0.327017 -0.317285,-0.794184 0,-0.457434 0.321178,-0.782504 0.321177,-0.32507 0.772771,-0.32507 0.260835,0 0.47106,0.110952 0.212172,0.110952 0.371787,0.332856 v -0.389305 z m -1.090056,0.208278 q -0.227744,0 -0.42045,0.112899 -0.192706,0.110952 -0.307551,0.313391 -0.112899,0.202439 -0.112899,0.428236 0,0.223851 0.114845,0.428236 0.114845,0.204386 0.307552,0.319231 0.194652,0.112898 0.416557,0.112898 0.22385,0 0.424343,-0.112898 0.200492,-0.112899 0.307551,-0.305605 0.109006,-0.192706 0.109006,-0.434076 0,-0.367894 -0.243316,-0.615103 -0.24137,-0.247209 -0.595638,-0.247209 z m 1.703212,-0.208278 h 0.272514 v 0.379573 q 0.163509,-0.218012 0.362055,-0.325071 0.198546,-0.109005 0.432129,-0.109005 0.237476,0 0.42045,0.120684 0.18492,0.120685 0.272514,0.325071 0.08759,0.204385 0.08759,0.636514 v 1.090056 h -0.270568 v -1.010248 q 0,-0.365947 -0.03114,-0.488578 -0.04866,-0.210226 -0.182974,-0.315338 -0.13431,-0.107059 -0.350375,-0.107059 -0.247209,0 -0.443808,0.163508 -0.194653,0.163509 -0.256942,0.404878 -0.03893,0.157669 -0.03893,0.576173 V 46.98233 H 19.99478 Z m 2.66869,-0.786398 h 0.274461 v 0.786398 h 0.432129 v 0.233583 H 22.937931 V 46.98233 H 22.66347 v -1.884239 h -0.371787 v -0.233583 h 0.371787 z m 1.208795,-0.08565 q 0.09343,0 0.159615,0.06618 0.06618,0.06618 0.06618,0.159615 0,0.09149 -0.06618,0.157669 -0.06618,0.06618 -0.159615,0.06618 -0.09149,0 -0.157669,-0.06618 -0.06618,-0.06618 -0.06618,-0.157669 0,-0.09343 0.06618,-0.159615 0.06618,-0.06618 0.157669,-0.06618 z m -0.136257,0.872045 h 0.27446 v 2.117822 h -0.27446 z m 0.837007,-0.817542 h 0.274461 v 1.670121 l 0.979103,-0.852579 h 0.400985 l -1.162077,1.010248 1.230206,1.107574 H 25.91028 l -1.062804,-0.951852 v 0.951852 h -0.274461 z"
       id="text41604-1-2-9-7-9"
       aria-label="tk_romantik" /><path
       id="path356"
       d="m 8.2130786,38.682697 v -0.889326 -0.700837 c 0,-0.104142 -0.084482,-0.189384 -0.1894225,-0.189384 h -2.290042 c -0.1040592,0 -0.1894226,0.08442 -0.1894226,0.189384 v 0.700837 0.889326 0.700709 c 0,0.104078 0.084482,0.189513 0.1894226,0.189513 h 2.290042 c 0.1040464,0 0.1894225,-0.08454 0.1894225,-0.189513 z M 3.9549413,35.124432 c -0.1040464,0 -0.1894288,0.08537 -0.1894288,0.189385 v 0.700836 0.889327 0.889391 0.889326 0.889199 0.889391 0.700773 c 0,0.104142 0.084488,0.189448 0.1894288,0.189448 h 5.8482751 c 0.1040527,0 0.1894225,-0.08448 0.1894225,-0.189448 V 40.461287 39.571896 38.682697 37.793371 36.90398 36.014653 35.313817 c 0,-0.104015 -0.084482,-0.189385 -0.1894225,-0.189385 z m 5.1474769,1.779548 v 0.889391 0.889326 0.889199 0.780907 c 0,0.06065 -0.04891,0.108484 -0.1084969,0.108484 H 4.7642428 c -0.060467,0 -0.1085033,-0.04917 -0.1085033,-0.108484 V 39.571896 38.682697 37.793371 36.90398 36.123201 c 0,-0.06066 0.04891,-0.108548 0.1085033,-0.108548 h 4.2296785 c 0.060467,0 0.1084969,0.04853 0.1084969,0.108548 z M 24.221132,22.674624 v -0.889327 -0.700836 c 0,-0.104079 -0.08449,-0.189385 -0.189428,-0.189385 h -2.290042 c -0.104053,0 -0.189429,0.08442 -0.189429,0.189385 v 0.700836 0.889327 0.700773 c 0,0.104014 0.08449,0.189447 0.189429,0.189447 h 2.290042 c 0.104053,0 0.189428,-0.08454 0.189428,-0.189447 z m -4.258143,-3.558265 c -0.104053,0 -0.189422,0.08543 -0.189422,0.189384 v 0.700837 0.889327 0.88939 0.889327 0.889327 0.889326 0.700709 c 0,0.104142 0.08448,0.189512 0.189422,0.189512 h 5.848275 c 0.10406,0 0.189429,-0.08448 0.189429,-0.189512 v -0.700709 -0.889326 -0.889327 -0.889327 -0.88939 -0.889327 -0.700837 c 0,-0.103951 -0.08449,-0.189384 -0.189429,-0.189384 z m 5.147484,1.779548 v 0.88939 0.889327 0.889327 0.780778 c 0,0.06002 -0.04891,0.108548 -0.10851,0.108548 h -4.229679 c -0.06047,0 -0.108496,-0.04916 -0.108496,-0.108548 v -0.780778 -0.889327 -0.889327 -0.88939 -0.780779 c 0,-0.06065 0.04891,-0.108548 0.108496,-0.108548 h 4.229679 c 0.06047,0 0.10851,0.04917 0.10851,0.108548 z M 8.2130786,22.674624 v -0.889327 -0.700836 c 0,-0.104079 -0.084482,-0.189385 -0.1894225,-0.189385 h -2.290042 c -0.1040592,0 -0.1894226,0.08442 -0.1894226,0.189385 v 0.700836 0.889327 0.700773 c 0,0.104014 0.084482,0.189447 0.1894226,0.189447 h 2.290042 c 0.1040464,0 0.1894225,-0.08454 0.1894225,-0.189447 z M 3.9549413,19.116359 c -0.1040464,0 -0.1894288,0.08543 -0.1894288,0.189384 v 0.700837 0.889327 0.88939 0.889327 0.889327 0.889326 0.700709 c 0,0.104142 0.084488,0.189512 0.1894288,0.189512 h 5.8482751 c 0.1040527,0 0.1894225,-0.08448 0.1894225,-0.189512 v -0.700709 -0.889326 -0.889327 -0.889327 -0.88939 -0.889327 -0.700837 c 0,-0.103951 -0.084482,-0.189384 -0.1894225,-0.189384 z m 5.1474769,1.779548 v 0.88939 0.889327 0.889327 0.780778 c 0,0.06002 -0.04891,0.108548 -0.1084969,0.108548 H 4.7642428 c -0.060467,0 -0.1085033,-0.04916 -0.1085033,-0.108548 v -0.780778 -0.889327 -0.889327 -0.88939 -0.780779 c 0,-0.06065 0.04891,-0.108548 0.1085033,-0.108548 h 4.2296785 c 0.060467,0 0.1084969,0.04917 0.1084969,0.108548 z M 25.110473,41.350614 h 0.444663 a 0.44467187,0.44467187 0 0 0 0,-0.889327 h -0.444663 z m -0.889341,-0.889327 h 0.889341 v 0.889327 h -0.889341 z m 0,0 h -0.444669 a 0.44467187,0.44467187 0 0 0 0,0.889327 h 0.444669 z m -6.22535,0.444664 a 0.44466806,0.44466806 0 0 0 0.44467,0.444663 v 0 a 0.44467187,0.44467187 0 0 0 0,-0.889327 v 0 a 0.44466806,0.44466806 0 0 0 -0.44467,0.444664 z m -1.778674,-0.444664 v 0.444664 a 0.4446705,0.4446705 0 0 0 0.889341,0 v 0 -0.444664 z m -1.778672,0.444664 a 0.44466806,0.44466806 0 0 0 0.44467,0.444663 v 0 a 0.44467187,0.44467187 0 0 0 0,-0.889327 v 0 a 0.44466806,0.44466806 0 0 0 -0.44467,0.444664 z m -1.778678,0.444663 h 0.444675 a 0.44467187,0.44467187 0 0 0 0,-0.889327 H 12.659758 Z M 11.77043,40.461287 h 0.889328 v 0.889327 H 11.77043 Z m -0.444676,0.889327 h 0.444676 v -0.889327 h -0.889333 v 0.444664 a 0.44466806,0.44466806 0 0 0 0.444657,0.444663 z m 13.784719,-1.33399 v 0.444663 h 0.444663 a 0.44466806,0.44466806 0 0 1 -0.444663,-0.444663 z m 0,0.444663 v -0.444663 a 0.4446705,0.4446705 0 0 0 -0.889341,0 v 0 0.444663 z m -1.33401,0 h 0.444669 v -0.444663 a 0.44466806,0.44466806 0 0 1 -0.444669,0.444663 z m -1.334003,0 h 0.44467 a 0.4446955,0.4446955 0 0 0 0,-0.889391 h -0.44467 z m -0.889333,-0.889391 h 0.889333 v 0.889391 h -0.889333 z m -0.889339,0 h 0.889339 v 0.889391 h -0.889339 z m -0.88934,0 h 0.88934 v 0.889391 h -0.88934 z m 0,0 h -0.444663 a 0.4446955,0.4446955 0 0 0 0,0.889391 h 0.444663 z m -3.55734,0 h 0.889341 v 0.889391 h -0.889341 z m 0,0.444728 v -0.444728 h -0.444675 a 0.44466806,0.44466806 0 0 1 0.444675,0.444728 z m -1.778672,0 v -0.444728 h 0.44467 a 0.44466806,0.44466806 0 0 0 -0.44467,0.444728 z m -0.889339,-0.444728 v 0.444728 a 0.44466977,0.44466977 0 0 0 0.889339,0 v 0 -0.444728 z m -0.889339,0.444728 v 0.444663 h 0.444675 A 0.44466806,0.44466806 0 0 1 12.659758,40.016624 Z M 11.77043,39.571896 h 0.889328 v 0.889391 H 11.77043 Z m -0.889333,0 h 0.889333 v 0.889391 h -0.889333 z m 14.229376,-0.889199 v 0.444664 a 0.44466977,0.44466977 0 0 0 0.889339,0 v 0 -0.444664 z m 0,0.444664 v -0.444664 h -0.444677 a 0.44466806,0.44466806 0 0 1 0.444677,0.444664 z m -1.77868,0 a 0.44466806,0.44466806 0 0 0 0.44467,0.444535 v 0 a 0.44466806,0.44466806 0 0 0 0,-0.889199 v 0 a 0.44466806,0.44466806 0 0 0 -0.44467,0.444664 z m -0.889333,0 v 0.444535 h 0.44467 a 0.44466806,0.44466806 0 0 1 -0.44467,-0.444535 z m -0.889333,-0.444664 h 0.889333 v 0.889199 h -0.889333 z m -0.44467,0.889199 h 0.44467 v -0.444535 a 0.44466806,0.44466806 0 0 1 -0.44467,0.444535 z m -4.002008,-0.444535 v 0.444535 h -0.889341 v -0.889199 h 0.444664 a 0.44466806,0.44466806 0 0 1 0.444677,0.444664 z m -1.77868,-0.444664 h 0.889339 v 0.889199 h -0.889339 z m -0.889333,0 h 0.889333 v 0.889199 h -0.889333 z m -0.889339,0.444664 v 0.444535 h 0.889339 v -0.889199 h -0.444663 a 0.44466806,0.44466806 0 0 0 -0.444676,0.444664 z m -0.889339,0 v -0.444664 h 0.444675 a 0.44466806,0.44466806 0 0 0 -0.444675,0.444664 z M 11.77043,38.682697 h 0.889328 v 0.889199 H 11.77043 Z m -0.889333,0 h 0.889333 v 0.889199 h -0.889333 z m 15.118715,-0.444726 v 0.444726 h -0.889339 v -0.889326 h 0.444663 a 0.44466806,0.44466806 0 0 1 0.444676,0.4446 z m -0.889339,-0.4446 h -0.444677 a 0.44467187,0.44467187 0 0 0 0,0.889326 h 0.444677 z m -2.668013,0.4446 v -0.4446 h 0.44467 a 0.44466806,0.44466806 0 0 0 -0.44467,0.4446 z m -0.889333,-0.4446 h 0.889333 v 0.889326 h -0.889333 z m 0,0.4446 v -0.4446 h -0.44467 a 0.44466806,0.44466806 0 0 1 0.44467,0.4446 z m -1.778679,0 v -0.4446 h 0.44467 a 0.44466806,0.44466806 0 0 0 -0.44467,0.4446 z m -0.444663,0.444726 h -0.444664 v -0.889326 h 0.889327 v 0.4446 a 0.44466806,0.44466806 0 0 1 -0.444663,0.444726 z m -1.334003,-0.889326 h 0.889339 v 0.889326 h -0.889339 z m -0.444671,0.889326 h 0.444671 v -0.889326 h -0.889333 v 0.4446 a 0.44466806,0.44466806 0 0 0 0.444662,0.444726 z m -0.444662,-0.444726 v -0.4446 h -0.444677 a 0.44466806,0.44466806 0 0 1 0.444677,0.4446 z m -1.77868,0 v 0.444726 h 0.444664 a 0.44466806,0.44466806 0 0 1 -0.444664,-0.444726 z m 0,0.444726 v -0.444726 a 0.44466847,0.44466847 0 0 0 -0.889333,0 v 0 0.444726 z m -1.333996,0 h 0.444663 v -0.444726 a 0.44466806,0.44466806 0 0 1 -0.444663,0.444726 z m -0.88934,0 h -0.444675 v -0.889326 h 0.889339 v 0.4446 a 0.44466806,0.44466806 0 0 1 -0.444664,0.444726 z M 11.77043,37.793371 h 0.889328 v 0.889326 H 11.77043 Z m -0.889333,0 h 0.889333 v 0.889326 h -0.889333 z m 12.006033,0 H 22.44246 V 36.90398 h 0.889333 v 0.444663 A 0.44466806,0.44466806 0 0 1 22.88713,37.793371 Z M 21.553127,36.90398 h 0.889333 v 0.889391 h -0.889333 z m -0.889339,0 h 0.889339 v 0.889391 h -0.889339 z m -0.88934,0 h 0.88934 v 0.889391 h -0.88934 z m -0.889327,0 h 0.889327 v 0.889391 h -0.889327 z m -0.889339,0 h 0.889339 v 0.889391 h -0.889339 z m -0.889333,0 h 0.889333 v 0.889391 h -0.889333 z m -0.889341,0 h 0.889341 v 0.889391 h -0.889341 z m -0.444675,0.889391 h 0.444675 V 36.90398 h -0.889339 v 0.444663 a 0.44466806,0.44466806 0 0 0 0.444664,0.444728 z m -2.223336,0 v -0.444728 a 0.44466977,0.44466977 0 0 0 -0.889339,0 v 0 0.444728 z M 11.77043,37.348643 v 0.444728 h 0.444664 A 0.44466806,0.44466806 0 0 1 11.77043,37.348643 Z m 0.444664,0.444728 h 0.444664 v -0.444728 a 0.44466806,0.44466806 0 0 1 -0.444664,0.444728 z m -0.444664,0 v -0.444728 a 0.44466847,0.44466847 0 0 0 -0.889333,0 v 0 0.444728 z M 23.331793,36.459252 V 36.90398 H 22.44246 v -0.889327 h 0.44467 a 0.44466806,0.44466806 0 0 1 0.444663,0.444599 z m -1.778666,-0.444599 h 0.889333 v 0.889327 h -0.889333 z m -0.44467,0.889327 h 0.44467 v -0.444728 a 0.44466806,0.44466806 0 0 1 -0.44467,0.444728 z m -2.223336,-0.444728 v 0.444728 h 0.444664 a 0.44466806,0.44466806 0 0 1 -0.444664,-0.444728 z m -0.889339,-0.444599 h 0.889339 v 0.889327 h -0.889339 z m -0.444671,0.889327 h 0.444671 v -0.444728 a 0.44466806,0.44466806 0 0 1 -0.444671,0.444728 z m 0.444671,-0.444728 v -0.444599 h -0.444671 a 0.44466806,0.44466806 0 0 1 0.444671,0.444599 z m -1.778674,0 v 0.444728 h 0.444664 a 0.44466806,0.44466806 0 0 1 -0.444664,-0.444728 z m 0,0 v -0.444599 h 0.444664 a 0.44466806,0.44466806 0 0 0 -0.444664,0.444599 z m -0.889339,-0.444599 h 0.889339 v 0.889327 h -0.889339 z m 0,0.444599 v -0.444599 h -0.444663 a 0.44466806,0.44466806 0 0 1 0.444663,0.444599 z m -0.889333,0 v -0.444599 h 0.44467 a 0.44466806,0.44466806 0 0 0 -0.44467,0.444599 z m -0.889339,-0.444599 v 0.444599 a 0.44466977,0.44466977 0 0 0 0.889339,0 v 0 -0.444599 z m 0,0.444599 v -0.444599 h -0.444664 a 0.44466806,0.44466806 0 0 1 0.444664,0.444599 z m -1.778667,0 a 0.44466806,0.44466806 0 0 0 0.444664,0.444728 v 0 a 0.44467187,0.44467187 0 0 0 0,-0.889327 v 0 a 0.44466806,0.44466806 0 0 0 -0.444664,0.444599 z m 13.784706,-0.444599 h -0.444663 v -0.88939 h 0.889339 v 0.444726 a 0.44466806,0.44466806 0 0 1 -0.444676,0.444664 z m -1.334004,-0.88939 h 0.889341 v 0.88939 h -0.889341 z m 0,0 h -0.444669 a 0.44469532,0.44469532 0 0 0 0,0.88939 h 0.444669 z m -1.778672,0.444726 v 0.444664 h 0.44467 a 0.44466806,0.44466806 0 0 1 -0.44467,-0.444664 z m -0.889333,-0.444726 h 0.889333 v 0.88939 h -0.889333 z m -1.778679,0.444726 a 0.44466806,0.44466806 0 0 0 0.44467,0.444664 v 0 a 0.44469532,0.44469532 0 0 0 0,-0.88939 v 0 a 0.44466806,0.44466806 0 0 0 -0.44467,0.444726 z m -1.778666,-0.444726 h 0.889339 v 0.88939 h -0.889339 z m -0.889333,0 h 0.889333 v 0.88939 h -0.889333 z m -0.889341,0 h 0.889341 v 0.88939 h -0.889341 z m -0.889339,0 h 0.889339 v 0.88939 h -0.889339 z m -0.889333,0 h 0.889333 v 0.88939 h -0.889333 z m -0.889339,0 h 0.889339 v 0.88939 h -0.889339 z m -0.444664,0.88939 h 0.444664 v -0.88939 h -0.889339 v 0.444726 a 0.44466806,0.44466806 0 0 0 0.444675,0.444664 z m -0.444675,-0.444664 v -0.444726 h -0.444664 a 0.44466806,0.44466806 0 0 1 0.444664,0.444726 z m -0.889328,0 v -0.444726 h 0.444664 a 0.44466806,0.44466806 0 0 0 -0.444664,0.444726 z m -0.889333,-0.444726 v 0.444726 a 0.44466847,0.44466847 0 0 0 0.889333,0 v 0 -0.444726 z m 14.229376,-0.889327 h 0.889339 v 0.889327 h -0.889339 z m -0.444677,0.889327 h 0.444677 v -0.4446 a 0.44466806,0.44466806 0 0 1 -0.444677,0.4446 z m -2.223336,-0.4446 v -0.444727 h 0.44467 a 0.44466806,0.44466806 0 0 0 -0.44467,0.444727 z m -0.889333,-0.444727 h 0.889333 v 0.889327 h -0.889333 z m 0,0.444727 v -0.444727 h -0.44467 a 0.44466806,0.44466806 0 0 1 0.44467,0.444727 z m -2.668006,0 v -0.444727 h 0.444664 a 0.44466806,0.44466806 0 0 0 -0.444664,0.444727 z m -0.889339,-0.444727 h 0.889339 v 0.889327 h -0.889339 z m -0.889333,0.444727 v 0.4446 h 0.444662 a 0.44466806,0.44466806 0 0 1 -0.444662,-0.4446 z m 0.444662,0.4446 h 0.444671 v -0.4446 a 0.44466806,0.44466806 0 0 1 -0.444671,0.4446 z m 0.444671,-0.4446 v -0.444727 h -0.444671 a 0.44466806,0.44466806 0 0 1 0.444671,0.444727 z m -0.889333,0.4446 v -0.4446 a 0.4446705,0.4446705 0 0 0 -0.889341,0 v 0 0.4446 z m -1.77868,-0.4446 v 0.4446 h 0.444664 a 0.44466806,0.44466806 0 0 1 -0.444664,-0.4446 z m 0.444664,0.4446 h 0.444675 v -0.4446 a 0.44466806,0.44466806 0 0 1 -0.444675,0.4446 z m -0.444664,-0.4446 v 0.4446 h -0.889333 v -0.889327 h 0.44467 a 0.44466806,0.44466806 0 0 1 0.444663,0.444727 z m -1.778672,-0.444727 h 0.889339 v 0.889327 h -0.889339 z m -0.889339,0 h 0.889339 v 0.889327 h -0.889339 z m -0.889328,0 h 0.889328 v 0.889327 H 11.77043 Z m -0.889333,0 h 0.889333 v 0.889327 h -0.889333 z m 0,0.444727 v -0.444727 h -0.444676 a 0.44466806,0.44466806 0 0 1 0.444676,0.444727 z m 14.229376,-1.334054 h 0.889339 v 0.889327 h -0.889339 z m 0,0.444663 v -0.444663 h -0.444677 a 0.44466806,0.44466806 0 0 1 0.444677,0.444663 z m -2.668013,0.444664 h 0.44467 a 0.44467187,0.44467187 0 0 0 0,-0.889327 h -0.44467 z m -0.889333,-0.889327 h 0.889333 v 0.889327 h -0.889333 z m -0.889339,0 h 0.889339 v 0.889327 h -0.889339 z m -0.88934,0 h 0.88934 v 0.889327 h -0.88934 z m -0.889327,0 h 0.889327 v 0.889327 h -0.889327 z m -0.889339,0 h 0.889339 v 0.889327 h -0.889339 z m 0,0 h -0.444671 a 0.44467187,0.44467187 0 0 0 0,0.889327 h 0.444671 z m -6.225352,0.444663 v 0.444664 h 0.444664 A 0.44466806,0.44466806 0 0 1 11.77043,33.791272 Z m 0,0 v -0.444663 h 0.444664 a 0.44466806,0.44466806 0 0 0 -0.444664,0.444663 z m -0.889333,-0.444663 h 0.889333 v 0.889327 h -0.889333 z m -0.8893393,0 h 0.8893393 v 0.889327 H 9.9917577 Z m 0,0 H 9.5470879 a 0.44467187,0.44467187 0 0 0 0,0.889327 H 9.9917577 Z M 8.2130786,33.791272 V 33.346609 H 8.6577484 A 0.44466806,0.44466806 0 0 0 8.2130786,33.791272 Z M 7.3237519,33.346609 v 0.444663 a 0.44466847,0.44466847 0 0 0 0.8893267,0 v 0 -0.444663 z m -1.7786792,0 v 0.444663 a 0.4446698,0.4446698 0 0 0 0.8893396,0 v 0 -0.444663 z m -1.7786727,0 v 0.444663 a 0.44466978,0.44466978 0 0 0 0.8893395,0 v 0 -0.444663 z m 22.233412,-0.444664 v 0.444664 h -0.889339 v -0.88939 h 0.444663 a 0.44466806,0.44466806 0 0 1 0.444676,0.444726 z m -0.889339,-0.444726 h -0.444677 a 0.44469532,0.44469532 0 0 0 0,0.88939 h 0.444677 z m -9.782704,0.444726 v -0.444726 h 0.444664 a 0.44466806,0.44466806 0 0 0 -0.444664,0.444726 z m -0.889333,-0.444726 v 0.444726 a 0.44466847,0.44466847 0 0 0 0.889333,0 v 0 -0.444726 z m -1.334003,0.88939 h -0.444675 v -0.88939 h 0.889339 v 0.444726 a 0.44466806,0.44466806 0 0 1 -0.444664,0.444664 z m -1.334003,-0.88939 h 0.889328 v 0.88939 H 11.77043 Z m -0.889333,0.444726 v 0.444664 h 0.889333 v -0.88939 h -0.444676 a 0.44466806,0.44466806 0 0 0 -0.444657,0.444726 z m -0.444676,0.444664 h 0.444676 v -0.444664 a 0.44466806,0.44466806 0 0 1 -0.444676,0.444664 z m -2.2233424,0 h 0.4446698 a 0.44469532,0.44469532 0 0 0 0,-0.88939 H 8.2130786 Z m -0.8893267,-0.88939 h 0.8893267 v 0.88939 H 7.3237519 Z m 0,0.444726 V 32.457219 H 6.879082 a 0.44466806,0.44466806 0 0 1 0.4446699,0.444726 z m -0.8893396,0 V 32.457219 H 6.879082 A 0.44466806,0.44466806 0 0 0 6.4344123,32.901945 Z M 5.5450727,32.457219 h 0.8893396 v 0.88939 H 5.5450727 Z m -1.7786727,0 h 0.8893395 v 0.88939 H 3.7664 Z m 19.565393,-0.444536 a 0.44466806,0.44466806 0 0 0 0.44467,0.444536 v 0 a 0.44466806,0.44466806 0 0 0 0,-0.8892 v 0 a 0.44466806,0.44466806 0 0 0 -0.44467,0.444664 z m -1.778666,-0.444664 v 0.444664 a 0.44466921,0.44466921 0 0 0 0.889333,0 v 0 -0.444664 z m 0,0.444664 v -0.444664 h -0.44467 a 0.44466806,0.44466806 0 0 1 0.44467,0.444664 z m -0.889339,0 v -0.444664 h 0.444669 a 0.44466806,0.44466806 0 0 0 -0.444669,0.444664 z m -0.88934,-0.444664 v 0.444664 a 0.44467,0.44467 0 0 0 0.88934,0 v 0 -0.444664 z m -3.112676,0.8892 h -0.444664 v -0.8892 h 0.889341 v 0.444664 a 0.44466806,0.44466806 0 0 1 -0.444677,0.444536 z m -1.334003,-0.8892 h 0.889339 v 0.8892 h -0.889339 z m -0.889333,0 h 0.889333 v 0.8892 h -0.889333 z m -1.778678,0 h 0.889339 v 0.8892 h -0.889339 z m -0.889328,0 h 0.889328 v 0.8892 H 11.77043 Z m -0.444676,0.8892 h 0.444676 v -0.444536 a 0.44466806,0.44466806 0 0 1 -0.444676,0.444536 z m 0.444676,-0.444536 v -0.444664 h -0.444676 a 0.44466806,0.44466806 0 0 1 0.444676,0.444664 z m -0.889333,0 v -0.444664 h 0.444657 a 0.44466806,0.44466806 0 0 0 -0.444657,0.444664 z m -0.444676,0.444536 H 9.9917577 v -0.8892 h 0.8893393 v 0.444664 a 0.44466806,0.44466806 0 0 1 -0.444676,0.444536 z m -0.4446633,-0.8892 H 9.5470879 a 0.44466806,0.44466806 0 0 0 0,0.8892 h 0.4446698 z m -1.7786791,0.444664 v 0.444536 H 8.6577484 A 0.44466806,0.44466806 0 0 1 8.2130786,32.012683 Z m 0,0 V 31.568019 H 8.6577484 A 0.44466806,0.44466806 0 0 0 8.2130786,32.012683 Z M 7.3237519,31.568019 h 0.8893267 v 0.8892 H 7.3237519 Z m -0.8893396,0 h 0.8893396 v 0.8892 H 6.4344123 Z m -0.8893396,0 h 0.8893396 v 0.8892 H 5.5450727 Z m -1.7786727,0 h 0.8893395 v 0.8892 H 3.7664 Z m 21.344073,-0.889327 v 0.4446 a 0.44466977,0.44466977 0 0 0 0.889339,0 v 0 -0.4446 z m 0,0.4446 v -0.4446 h -0.444677 a 0.44466806,0.44466806 0 0 1 0.444677,0.4446 z m -2.668013,0 v -0.4446 h 0.44467 a 0.44466806,0.44466806 0 0 0 -0.44467,0.4446 z m -0.889333,-0.4446 h 0.889333 v 0.889327 h -0.889333 z m -0.889339,0 h 0.889339 v 0.889327 h -0.889339 z m -0.88934,0 h 0.88934 v 0.889327 h -0.88934 z m 0,0.4446 v -0.4446 h -0.444663 a 0.44466806,0.44466806 0 0 1 0.444663,0.4446 z m -0.889327,0 v -0.4446 h 0.444664 a 0.44466806,0.44466806 0 0 0 -0.444664,0.4446 z m -0.889339,-0.4446 v 0.4446 a 0.44466977,0.44466977 0 0 0 0.889339,0 v 0 -0.4446 z m 0,0.4446 v -0.4446 h -0.444671 a 0.44466806,0.44466806 0 0 1 0.444671,0.4446 z m -0.889333,0 v -0.4446 h 0.444662 a 0.44466806,0.44466806 0 0 0 -0.444662,0.4446 z m -0.889341,-0.4446 h 0.889341 v 0.889327 h -0.889341 z m -0.889339,0.4446 v 0.444727 h 0.444664 a 0.44466806,0.44466806 0 0 1 -0.444664,-0.444727 z m 0.444664,0.444727 h 0.444675 v -0.444727 a 0.44466806,0.44466806 0 0 1 -0.444675,0.444727 z m -1.333997,-0.889327 h 0.889333 v 0.889327 h -0.889333 z m 0,0.4446 v -0.4446 h -0.444663 a 0.44466806,0.44466806 0 0 1 0.444663,0.4446 z m -0.889339,0 v 0.444727 h -0.889339 v -0.889327 h 0.444675 a 0.44466806,0.44466806 0 0 1 0.444664,0.4446 z m -1.778667,-0.4446 h 0.889328 v 0.889327 H 11.77043 Z m -0.889333,0 h 0.889333 v 0.889327 h -0.889333 z m -0.8893393,0.4446 v 0.444727 h 0.8893393 v -0.889327 h -0.444676 a 0.44466806,0.44466806 0 0 0 -0.4446633,0.4446 z m -0.4446698,0.444727 h 0.4446698 v -0.444727 a 0.44466806,0.44466806 0 0 1 -0.4446698,0.444727 z m -1.3340093,0 h 0.4446698 a 0.44467187,0.44467187 0 0 0 0,-0.889327 H 8.2130786 Z M 7.3237519,30.678692 h 0.8893267 v 0.889327 H 7.3237519 Z m -0.8893396,0 h 0.8893396 v 0.889327 H 6.4344123 Z m -0.8893396,0.4446 v 0.444727 H 6.4344123 V 30.678692 H 5.9897425 a 0.44466806,0.44466806 0 0 0 -0.4446698,0.4446 z m -0.8893332,0 v -0.4446 H 5.100403 a 0.44466806,0.44466806 0 0 0 -0.4446635,0.4446 z M 3.7664,30.678692 h 0.8893395 v 0.889327 H 3.7664 Z m 22.233412,-0.444727 v 0.444727 h -0.889339 v -0.88939 h 0.444663 a 0.44466806,0.44466806 0 0 1 0.444676,0.444663 z m -0.889339,-0.444663 h -0.444677 a 0.44469532,0.44469532 0 0 0 0,0.88939 h 0.444677 z m -2.668013,0.88939 h 0.44467 a 0.44469532,0.44469532 0 0 0 0,-0.88939 h -0.44467 z m -0.889333,-0.88939 h 0.889333 v 0.88939 h -0.889333 z m -0.889339,0 h 0.889339 v 0.88939 h -0.889339 z m -0.88934,0 h 0.88934 v 0.88939 h -0.88934 z m -0.889327,0 h 0.889327 v 0.88939 h -0.889327 z m -0.889339,0 h 0.889339 v 0.88939 h -0.889339 z m -0.889333,0 h 0.889333 v 0.88939 h -0.889333 z m -0.889341,0.444663 v 0.444727 h 0.889341 v -0.88939 h -0.444677 a 0.44466806,0.44466806 0 0 0 -0.444664,0.444663 z m -0.889339,0 v 0.444727 h -0.889333 v -0.88939 h 0.44467 a 0.44466806,0.44466806 0 0 1 0.444663,0.444663 z m -1.333996,0.444727 h 0.444663 v -0.88939 h -0.889339 v 0.444663 a 0.44466806,0.44466806 0 0 0 0.444676,0.444727 z m -1.334015,-0.444727 v 0.444727 h 0.444675 a 0.44466806,0.44466806 0 0 1 -0.444675,-0.444727 z m 0.889339,0 v -0.444663 h -0.444664 a 0.44466806,0.44466806 0 0 1 0.444664,0.444663 z m -0.889339,0 v -0.444663 h 0.444675 a 0.44466806,0.44466806 0 0 0 -0.444675,0.444663 z M 11.77043,29.789302 h 0.889328 v 0.88939 H 11.77043 Z m -0.444676,0.88939 h 0.444676 v -0.444727 a 0.44466806,0.44466806 0 0 1 -0.444676,0.444727 z m 0.444676,-0.444727 v -0.444663 h -0.444676 a 0.44466806,0.44466806 0 0 1 0.444676,0.444663 z m -2.6680118,0 a 0.44466806,0.44466806 0 0 0 0.4446697,0.444727 v 0 a 0.44469532,0.44469532 0 0 0 0,-0.88939 v 0 a 0.44466806,0.44466806 0 0 0 -0.4446697,0.444663 z m -0.8893396,0 v 0.444727 H 8.6577484 A 0.44466806,0.44466806 0 0 1 8.2130786,30.233965 Z m 0,0.444727 v -0.444727 a 0.44466847,0.44466847 0 0 0 -0.8893267,0 v 0 0.444727 z m -1.3339966,0 H 7.3237519 V 30.233965 A 0.44466806,0.44466806 0 0 1 6.879082,30.678692 Z M 5.5450727,30.233965 V 29.789302 H 5.9897425 A 0.44466806,0.44466806 0 0 0 5.5450727,30.233965 Z M 5.100403,30.678692 H 4.6557395 v -0.88939 h 0.8893332 v 0.444663 A 0.44466806,0.44466806 0 0 1 5.100403,30.678692 Z M 3.7664,30.233965 v 0.444727 h 0.8893395 v -0.88939 H 4.2110698 A 0.44466806,0.44466806 0 0 0 3.7664,30.233965 Z m 16.008048,-0.88939 v 0.444727 h 0.44467 a 0.44466806,0.44466806 0 0 1 -0.44467,-0.444727 z m 0,0 v -0.4446 h 0.44467 a 0.44466806,0.44466806 0 0 0 -0.44467,0.4446 z m -0.889327,-0.4446 h 0.889327 v 0.889327 h -0.889327 z m -0.889339,0 h 0.889339 v 0.889327 h -0.889339 z m -0.444671,0.889327 h 0.444671 v -0.444727 a 0.44466806,0.44466806 0 0 1 -0.444671,0.444727 z m 0.444671,-0.444727 v -0.4446 h -0.444671 a 0.44466806,0.44466806 0 0 1 0.444671,0.4446 z m -1.778674,0 v -0.4446 h 0.444664 a 0.44466806,0.44466806 0 0 0 -0.444664,0.4446 z m -0.889339,-0.4446 v 0.4446 a 0.44466977,0.44466977 0 0 0 0.889339,0 v 0 -0.4446 z m -0.889333,0.4446 v 0.444727 h 0.44467 a 0.44466806,0.44466806 0 0 1 -0.44467,-0.444727 z m 0.889333,0 v -0.4446 h -0.444663 a 0.44466806,0.44466806 0 0 1 0.444663,0.4446 z m -0.889333,0 v -0.4446 h 0.44467 a 0.44466806,0.44466806 0 0 0 -0.44467,0.4446 z m -0.889339,-0.4446 h 0.889339 v 0.889327 h -0.889339 z m -0.889339,0 h 0.889339 v 0.889327 h -0.889339 z m -0.889328,0 h 0.889328 v 0.889327 H 11.77043 Z m -0.444676,0.889327 h 0.444676 v -0.889327 h -0.889333 v 0.4446 a 0.44466806,0.44466806 0 0 0 0.444657,0.444727 z m -5.7806813,0 h 0.4446698 a 0.44467187,0.44467187 0 0 0 0,-0.889327 H 5.5450727 Z M 4.6557395,29.344575 v 0.444727 H 5.5450727 V 28.899975 H 5.100403 a 0.44466806,0.44466806 0 0 0 -0.4446635,0.4446 z M 4.2110698,29.789302 H 4.6557395 V 29.344575 A 0.44466806,0.44466806 0 0 1 4.2110698,29.789302 Z M 23.331793,28.455248 a 0.44466806,0.44466806 0 0 0 0.44467,0.444727 v 0 a 0.4446955,0.4446955 0 0 0 0,-0.889391 v 0 a 0.44466806,0.44466806 0 0 0 -0.44467,0.444664 z m -1.778666,-0.444664 v 0.444664 a 0.44466921,0.44466921 0 0 0 0.889333,0 v 0 -0.444664 z m 0,0.444664 v -0.444664 h -0.44467 a 0.44466806,0.44466806 0 0 1 0.44467,0.444664 z m -1.778679,0.444727 h 0.44467 a 0.4446955,0.4446955 0 0 0 0,-0.889391 h -0.44467 z m -0.889327,-0.889391 h 0.889327 v 0.889391 h -0.889327 z m -0.889339,0 h 0.889339 v 0.889391 h -0.889339 z m -0.889333,0 h 0.889333 v 0.889391 h -0.889333 z m -0.889341,0 h 0.889341 v 0.889391 h -0.889341 z m -0.889339,0 h 0.889339 v 0.889391 h -0.889339 z m -0.889333,0 h 0.889333 v 0.889391 h -0.889333 z m -0.889339,0.444664 v 0.444727 h 0.889339 v -0.889391 h -0.444663 a 0.44466806,0.44466806 0 0 0 -0.444676,0.444664 z m -0.889339,0 v 0.444727 h 0.444675 a 0.44466806,0.44466806 0 0 1 -0.444675,-0.444727 z m 0.444675,0.444727 h 0.444664 v -0.444727 a 0.44466806,0.44466806 0 0 1 -0.444664,0.444727 z M 11.77043,28.010584 h 0.889328 v 0.889391 H 11.77043 Z m -0.889333,0.444664 v 0.444727 h 0.889333 v -0.889391 h -0.444676 a 0.44466806,0.44466806 0 0 0 -0.444657,0.444664 z m -1.7786788,0.444727 h 0.4446697 a 0.4446955,0.4446955 0 0 0 0,-0.889391 H 9.1024182 Z M 8.2130786,28.010584 h 0.8893396 v 0.889391 H 8.2130786 Z M 7.7684088,28.899975 H 8.2130786 V 28.010584 H 7.3237519 v 0.444664 a 0.44466806,0.44466806 0 0 0 0.4446569,0.444727 z m 17.3420642,-1.33399 a 0.44466806,0.44466806 0 0 0 0.444663,0.444599 v 0 a 0.44467187,0.44467187 0 0 0 0,-0.889327 v 0 a 0.44466806,0.44466806 0 0 0 -0.444663,0.444728 z m -2.668013,0 v 0.444599 h -0.889333 v -0.889327 h 0.444669 a 0.44466806,0.44466806 0 0 1 0.444664,0.444728 z m -1.334003,0.444599 h 0.44467 v -0.889327 h -0.889339 v 0.444728 a 0.44466806,0.44466806 0 0 0 0.444669,0.444599 z m -1.334009,-0.444599 v 0.444599 h 0.44467 a 0.44466806,0.44466806 0 0 1 -0.44467,-0.444599 z m -0.889327,-0.444728 h 0.889327 v 0.889327 h -0.889327 z m -0.889339,0 h 0.889339 v 0.889327 h -0.889339 z m -0.889333,0 h 0.889333 v 0.889327 h -0.889333 z m -0.889341,0 h 0.889341 v 0.889327 h -0.889341 z m -0.444675,0.889327 h 0.444675 v -0.444599 a 0.44466806,0.44466806 0 0 1 -0.444675,0.444599 z m 0.444675,-0.444599 v -0.444728 h -0.444675 a 0.44466806,0.44466806 0 0 1 0.444675,0.444728 z m -3.55735,0 v -0.444728 h 0.444675 a 0.44466806,0.44466806 0 0 0 -0.444675,0.444728 z M 11.77043,27.121257 h 0.889328 v 0.889327 H 11.77043 Z m -0.444676,0.889327 h 0.444676 v -0.444599 a 0.44466806,0.44466806 0 0 1 -0.444676,0.444599 z m 0.444676,-0.444599 v -0.444728 h -0.444676 a 0.44466806,0.44466806 0 0 1 0.444676,0.444728 z m -2.6680118,0 v 0.444599 H 9.5470879 A 0.44466806,0.44466806 0 0 1 9.1024182,27.565985 Z m 0,0 v 0.444599 H 8.2130786 v -0.889327 h 0.4446698 a 0.44466806,0.44466806 0 0 1 0.4446698,0.444728 z M 7.3237519,27.121257 h 0.8893267 v 0.889327 H 7.3237519 Z m 0,0.444728 V 27.121257 H 6.879082 a 0.44466806,0.44466806 0 0 1 0.4446699,0.444728 z m -2.6680124,0 V 27.121257 H 5.100403 A 0.44466806,0.44466806 0 0 0 4.6557395,27.565985 Z M 3.7664,27.121257 v 0.444728 a 0.44466978,0.44466978 0 0 0 0.8893395,0 v 0 -0.444728 z m 20.454732,-0.444662 a 0.44466806,0.44466806 0 0 0 0.444664,0.444662 v 0 a 0.44467187,0.44467187 0 0 0 0,-0.889326 v 0 a 0.44466806,0.44466806 0 0 0 -0.444664,0.444664 z m -1.778672,0 a 0.44466806,0.44466806 0 0 0 0.44467,0.444662 v 0 a 0.44467187,0.44467187 0 0 0 0,-0.889326 v 0 a 0.44466806,0.44466806 0 0 0 -0.44467,0.444664 z m -0.889333,0 v 0.444662 h 0.444669 a 0.44466806,0.44466806 0 0 1 -0.444669,-0.444662 z m 0,0.444662 v -0.444662 a 0.44466977,0.44466977 0 0 0 -0.889339,0 v 0 0.444662 z m -1.778679,0 v -0.444662 a 0.44466812,0.44466812 0 0 0 -0.889327,0 v 0 0.444662 z m -1.778666,-0.444662 v 0.444662 h 0.44467 a 0.44466806,0.44466806 0 0 1 -0.44467,-0.444662 z m 0.44467,0.444662 h 0.444669 v -0.444662 a 0.44466806,0.44466806 0 0 1 -0.444669,0.444662 z m -0.44467,-0.444662 v 0.444662 h -0.889333 v -0.889326 h 0.444662 a 0.44466806,0.44466806 0 0 1 0.444671,0.444664 z m -1.778674,-0.444664 h 0.889341 v 0.889326 h -0.889341 z m -0.889339,0 h 0.889339 v 0.889326 h -0.889339 z m -0.444663,0.889326 h 0.444663 v -0.889326 h -0.889333 v 0.444664 a 0.44466806,0.44466806 0 0 0 0.44467,0.444662 z m -2.223348,0 h 0.444675 a 0.44467187,0.44467187 0 0 0 0,-0.889326 H 12.659758 Z M 11.77043,26.231931 h 0.889328 v 0.889326 H 11.77043 Z m -0.889333,0 h 0.889333 v 0.889326 h -0.889333 z m -0.8893393,0 h 0.8893393 v 0.889326 H 9.9917577 Z m 0,0 H 9.5470879 a 0.44467187,0.44467187 0 0 0 0,0.889326 h 0.4446698 z m -1.7786791,0.444664 v 0.444662 H 8.6577484 A 0.44466806,0.44466806 0 0 1 8.2130786,26.676595 Z m 0,0 v 0.444662 H 7.3237519 v -0.889326 h 0.4446569 a 0.44466806,0.44466806 0 0 1 0.4446698,0.444664 z M 6.4344123,26.231931 h 0.8893396 v 0.889326 H 6.4344123 Z m -0.8893396,0 h 0.8893396 v 0.889326 H 5.5450727 Z m -0.8893332,0 h 0.8893332 v 0.889326 H 4.6557395 Z M 3.7664,26.676595 v 0.444662 H 4.6557395 V 26.231931 H 4.2110698 A 0.44466806,0.44466806 0 0 0 3.7664,26.676595 Z M 17.995782,25.34254 v 0.444728 a 0.44466977,0.44466977 0 0 0 0.889339,0 v 0 -0.444728 z m -1.778674,0.444728 v 0.444663 h 0.444664 a 0.44466806,0.44466806 0 0 1 -0.444664,-0.444663 z m 0,0 v 0.444663 H 15.327769 V 25.34254 h 0.444664 a 0.44466806,0.44466806 0 0 1 0.444675,0.444728 z M 14.438436,25.34254 h 0.889333 v 0.889391 h -0.889333 z m 4.446685,0 v -0.4446 a 0.44466977,0.44466977 0 0 0 -0.889339,0 v 0 0.4446 z m -2.668013,-0.889263 v 0.444663 a 0.4446705,0.4446705 0 0 0 0.889341,0 v 0 -0.444663 z m -0.889339,0.444663 v 0.4446 h 0.444664 a 0.44466806,0.44466806 0 0 1 -0.444664,-0.4446 z m 0.889339,0 v -0.444663 h -0.444675 a 0.44466806,0.44466806 0 0 1 0.444675,0.444663 z m -0.889339,0.4446 v -0.4446 a 0.44466847,0.44466847 0 0 0 -0.889333,0 v 0 0.4446 z m -2.668011,-0.889263 v 0.444663 a 0.44466977,0.44466977 0 0 0 0.889339,0 v 0 -0.444663 z m -1.778661,0 v 0.444663 a 0.44466847,0.44466847 0 0 0 0.889333,0 v 0 -0.444663 z m 6.225352,-0.444663 v 0.444663 h -0.889341 v -0.889326 h 0.444664 a 0.44466806,0.44466806 0 0 1 0.444677,0.444663 z m -0.889341,-0.444663 h -0.444675 a 0.44467187,0.44467187 0 0 0 0,0.889326 h 0.444675 z m -3.55735,0 h 0.889339 v 0.889326 h -0.889339 z m -0.889328,0.889326 v -0.444663 a 0.44466847,0.44466847 0 0 0 -0.889333,0 v 0 0.444663 z m 2.668006,-1.33399 a 0.44466806,0.44466806 0 0 0 0.44467,0.444664 v 0 a 0.44466806,0.44466806 0 0 0 0,-0.889327 v 0 a 0.44466806,0.44466806 0 0 0 -0.44467,0.444663 z m -0.889339,0.444664 v -0.444664 a 0.44466977,0.44466977 0 0 0 -0.889339,0 v 0 0.444664 z m 4.891355,-0.889327 h -0.44467 v -0.889327 h 0.889339 v 0.444599 a 0.44466806,0.44466806 0 0 1 -0.444669,0.444728 z m -0.889341,0 h 0.444671 v -0.889327 h -0.889333 v 0.444599 a 0.44466806,0.44466806 0 0 0 0.444662,0.444728 z m -0.444662,-0.444728 v -0.444599 h -0.444677 a 0.44466806,0.44466806 0 0 1 0.444677,0.444599 z m -1.77868,0 a 0.44466806,0.44466806 0 0 0 0.444664,0.444728 v 0 a 0.44467187,0.44467187 0 0 0 0,-0.889327 v 0 a 0.44466806,0.44466806 0 0 0 -0.444664,0.444599 z m -1.778672,-0.444599 v 0.444599 a 0.44466977,0.44466977 0 0 0 0.889339,0 v 0 -0.444599 z m 0,0.444599 v -0.444599 h -0.444664 a 0.44466806,0.44466806 0 0 1 0.444664,0.444599 z m -0.889339,0 v -0.444599 h 0.444675 a 0.44466806,0.44466806 0 0 0 -0.444675,0.444599 z m -0.444664,0.444728 H 11.77043 v -0.889327 h 0.889328 v 0.444599 a 0.44466806,0.44466806 0 0 1 -0.444664,0.444728 z M 11.77043,21.785297 h -0.444676 a 0.44467187,0.44467187 0 0 0 0,0.889327 h 0.444676 z m 6.225352,-0.88939 h 0.889339 v 0.88939 h -0.889339 z m -0.889333,0 h 0.889333 v 0.88939 h -0.889333 z m -0.444677,0.88939 h 0.444677 v -0.88939 h -0.889341 v 0.444663 a 0.44466806,0.44466806 0 0 0 0.444664,0.444727 z M 16.217108,21.34057 v -0.444663 h -0.444675 a 0.44466806,0.44466806 0 0 1 0.444675,0.444663 z m -1.778672,0 v -0.444663 h 0.44467 a 0.44466806,0.44466806 0 0 0 -0.44467,0.444663 z m -0.889339,-0.444663 h 0.889339 v 0.88939 h -0.889339 z m -0.889339,0 h 0.889339 v 0.88939 h -0.889339 z m -0.889328,0 h 0.889328 v 0.88939 H 11.77043 Z m -0.444676,0.88939 H 11.77043 V 21.34057 a 0.44466806,0.44466806 0 0 1 -0.444676,0.444727 z M 11.77043,21.34057 v -0.444663 h -0.444676 a 0.44466806,0.44466806 0 0 1 0.444676,0.444663 z m 6.225352,-1.33399 h 0.889339 v 0.889327 h -0.889339 z m -0.889333,0.444663 v 0.444664 h 0.444662 a 0.44466806,0.44466806 0 0 1 -0.444662,-0.444664 z m 0.444662,0.444664 h 0.444671 v -0.444664 a 0.44466806,0.44466806 0 0 1 -0.444671,0.444664 z M 16.217108,20.00658 h 0.889341 v 0.889327 h -0.889341 z m -0.889339,0 h 0.889339 v 0.889327 h -0.889339 z m -0.889333,0 h 0.889333 v 0.889327 h -0.889333 z m -0.889339,0.444663 v 0.444664 h 0.889339 V 20.00658 h -0.444663 a 0.44466806,0.44466806 0 0 0 -0.444676,0.444663 z m -0.889339,0 v 0.444664 h 0.444675 a 0.44466806,0.44466806 0 0 1 -0.444675,-0.444664 z m 0.444675,0.444664 h 0.444664 v -0.444664 a 0.44466806,0.44466806 0 0 1 -0.444664,0.444664 z M 11.77043,20.00658 h 0.889328 v 0.889327 H 11.77043 Z m 0,0 h -0.444676 a 0.44467187,0.44467187 0 0 0 0,0.889327 h 0.444676 z m 7.114691,0 v -0.444728 a 0.44466977,0.44466977 0 0 0 -0.889339,0 v 0 0.444728 z m -1.778672,0 v -0.444728 a 0.4446705,0.4446705 0 0 0 -0.889341,0 v 0 0.444728 z m -1.334016,0 h 0.444675 v -0.444728 a 0.44466806,0.44466806 0 0 1 -0.444675,0.444728 z m -3.112675,0 v -0.444728 a 0.44466812,0.44466812 0 0 0 -0.889328,0 v 0 0.444728 z m -1.334004,0 h 0.444676 v -0.444728 a 0.44466806,0.44466806 0 0 1 -0.444676,0.444728 z"
       style="fill:#000000;fill-opacity:1;stroke:#ff0000;stroke-width:0;stroke-dasharray:none;stroke-opacity:1" /></g><style
     type="text/css"
     id="style1">
	.frame-color{fill:#000000;}
	.background-color{fill:#ffffff;}
	.text-color{fill:#FFFFFF;}
	.icon-color{fill:#000000;opacity:1;}
	.icon-black{fill:#000000;opacity:0}

	.circle-color{fill:#000000;}
	.circle-color-black{fill:#FFFFFF;}
	.circle-outline{fill:#000000;opacity:0}

	.show_on_light{opacity:0;}
	.hide_on_light{opacity:1;}
</style></svg>
