<?xml version="1.0" encoding="UTF-8" standalone="no"?>
<!-- Created with Inkscape (http://www.inkscape.org/) -->

<svg
   sodipodi:docname="tiktok_qr.svg"
   inkscape:version="1.3.2 (091e20e, 2023-11-25, custom)"
   id="svg5"
   version="1.1"
   viewBox="0 0 30 50"
   height="50mm"
   width="30mm"
   xml:space="preserve"
   xmlns:inkscape="http://www.inkscape.org/namespaces/inkscape"
   xmlns:sodipodi="http://sodipodi.sourceforge.net/DTD/sodipodi-0.dtd"
   xmlns="http://www.w3.org/2000/svg"
   xmlns:svg="http://www.w3.org/2000/svg"><sodipodi:namedview
     id="namedview7"
     pagecolor="#6d6d6d"
     bordercolor="#666666"
     borderopacity="1.0"
     inkscape:pageshadow="2"
     inkscape:pageopacity="0.0"
     inkscape:pagecheckerboard="0"
     inkscape:document-units="mm"
     showgrid="false"
     inkscape:snap-bbox="true"
     inkscape:bbox-paths="true"
     inkscape:bbox-nodes="true"
     inkscape:snap-bbox-edge-midpoints="true"
     inkscape:snap-bbox-midpoints="true"
     inkscape:object-paths="true"
     inkscape:snap-intersection-paths="true"
     inkscape:snap-smooth-nodes="true"
     inkscape:snap-midpoints="true"
     inkscape:snap-object-midpoints="true"
     inkscape:snap-page="true"
     inkscape:snap-center="true"
     inkscape:snap-text-baseline="true"
     inkscape:snap-global="false"
     showguides="true"
     inkscape:guide-bbox="true"
     inkscape:zoom="7.3866248"
     inkscape:cx="62.274722"
     inkscape:cy="128.67853"
     inkscape:window-width="1920"
     inkscape:window-height="1137"
     inkscape:window-x="-8"
     inkscape:window-y="-8"
     inkscape:window-maximized="1"
     inkscape:current-layer="layer1"
     inkscape:showpageshadow="2"
     inkscape:deskcolor="#d1d1d1" /><defs
     id="defs2" /><g
     inkscape:label="Layer 1"
     inkscape:groupmode="layer"
     id="layer1"><rect
       x="2.6041784"
       y="17.731577"
       width="24.777033"
       height="24.777033"
       fill="#ffffff"
       id="rect1"
       style="stroke-width:0.0123885;shape-rendering:crispEdges"
       ry="0.95893741" /><path
       style="fill:#ffffff;fill-opacity:1;stroke-width:0.00500955"
       d="m 14.922592,14.119809 c -1.23365,-0.05736 -2.38289,-0.531007 -3.29879,-1.359553 -0.94537,-0.855172 -1.54307,-2.001649 -1.70041,-3.2614048 -0.0289,-0.23096 -0.0374,-0.385007 -0.0374,-0.661255 0,-0.284075 0.008,-0.4336 0.0402,-0.68131 0.16012,-1.262225 0.77023,-2.414677 1.73355,-3.274211 0.28135,-0.251055 0.61025,-0.484982 0.94119,-0.66946 0.58073,-0.323727 1.22659,-0.535608 1.88847,-0.619532 0.2495,-0.03167 0.39552,-0.04043 0.68131,-0.04043 0.28576,0 0.4318,0.008 0.68129,0.04043 1.05173,0.133434 2.03445,0.581195 2.83041,1.289829 0.65092,0.579541 1.14896,1.305402 1.44674,2.108655 0.13981,0.37708 0.23572,0.767564 0.28607,1.164719 0.0317,0.249482 0.0402,0.395523 0.0402,0.68131 0,0.285768 -0.008,0.431809 -0.0402,0.68129 -0.13762,1.0850378 -0.61224,2.1005698 -1.35798,2.9055548 -1.01846,1.099357 -2.41585,1.707437 -3.90657,1.699949 -0.0799,-4.38e-4 -0.18243,-0.002 -0.22793,-0.004 z m 0.50848,-0.515672 c 1.17504,-0.06851 2.25484,-0.547816 3.08999,-1.3721 0.76759,-0.757606 1.25255,-1.737808 1.38571,-2.8008188 0.0285,-0.22638 0.0329,-0.308232 0.0329,-0.593622 0,-0.285389 -0.004,-0.367262 -0.0329,-0.593642 -0.16152,-1.28935 -0.84436,-2.456798 -1.89351,-3.237207 -0.66504,-0.494702 -1.43043,-0.802815 -2.24906,-0.90536 -0.22638,-0.02848 -0.30825,-0.03286 -0.59364,-0.03286 -0.28539,0 -0.36725,0.004 -0.59363,0.03286 -1.28598,0.161117 -2.45168,0.841351 -3.23185,1.886059 -0.4765,0.638074 -0.78704,1.385902 -0.89841,2.163563 -0.0376,0.263044 -0.0448,0.372818 -0.0448,0.686587 0,0.276726 0.002,0.337807 0.0249,0.533517 0.17067,1.5099548 1.05251,2.8485168 2.37925,3.6110418 0.63383,0.364295 1.3532,0.578088 2.09148,0.621583 0.0996,0.006 0.43526,0.006 0.53352,4.39e-4 z"
       id="path33545-0-5-9-5"
       sodipodi:nodetypes="cccsccccsccccsccccccscscccscscsccccc" /><path
       id="path1"
       style="stroke-width:0.223585;shape-rendering:auto"
       d="M 3.9232747 18.975069 C 3.8186348 18.975069 3.7331055 19.060594 3.7331055 19.165238 L 3.7331055 19.870105 L 3.7331055 20.764624 L 3.7331055 21.659143 L 3.7331055 22.553145 L 3.7331055 23.447664 L 3.7331055 24.341667 L 3.7331055 25.046533 C 3.7331055 25.151171 3.8177477 25.237219 3.9232747 25.237219 L 9.8045695 25.237219 C 9.9092066 25.237219 9.9952555 25.152069 9.9952555 25.046533 L 9.9952555 24.341667 L 9.9952555 23.447664 L 9.9952555 22.553145 L 9.9952555 21.659143 L 9.9952555 20.764624 L 9.9952555 19.870105 L 9.9952555 19.165238 C 9.9952555 19.060599 9.9100965 18.975069 9.8045695 18.975069 L 3.9232747 18.975069 z M 20.021517 18.975069 C 19.916877 18.975069 19.831348 19.060594 19.831348 19.165238 L 19.831348 19.870105 L 19.831348 20.764624 L 19.831348 21.659143 L 19.831348 22.553145 L 19.831348 23.447664 L 19.831348 24.341667 L 19.831348 25.046533 C 19.831348 25.151171 19.915985 25.237219 20.021517 25.237219 L 25.902812 25.237219 C 26.007446 25.237219 26.093498 25.152069 26.093498 25.046533 L 26.093498 24.341667 L 26.093498 23.447664 L 26.093498 22.553145 L 26.093498 21.659143 L 26.093498 20.764624 L 26.093498 19.870105 L 26.093498 19.165238 C 26.093498 19.060599 26.008344 18.975069 25.902812 18.975069 L 20.021517 18.975069 z M 11.335742 18.976103 A 0.44716989 0.44716989 0 0 0 11.335742 19.870105 A 0.44716989 0.44716989 0 0 1 11.782743 20.301603 L 11.782743 20.333126 A 0.44716989 0.44716989 0 0 1 11.335742 20.764624 A 0.44716989 0.44716989 0 0 0 10.888741 21.211625 L 10.888741 21.659143 L 10.888741 22.553145 L 10.888741 23.000146 A 0.44717083 0.44717083 0 0 0 11.782743 23.000146 A 0.44716989 0.44716989 0 0 1 12.230261 22.553145 A 0.44716989 0.44716989 0 0 0 12.677262 22.106144 L 12.677262 21.659143 L 12.677262 21.211625 A 0.44716989 0.44716989 0 0 1 13.124264 20.764624 A 0.44716989 0.44716989 0 0 1 13.571781 21.211625 A 0.44716989 0.44716989 0 0 0 14.018783 21.659143 A 0.44716989 0.44716989 0 0 1 14.465784 22.106144 L 14.465784 22.553145 L 14.465784 23.000146 A 0.44725952 0.44725952 0 0 0 15.360303 23.000146 L 15.360303 22.553145 L 15.360303 21.659143 L 15.360303 21.211625 A 0.44716989 0.44716989 0 0 1 15.807304 20.764624 A 0.44725952 0.44725952 0 0 0 15.807304 19.870105 L 15.360303 19.870105 L 14.465784 19.870105 L 13.571781 19.870105 L 13.124264 19.870105 A 0.44716989 0.44716989 0 0 1 12.677262 19.423104 A 0.44716989 0.44716989 0 0 0 12.230261 18.976103 L 11.782743 18.976103 L 11.335742 18.976103 z M 16.701823 18.976103 A 0.44716989 0.44716989 0 0 0 16.254822 19.423104 A 0.44716989 0.44716989 0 0 0 16.701823 19.870105 A 0.44716989 0.44716989 0 0 0 16.701823 18.976103 z M 18.490344 18.976103 A 0.44716989 0.44716989 0 0 0 18.043343 19.423104 A 0.44716989 0.44716989 0 0 0 18.490344 19.870105 A 0.44716989 0.44716989 0 0 0 18.490344 18.976103 z M 4.7371785 19.870105 L 8.9906657 19.870105 C 9.0514816 19.870105 9.099703 19.919223 9.099703 19.979142 L 9.099703 20.764624 L 9.099703 21.659143 L 9.099703 22.553145 L 9.099703 23.447664 L 9.099703 24.232629 C 9.099703 24.293449 9.0505867 24.341667 8.9906657 24.341667 L 4.7371785 24.341667 C 4.6763626 24.341667 4.6281413 24.292548 4.6281413 24.232629 L 4.6281413 23.447664 L 4.6281413 22.553145 L 4.6281413 21.659143 L 4.6281413 20.764624 L 4.6281413 19.979142 C 4.6281413 19.918322 4.6772575 19.870105 4.7371785 19.870105 z M 20.835421 19.870105 L 25.088908 19.870105 C 25.149728 19.870105 25.197945 19.919223 25.197945 19.979142 L 25.197945 20.764624 L 25.197945 21.659143 L 25.197945 22.553145 L 25.197945 23.447664 L 25.197945 24.232629 C 25.197945 24.293449 25.148805 24.341667 25.088908 24.341667 L 20.835421 24.341667 C 20.774601 24.341667 20.726383 24.292548 20.726383 24.232629 L 20.726383 23.447664 L 20.726383 22.553145 L 20.726383 21.659143 L 20.726383 20.764624 L 20.726383 19.979142 C 20.726383 19.918322 20.775509 19.870105 20.835421 19.870105 z M 17.562752 19.871655 A 0.44717114 0.44717114 0 0 0 17.148824 20.317623 L 17.148824 20.764624 L 17.148824 21.227128 A 0.44716989 0.44716989 0 0 1 16.701823 21.659143 A 0.4471706 0.4471706 0 0 0 16.701823 22.553145 A 0.44716989 0.44716989 0 0 1 17.148824 22.984644 L 17.148824 23.000146 A 0.44725952 0.44725952 0 0 0 18.043343 23.000146 A 0.44716989 0.44716989 0 0 1 18.490344 22.553145 A 0.4471706 0.4471706 0 0 0 18.490344 21.659143 A 0.44716989 0.44716989 0 0 1 18.043343 21.211625 L 18.043343 20.764624 L 18.043343 20.317623 A 0.44717114 0.44717114 0 0 0 17.562752 19.871655 z M 5.7123128 20.76359 C 5.6076739 20.76359 5.5216268 20.848742 5.5216268 20.954277 L 5.5216268 21.659143 L 5.5216268 22.553145 L 5.5216268 23.258012 C 5.5216268 23.362649 5.6067858 23.448698 5.7123128 23.448698 L 8.0150146 23.448698 C 8.1196545 23.448698 8.2057007 23.363547 8.2057007 23.258012 L 8.2057007 22.553145 L 8.2057007 21.659143 L 8.2057007 20.954277 C 8.2057007 20.849638 8.1205416 20.76359 8.0150146 20.76359 L 5.7123128 20.76359 z M 21.810038 20.76359 C 21.705398 20.76359 21.619869 20.848742 21.619869 20.954277 L 21.619869 21.659143 L 21.619869 22.553145 L 21.619869 23.258012 C 21.619869 23.362649 21.704515 23.448698 21.810038 23.448698 L 24.113257 23.448698 C 24.217897 23.448698 24.303943 23.363547 24.303943 23.258012 L 24.303943 22.553145 L 24.303943 21.659143 L 24.303943 20.954277 C 24.303943 20.849638 24.218785 20.76359 24.113257 20.76359 L 21.810038 20.76359 z M 13.124264 22.553145 A 0.44716989 0.44716989 0 0 0 12.677262 23.000146 A 0.44716989 0.44716989 0 0 0 13.124264 23.447664 A 0.44725952 0.44725952 0 0 0 13.124264 22.553145 z M 12.230261 23.447664 A 0.44716989 0.44716989 0 0 0 11.782743 23.894666 A 0.44716989 0.44716989 0 0 0 12.230261 24.341667 A 0.44716989 0.44716989 0 0 0 12.230261 23.447664 z M 14.018783 23.447664 A 0.44716989 0.44716989 0 0 0 13.571781 23.894666 A 0.44716989 0.44716989 0 0 0 14.018783 24.341667 A 0.44716989 0.44716989 0 0 0 14.018783 23.447664 z M 18.457271 23.449731 A 0.44716989 0.44716989 0 0 0 18.043343 23.894666 L 18.043343 24.341667 L 18.043343 24.789185 A 0.44716989 0.44716989 0 0 1 17.596342 25.236186 A 0.44716989 0.44716989 0 0 1 17.148824 24.789185 A 0.44717123 0.44717123 0 0 0 16.254822 24.789185 A 0.44716989 0.44716989 0 0 1 15.807304 25.236186 A 0.44716989 0.44716989 0 0 1 15.360303 24.789185 A 0.44725952 0.44725952 0 0 0 14.465784 24.789185 L 14.465784 25.236186 L 14.465784 26.130705 L 14.465784 27.024707 L 14.465784 27.472225 A 0.44725952 0.44725952 0 0 0 15.360303 27.472225 L 15.360303 27.024707 L 15.360303 26.577706 A 0.44716989 0.44716989 0 0 1 15.807304 26.130705 L 15.823324 26.130705 A 0.44716989 0.44716989 0 0 1 16.254822 26.577706 L 16.254822 27.024707 L 16.254822 27.472225 A 0.44717123 0.44717123 0 0 0 17.148824 27.472225 L 17.148824 27.024707 L 17.148824 26.577706 A 0.44716989 0.44716989 0 0 1 17.596342 26.130705 L 17.611845 26.130705 A 0.44716989 0.44716989 0 0 1 18.043343 26.577706 L 18.043343 27.024707 L 18.043343 27.472225 A 0.44725952 0.44725952 0 0 0 18.937862 27.472225 A 0.44716989 0.44716989 0 0 1 19.384863 27.024707 A 0.447171 0.447171 0 0 0 19.384863 26.130705 A 0.44716989 0.44716989 0 0 1 18.937862 25.683187 L 18.937862 25.236186 L 18.937862 24.341667 L 18.937862 23.894666 A 0.44716989 0.44716989 0 0 0 18.457271 23.449731 z M 11.335742 24.341667 A 0.44716989 0.44716989 0 0 0 10.888741 24.789185 A 0.44716989 0.44716989 0 0 0 11.335742 25.236186 A 0.44725952 0.44725952 0 0 0 11.335742 24.341667 z M 13.124264 24.341667 A 0.44716989 0.44716989 0 0 0 12.677262 24.789185 A 0.44716989 0.44716989 0 0 0 13.124264 25.236186 A 0.44725952 0.44725952 0 0 0 13.124264 24.341667 z M 12.196672 25.238253 A 0.44716989 0.44716989 0 0 0 11.782743 25.683187 A 0.44716989 0.44716989 0 0 1 11.335742 26.130705 A 0.447171 0.447171 0 0 0 11.335742 27.024707 A 0.44716989 0.44716989 0 0 1 11.782743 27.472225 A 0.44716989 0.44716989 0 0 0 12.230261 27.919226 L 12.677262 27.919226 L 13.124264 27.919226 A 0.44716989 0.44716989 0 0 0 13.571781 27.472225 L 13.571781 27.024707 L 13.571781 26.577706 A 0.44716989 0.44716989 0 0 0 13.124264 26.130705 A 0.44716989 0.44716989 0 0 1 12.677262 25.683187 A 0.44716989 0.44716989 0 0 0 12.196672 25.238253 z M 4.1811401 26.130705 A 0.44716989 0.44716989 0 0 0 3.7336222 26.577706 L 3.7336222 27.024707 L 3.7336222 27.472225 A 0.44716989 0.44716989 0 0 0 4.1811401 27.919226 L 4.6281413 27.919226 L 5.0751424 27.919226 A 0.44716989 0.44716989 0 0 0 5.5226603 27.472225 A 0.44716989 0.44716989 0 0 1 5.9696615 27.024707 A 0.44716989 0.44716989 0 0 1 6.4166626 27.472225 L 6.4166626 27.487728 A 0.44716989 0.44716989 0 0 1 5.9851644 27.919226 L 5.9696615 27.919226 A 0.44725952 0.44725952 0 0 0 5.9696615 28.813745 L 6.4166626 28.813745 L 6.8641805 28.813745 A 0.44716989 0.44716989 0 0 0 7.3111816 28.366227 L 7.3111816 27.919226 L 7.3111816 27.024707 L 7.3111816 26.577706 A 0.44716989 0.44716989 0 0 0 6.8641805 26.130705 L 6.4166626 26.130705 L 5.5226603 26.130705 L 4.6281413 26.130705 L 4.1811401 26.130705 z M 9.5472209 26.130705 A 0.44716989 0.44716989 0 0 0 9.099703 26.577706 A 0.44716989 0.44716989 0 0 0 9.5472209 27.024707 A 0.447171 0.447171 0 0 0 9.5472209 26.130705 z M 22.067904 26.130705 A 0.447171 0.447171 0 0 0 22.067904 27.024707 L 22.514905 27.024707 L 23.409424 27.024707 L 23.856425 27.024707 A 0.447171 0.447171 0 0 0 23.856425 26.130705 L 23.409424 26.130705 L 22.514905 26.130705 L 22.067904 26.130705 z M 25.611873 26.132255 A 0.44717114 0.44717114 0 0 0 25.197945 26.577706 L 25.197945 27.024707 L 25.197945 27.487728 A 0.44716989 0.44716989 0 0 1 24.766447 27.919226 L 24.303943 27.919226 L 23.409424 27.919226 L 22.962423 27.919226 A 0.44716989 0.44716989 0 0 0 22.514905 28.366227 L 22.514905 28.813745 L 22.514905 29.260746 A 0.44716989 0.44716989 0 0 1 22.067904 29.707747 L 21.620903 29.707747 L 21.173385 29.707747 A 0.44716989 0.44716989 0 0 0 20.726383 30.155265 L 20.726383 30.602266 L 20.726383 31.496785 L 20.726383 31.943787 A 0.44716989 0.44716989 0 0 0 21.173385 32.390788 L 21.620903 32.390788 L 22.514905 32.390788 L 22.962423 32.390788 A 0.44716989 0.44716989 0 0 0 23.409424 31.943787 L 23.409424 31.496785 L 23.409424 30.602266 L 23.409424 30.155265 A 0.44716989 0.44716989 0 0 1 23.856425 29.707747 A 0.44716989 0.44716989 0 0 0 24.303943 29.260746 A 0.44716989 0.44716989 0 0 1 24.750944 28.813745 L 24.766447 28.813745 A 0.44716989 0.44716989 0 0 1 25.197945 29.245243 L 25.197945 29.260746 A 0.44716989 0.44716989 0 0 1 24.750944 29.707747 A 0.44716989 0.44716989 0 0 0 24.303943 30.155265 L 24.303943 30.602266 L 24.303943 31.496785 L 24.303943 32.390788 L 24.303943 33.285307 L 24.303943 33.732308 A 0.44716989 0.44716989 0 0 0 25.197945 33.732308 A 0.44716989 0.44716989 0 0 1 25.644946 33.285307 A 0.44716989 0.44716989 0 0 0 26.092464 32.838306 L 26.092464 32.390788 L 26.092464 31.496785 L 26.092464 30.602266 L 26.092464 29.707747 L 26.092464 28.813745 L 26.092464 27.919226 L 26.092464 27.024707 L 26.092464 26.577706 A 0.44717114 0.44717114 0 0 0 25.611873 26.132255 z M 10.441223 27.024707 A 0.44716989 0.44716989 0 0 0 9.994222 27.472225 A 0.44716989 0.44716989 0 0 0 10.441223 27.919226 A 0.44725952 0.44725952 0 0 0 10.441223 27.024707 z M 20.279382 27.024707 A 0.44725952 0.44725952 0 0 0 20.279382 27.919226 A 0.44716989 0.44716989 0 0 1 20.726383 28.366227 A 0.44725952 0.44725952 0 0 0 21.620903 28.366227 L 21.620903 27.919226 L 21.620903 27.472225 A 0.44716989 0.44716989 0 0 0 21.173385 27.024707 L 20.726383 27.024707 L 20.279382 27.024707 z M 8.6191121 27.027291 A 0.44716989 0.44716989 0 0 0 8.2057007 27.472225 L 8.2057007 27.919226 L 8.2057007 28.366227 A 0.44716989 0.44716989 0 0 1 7.7581828 28.813745 A 0.44716989 0.44716989 0 0 0 7.3111816 29.260746 A 0.44716989 0.44716989 0 0 1 6.8641805 29.707747 L 6.4166626 29.707747 L 5.9696615 29.707747 A 0.44725952 0.44725952 0 0 0 5.9696615 30.602266 A 0.44716989 0.44716989 0 0 1 6.4166626 31.049268 A 0.44716989 0.44716989 0 0 1 5.9696615 31.496785 L 5.5226603 31.496785 L 5.0751424 31.496785 A 0.44716989 0.44716989 0 0 0 5.0751424 32.390788 A 0.44716989 0.44716989 0 0 1 5.5226603 32.838306 L 5.5226603 33.285307 L 5.5226603 33.732308 A 0.44716989 0.44716989 0 0 0 6.4166626 33.732308 A 0.44716989 0.44716989 0 0 1 6.8641805 33.285307 A 0.44716989 0.44716989 0 0 0 7.3111816 32.838306 A 0.44716989 0.44716989 0 0 1 7.7581828 32.390788 A 0.44716989 0.44716989 0 0 1 8.2057007 32.838306 A 0.44716989 0.44716989 0 0 0 9.099703 32.838306 A 0.44716989 0.44716989 0 0 1 9.5472209 32.390788 A 0.44716989 0.44716989 0 0 0 9.5472209 31.496785 A 0.44716989 0.44716989 0 0 1 9.099703 31.049268 A 0.44716989 0.44716989 0 0 0 8.2057007 31.049268 A 0.44716989 0.44716989 0 0 1 7.7581828 31.496785 A 0.44716989 0.44716989 0 0 1 7.3111816 31.049268 A 0.44716989 0.44716989 0 0 1 7.7581828 30.602266 A 0.44716989 0.44716989 0 0 0 8.2057007 30.155265 A 0.44716989 0.44716989 0 0 1 8.6527018 29.707747 A 0.44716989 0.44716989 0 0 0 9.099703 29.260746 A 0.44716989 0.44716989 0 0 1 9.5472209 28.813745 A 0.44725952 0.44725952 0 0 0 9.5472209 27.919226 A 0.44716989 0.44716989 0 0 1 9.099703 27.472225 A 0.44716989 0.44716989 0 0 0 8.6191121 27.027291 z M 17.562752 27.920776 A 0.44717114 0.44717114 0 0 0 17.148824 28.366227 L 17.148824 28.813745 L 17.148824 29.707747 L 17.148824 30.170768 A 0.44716989 0.44716989 0 0 1 16.717326 30.602266 L 16.701823 30.602266 A 0.44716989 0.44716989 0 0 0 16.254822 31.049268 L 16.254822 31.496785 L 16.254822 32.390788 L 16.254822 32.838306 A 0.44717123 0.44717123 0 0 0 17.148824 32.838306 A 0.44716989 0.44716989 0 0 1 17.596342 32.390788 A 0.44716989 0.44716989 0 0 1 18.043343 32.838306 L 18.043343 33.285307 L 18.043343 33.732308 A 0.44716989 0.44716989 0 0 1 17.596342 34.179826 A 0.44717083 0.44717083 0 0 0 17.596342 35.073828 A 0.44716989 0.44716989 0 0 1 18.043343 35.521346 A 0.44716989 0.44716989 0 0 1 17.596342 35.968347 A 0.44716989 0.44716989 0 0 1 17.148824 35.521346 A 0.44716989 0.44716989 0 0 0 16.701823 35.073828 A 0.44716989 0.44716989 0 0 1 16.254822 34.626827 A 0.44716989 0.44716989 0 0 0 15.807304 34.179826 A 0.44716989 0.44716989 0 0 1 15.360303 33.732308 A 0.44716989 0.44716989 0 0 0 14.913302 33.285307 A 0.44716989 0.44716989 0 0 1 14.465784 32.838306 L 14.465784 32.390788 L 14.465784 31.943787 A 0.44716989 0.44716989 0 0 1 14.913302 31.496785 A 0.44725952 0.44725952 0 0 0 14.913302 30.602266 L 14.465784 30.602266 L 14.018783 30.602266 A 0.44716989 0.44716989 0 0 0 13.571781 31.049268 A 0.44716989 0.44716989 0 0 1 13.124264 31.496785 A 0.44716989 0.44716989 0 0 0 12.677262 31.943787 L 12.677262 32.390788 L 12.677262 32.838306 A 0.44716989 0.44716989 0 0 0 13.124264 33.285307 A 0.44716989 0.44716989 0 0 1 13.571781 33.732308 L 13.571781 34.179826 L 13.571781 34.626827 A 0.44716989 0.44716989 0 0 1 13.124264 35.073828 A 0.44716989 0.44716989 0 0 1 12.677262 34.626827 L 12.677262 34.179826 L 12.677262 33.732308 A 0.44716989 0.44716989 0 0 0 12.230261 33.285307 L 11.782743 33.285307 L 10.888741 33.285307 L 9.994222 33.285307 L 9.5472209 33.285307 A 0.44725952 0.44725952 0 0 0 9.5472209 34.179826 L 9.994222 34.179826 L 10.457243 34.179826 A 0.44716989 0.44716989 0 0 1 10.888741 34.626827 A 0.44716989 0.44716989 0 0 0 11.335742 35.073828 A 0.44716989 0.44716989 0 0 1 11.782743 35.505326 L 11.782743 35.968347 L 11.782743 36.862866 L 11.782743 37.309867 A 0.44716989 0.44716989 0 0 1 11.335742 37.756868 A 0.44716989 0.44716989 0 0 0 10.888741 38.204386 L 10.888741 38.651388 L 10.888741 39.545907 L 10.888741 40.439909 L 10.888741 40.887427 A 0.44717083 0.44717083 0 0 0 11.782743 40.887427 A 0.44716989 0.44716989 0 0 1 12.230261 40.439909 A 0.44716989 0.44716989 0 0 1 12.677262 40.887427 A 0.44725952 0.44725952 0 0 0 13.571781 40.887427 A 0.44716989 0.44716989 0 0 1 14.018783 40.439909 A 0.44716989 0.44716989 0 0 1 14.465784 40.871407 L 14.465784 40.887427 A 0.44716989 0.44716989 0 0 0 14.913302 41.334428 L 15.360303 41.334428 L 16.254822 41.334428 L 16.701823 41.334428 A 0.44725952 0.44725952 0 0 0 16.701823 40.439909 L 16.254822 40.439909 L 15.807304 40.439909 A 0.44716989 0.44716989 0 0 1 15.360303 39.992908 A 0.44716989 0.44716989 0 0 1 15.807304 39.545907 L 16.254822 39.545907 L 17.148824 39.545907 L 17.596342 39.545907 A 0.44716989 0.44716989 0 0 0 18.043343 39.098389 A 0.44716989 0.44716989 0 0 1 18.490344 38.651388 A 0.44716989 0.44716989 0 0 0 18.937862 38.204386 A 0.44716989 0.44716989 0 0 1 19.384863 37.756868 L 19.831864 37.756868 L 20.279382 37.756868 A 0.44716989 0.44716989 0 0 1 20.726383 38.204386 A 0.44716989 0.44716989 0 0 1 20.279382 38.651388 A 0.44725952 0.44725952 0 0 0 20.279382 39.545907 A 0.44716989 0.44716989 0 0 1 20.726383 39.992908 A 0.44716989 0.44716989 0 0 0 21.173385 40.439909 L 21.620903 40.439909 L 22.067904 40.439909 A 0.44716989 0.44716989 0 0 0 22.067904 39.545907 A 0.44716989 0.44716989 0 0 1 21.620903 39.098389 A 0.44716989 0.44716989 0 0 1 22.067904 38.651388 A 0.44716989 0.44716989 0 0 1 22.514905 39.098389 A 0.44716989 0.44716989 0 0 0 22.962423 39.545907 L 23.409424 39.545907 L 23.856425 39.545907 A 0.44716989 0.44716989 0 0 1 24.303943 39.992908 A 0.44716989 0.44716989 0 0 1 23.871928 40.439909 L 23.409424 40.439909 L 22.962423 40.439909 A 0.44725952 0.44725952 0 0 0 22.962423 41.334428 L 23.409424 41.334428 L 24.303943 41.334428 L 25.197945 41.334428 L 25.644946 41.334428 A 0.44716989 0.44716989 0 0 0 26.092464 40.887427 L 26.092464 40.439909 L 26.092464 39.992908 A 0.44716989 0.44716989 0 0 0 25.644946 39.545907 A 0.44716989 0.44716989 0 0 1 25.197945 39.098389 A 0.44716989 0.44716989 0 0 1 25.644946 38.651388 A 0.44716989 0.44716989 0 0 0 26.092464 38.204386 L 26.092464 37.756868 L 26.092464 36.862866 L 26.092464 35.968347 L 26.092464 35.521346 A 0.44716989 0.44716989 0 0 0 25.644946 35.073828 L 25.197945 35.073828 L 24.750944 35.073828 A 0.44716989 0.44716989 0 0 1 24.303943 34.626827 A 0.44716989 0.44716989 0 0 0 23.856425 34.179826 L 23.409424 34.179826 L 22.962423 34.179826 A 0.44716989 0.44716989 0 0 1 22.514905 33.732308 A 0.44716989 0.44716989 0 0 0 22.067904 33.285307 L 21.620903 33.285307 L 20.726383 33.285307 L 19.831864 33.285307 L 19.384863 33.285307 A 0.44716989 0.44716989 0 0 1 18.937862 32.838306 A 0.44716989 0.44716989 0 0 1 19.384863 32.390788 A 0.44716989 0.44716989 0 0 0 19.384863 31.496785 L 18.937862 31.496785 L 18.490344 31.496785 A 0.44716989 0.44716989 0 0 1 18.043343 31.049268 A 0.44716989 0.44716989 0 0 1 18.490344 30.602266 A 0.44716989 0.44716989 0 0 0 18.937862 30.155265 L 18.937862 29.707747 L 18.937862 29.260746 A 0.44716989 0.44716989 0 0 0 18.490344 28.813745 A 0.44716989 0.44716989 0 0 1 18.043343 28.366227 A 0.44717114 0.44717114 0 0 0 17.562752 27.920776 z M 11.302153 27.921293 A 0.44717083 0.44717083 0 0 0 10.888741 28.366227 L 10.888741 28.813745 L 10.888741 29.260746 A 0.44716989 0.44716989 0 0 1 10.441223 29.707747 L 9.994222 29.707747 L 9.5472209 29.707747 A 0.44725952 0.44725952 0 0 0 9.5472209 30.602266 L 9.994222 30.602266 L 10.441223 30.602266 A 0.44716989 0.44716989 0 0 1 10.888741 31.049268 A 0.44716989 0.44716989 0 0 0 11.335742 31.496785 L 11.782743 31.496785 L 12.230261 31.496785 A 0.44716989 0.44716989 0 0 0 12.677262 31.049268 L 12.677262 30.602266 L 12.677262 30.155265 A 0.44716989 0.44716989 0 0 0 12.230261 29.707747 A 0.44716989 0.44716989 0 0 1 11.782743 29.260746 L 11.782743 28.813745 L 11.782743 28.366227 A 0.44717083 0.44717083 0 0 0 11.302153 27.921293 z M 13.985193 27.921293 A 0.44716989 0.44716989 0 0 0 13.571781 28.366227 A 0.44716989 0.44716989 0 0 1 13.124264 28.813745 A 0.44716989 0.44716989 0 0 0 13.124264 29.707747 L 13.571781 29.707747 L 14.465784 29.707747 L 15.360303 29.707747 L 15.807304 29.707747 A 0.44716989 0.44716989 0 0 0 15.807304 28.813745 L 15.360303 28.813745 L 14.913302 28.813745 A 0.44716989 0.44716989 0 0 1 14.465784 28.366227 A 0.44716989 0.44716989 0 0 0 13.985193 27.921293 z M 4.1811401 28.813745 A 0.44716989 0.44716989 0 0 0 4.1811401 29.707747 L 4.6281413 29.707747 L 5.0751424 29.707747 A 0.44716989 0.44716989 0 0 0 5.0751424 28.813745 L 4.6281413 28.813745 L 4.1811401 28.813745 z M 20.279382 28.813745 A 0.44716989 0.44716989 0 0 0 19.831864 29.260746 A 0.44716989 0.44716989 0 0 0 20.279382 29.707747 A 0.44716989 0.44716989 0 0 0 20.279382 28.813745 z M 22.067904 30.602266 A 0.44716989 0.44716989 0 0 1 22.514905 31.049268 A 0.44716989 0.44716989 0 0 1 22.067904 31.496785 A 0.44716989 0.44716989 0 0 1 21.620903 31.049268 A 0.44716989 0.44716989 0 0 1 22.067904 30.602266 z M 4.1811401 32.390788 A 0.44716989 0.44716989 0 0 0 3.7336222 32.838306 A 0.44716989 0.44716989 0 0 0 4.1811401 33.285307 A 0.44725952 0.44725952 0 0 0 4.1811401 32.390788 z M 19.384863 34.179826 L 19.831864 34.179826 L 20.726383 34.179826 L 21.188888 34.179826 A 0.44716989 0.44716989 0 0 1 21.620903 34.626827 L 21.620903 35.073828 L 21.620903 35.968347 L 21.620903 36.415348 A 0.44716989 0.44716989 0 0 1 21.173385 36.862866 L 20.726383 36.862866 L 19.831864 36.862866 L 19.384863 36.862866 A 0.44716989 0.44716989 0 0 1 18.937862 36.415348 L 18.937862 35.968347 L 18.937862 35.073828 L 18.937862 34.626827 A 0.44716989 0.44716989 0 0 1 19.384863 34.179826 z M 3.9232747 35.073311 C 3.8186348 35.073311 3.7331055 35.158835 3.7331055 35.263481 L 3.7331055 35.968347 L 3.7331055 36.862866 L 3.7331055 37.756868 L 3.7331055 38.651388 L 3.7331055 39.545907 L 3.7331055 40.439909 L 3.7331055 41.144775 C 3.7331055 41.249412 3.8177477 41.335461 3.9232747 41.335461 L 9.8045695 41.335461 C 9.9092066 41.335461 9.9952555 41.25031 9.9952555 41.144775 L 9.9952555 40.439909 L 9.9952555 39.545907 L 9.9952555 38.651388 L 9.9952555 37.756868 L 9.9952555 36.862866 L 9.9952555 35.968347 L 9.9952555 35.263481 C 9.9952555 35.158841 9.9100965 35.073311 9.8045695 35.073311 L 3.9232747 35.073311 z M 20.279382 35.073828 A 0.44716989 0.44716989 0 0 0 19.831864 35.521346 A 0.44716989 0.44716989 0 0 0 20.279382 35.968347 A 0.44725952 0.44725952 0 0 0 20.279382 35.073828 z M 22.962423 35.073828 A 0.44716989 0.44716989 0 0 1 23.409424 35.521346 A 0.44716989 0.44716989 0 0 0 23.856425 35.968347 A 0.44716989 0.44716989 0 0 1 24.303943 36.415348 A 0.44716989 0.44716989 0 0 0 24.750944 36.862866 A 0.44716989 0.44716989 0 0 1 25.197945 37.309867 A 0.44716989 0.44716989 0 0 1 24.750944 37.756868 A 0.44716989 0.44716989 0 0 0 24.303943 38.204386 A 0.44716989 0.44716989 0 0 1 23.856425 38.651388 A 0.44716989 0.44716989 0 0 1 23.409424 38.204386 A 0.44716989 0.44716989 0 0 0 22.962423 37.756868 A 0.44716989 0.44716989 0 0 1 22.514905 37.309867 L 22.514905 36.862866 L 22.514905 35.968347 L 22.514905 35.521346 A 0.44716989 0.44716989 0 0 1 22.962423 35.073828 z M 4.7371785 35.968347 L 8.9906657 35.968347 C 9.0514816 35.968347 9.099703 36.017466 9.099703 36.077384 L 9.099703 36.862866 L 9.099703 37.756868 L 9.099703 38.651388 L 9.099703 39.545907 L 9.099703 40.330872 C 9.099703 40.391692 9.0505867 40.439909 8.9906657 40.439909 L 4.7371785 40.439909 C 4.6763626 40.439909 4.6281413 40.390792 4.6281413 40.330872 L 4.6281413 39.545907 L 4.6281413 38.651388 L 4.6281413 37.756868 L 4.6281413 36.862866 L 4.6281413 36.077384 C 4.6281413 36.016565 4.6772575 35.968347 4.7371785 35.968347 z M 14.018783 35.968347 A 0.44716989 0.44716989 0 0 1 14.465784 36.415348 A 0.44716989 0.44716989 0 0 0 14.913302 36.862866 L 15.360303 36.862866 L 16.254822 36.862866 L 16.701823 36.862866 A 0.44716989 0.44716989 0 0 1 17.148824 37.309867 A 0.44716989 0.44716989 0 0 1 16.701823 37.756868 A 0.44716989 0.44716989 0 0 0 16.254822 38.204386 A 0.44716989 0.44716989 0 0 1 15.807304 38.651388 A 0.44716989 0.44716989 0 0 1 15.360303 38.204386 A 0.44716989 0.44716989 0 0 0 14.913302 37.756868 L 14.465784 37.756868 L 14.018783 37.756868 A 0.44716989 0.44716989 0 0 1 13.571781 37.309867 L 13.571781 36.862866 L 13.571781 36.415348 A 0.44716989 0.44716989 0 0 1 14.018783 35.968347 z M 5.7123128 36.861833 C 5.6076739 36.861833 5.5216268 36.946984 5.5216268 37.052519 L 5.5216268 37.756868 L 5.5216268 38.651388 L 5.5216268 39.356254 C 5.5216268 39.460892 5.6067858 39.546423 5.7123128 39.546423 L 8.0150146 39.546423 C 8.1196545 39.546423 8.2057007 39.46179 8.2057007 39.356254 L 8.2057007 38.651388 L 8.2057007 37.756868 L 8.2057007 37.052519 C 8.2057007 36.947879 8.1205416 36.861833 8.0150146 36.861833 L 5.7123128 36.861833 z M 23.856425 36.862866 A 0.44716989 0.44716989 0 0 0 23.409424 37.309867 A 0.44716989 0.44716989 0 0 0 23.856425 37.756868 A 0.44716989 0.44716989 0 0 0 23.856425 36.862866 z M 13.124264 38.651388 A 0.44716989 0.44716989 0 0 1 13.571781 39.098389 A 0.44716989 0.44716989 0 0 1 13.124264 39.545907 A 0.44716989 0.44716989 0 0 1 12.677262 39.098389 A 0.44716989 0.44716989 0 0 1 13.124264 38.651388 z M 18.490344 39.545907 A 0.44716989 0.44716989 0 0 0 18.490344 40.439909 A 0.44716989 0.44716989 0 0 1 18.937862 40.887427 A 0.44717114 0.44717114 0 0 0 19.831864 40.887427 L 19.831864 40.439909 L 19.831864 39.992908 A 0.44716989 0.44716989 0 0 0 19.384863 39.545907 L 18.937862 39.545907 L 18.490344 39.545907 z " /><path
       style="font-size:4.1419px;line-height:1.25;font-family:'Century Gothic';-inkscape-font-specification:'Century Gothic, Normal';fill:#ffffff;stroke-width:0.238956"
       d="m 3.7333634,44.249468 h 0.2851601 v 0.817054 H 4.467499 v 0.24269 H 4.0185235 v 1.957695 H 3.7333634 V 45.309212 H 3.3470827 v -0.24269 h 0.3862807 z m 1.1547974,-0.03236 h 0.2851601 v 1.73523 L 6.1905942,45.066522 H 6.6072111 L 5.399831,46.116154 6.6779955,47.266907 H 6.2775579 l -1.104237,-0.98896 v 0.98896 H 4.8881608 Z m 2.3925133,2.604867 q 0.103143,0 0.1759499,0.07281 0.072807,0.07281 0.072807,0.177972 0,0.103143 -0.072807,0.177972 -0.072807,0.07281 -0.1759499,0.07281 -0.103143,0 -0.1759499,-0.07281 -0.072807,-0.07483 -0.072807,-0.177972 0,-0.105165 0.072807,-0.177972 0.072807,-0.07281 0.1759499,-0.07281 z m 0.7280682,-1.755454 h 0.289205 v 0.321564 q 0.1294343,-0.190107 0.2730256,-0.283138 0.1435913,-0.09505 0.299317,-0.09505 0.1172999,0 0.2507791,0.07483 l -0.1476361,0.238645 q -0.088986,-0.03843 -0.1496585,-0.03843 -0.1415688,0 -0.2730256,0.1173 -0.1314568,0.115277 -0.2002188,0.359989 -0.052583,0.188084 -0.052583,0.760427 v 0.744248 h -0.289205 z m 2.3945367,-0.05663 q 0.507625,0 0.841323,0.368079 0.303362,0.33572 0.303362,0.794808 0,0.46111 -0.321564,0.806942 -0.319541,0.34381 -0.823121,0.34381 -0.5056034,0 -0.8271669,-0.34381 -0.3195411,-0.345832 -0.3195411,-0.806942 0,-0.457065 0.3033618,-0.792786 0.333698,-0.370101 0.8433462,-0.370101 z m 0,0.27707 q -0.3519,0 -0.6047016,0.260891 -0.2528015,0.260892 -0.2528015,0.630993 0,0.238645 0.1152775,0.444931 0.1152775,0.206286 0.3114515,0.319541 0.1961741,0.111232 0.4307741,0.111232 0.234599,0 0.430773,-0.111232 0.196174,-0.113255 0.311452,-0.319541 0.115277,-0.206286 0.115277,-0.444931 0,-0.370101 -0.254824,-0.630993 -0.252801,-0.260891 -0.602678,-0.260891 z m 1.66849,-0.220443 h 0.281115 v 0.380214 q 0.147636,-0.210331 0.303362,-0.307407 0.214375,-0.129434 0.450998,-0.129434 0.15977,0 0.303362,0.06269 0.143591,0.06269 0.234599,0.16786 0.09101,0.103143 0.157748,0.297294 0.141569,-0.258868 0.353923,-0.392348 0.212353,-0.135501 0.457065,-0.135501 0.228532,0 0.40246,0.115277 0.17595,0.115278 0.260891,0.321564 0.08494,0.206286 0.08494,0.618858 v 1.201313 h -0.289205 v -1.201313 q 0,-0.353922 -0.05056,-0.485379 -0.05056,-0.133479 -0.173927,-0.214376 -0.121345,-0.0809 -0.291228,-0.0809 -0.206286,0 -0.378191,0.121345 -0.169882,0.121344 -0.248757,0.323586 -0.07887,0.202241 -0.07887,0.675485 v 0.861548 h -0.281115 v -1.126484 q 0,-0.398415 -0.05056,-0.539984 -0.04854,-0.143591 -0.171905,-0.228532 -0.123367,-0.08696 -0.29325,-0.08696 -0.196174,0 -0.368079,0.119322 -0.169883,0.1173 -0.252802,0.317519 -0.0809,0.200219 -0.0809,0.612791 v 0.932332 h -0.281115 z m 6.079371,0 v 2.200385 h -0.279093 v -0.378191 q -0.177973,0.216398 -0.400438,0.325608 -0.220443,0.10921 -0.483356,0.10921 -0.467178,0 -0.798853,-0.337743 -0.329653,-0.339765 -0.329653,-0.825144 0,-0.475267 0.333698,-0.813009 0.333698,-0.337743 0.802897,-0.337743 0.271003,0 0.489424,0.115277 0.220443,0.115278 0.386281,0.345833 v -0.404483 z m -1.132551,0.216398 q -0.236623,0 -0.436841,0.1173 -0.200219,0.115278 -0.319541,0.325609 -0.1173,0.210331 -0.1173,0.44493 0,0.232578 0.119322,0.444931 0.119322,0.212353 0.319541,0.331676 0.202241,0.1173 0.432796,0.1173 0.232578,0 0.440886,-0.1173 0.208309,-0.1173 0.319541,-0.317519 0.113255,-0.200219 0.113255,-0.450998 0,-0.382236 -0.252801,-0.639082 -0.250779,-0.256847 -0.618858,-0.256847 z m 1.76961,-0.216398 h 0.283138 v 0.394371 q 0.169882,-0.22651 0.376168,-0.337743 0.206286,-0.113255 0.448976,-0.113255 0.246734,0 0.436841,0.125389 0.192129,0.12539 0.283138,0.337743 0.09101,0.212353 0.09101,0.661329 v 1.132551 h -0.281115 v -1.049632 q 0,-0.380214 -0.03236,-0.507626 -0.05056,-0.21842 -0.190106,-0.32763 -0.139547,-0.111233 -0.364035,-0.111233 -0.256846,0 -0.46111,0.169883 -0.202241,0.169882 -0.266958,0.420661 -0.04045,0.163816 -0.04045,0.598634 v 0.806943 h -0.283138 z m 2.772727,-0.817054 h 0.28516 v 0.817054 h 0.448975 v 0.24269 h -0.448975 v 1.957695 h -0.28516 v -1.957695 h -0.386281 v -0.24269 h 0.386281 z m 0.920198,0.817054 h 0.299317 l 0.756382,1.694782 0.734136,-1.694782 h 0.301339 l -1.312545,3.005305 h -0.299317 l 0.424706,-0.970758 z m 2.455208,-0.849413 h 0.28516 v 1.73523 l 1.017273,-0.885817 h 0.416617 l -1.20738,1.049632 1.278164,1.150753 h -0.400437 l -1.104237,-0.98896 v 0.98896 h -0.28516 z"
       id="text1"
       aria-label="tk.romantyk" /><path
       style="fill:#ffffff;fill-opacity:1;stroke-width:0.0447543"
       d="m 14.419985,11.712336 c -0.753872,-0.105435 -1.343582,-0.65692 -1.500226,-1.402981 -0.03103,-0.147768 -0.03177,-0.5115952 -0.0014,-0.6571902 0.04319,-0.206684 0.130403,-0.430359 0.233151,-0.597985 0.166328,-0.271349 0.427221,-0.514385 0.699219,-0.651361 0.260467,-0.13117 0.6502,-0.205178 0.938307,-0.17818 l 0.0917,0.0086 v 0.483015 0.483014 l -0.07401,-0.01588 c -0.349344,-0.07495 -0.730504,0.112947 -0.890133,0.438802 -0.05782,0.11803 -0.08002,0.216453 -0.08021,0.355572 -3.96e-4,0.2804912 0.124777,0.5133792 0.356453,0.6632502 0.191212,0.123694 0.436786,0.167411 0.635033,0.113049 0.283323,-0.07769 0.49722,-0.283435 0.585273,-0.562964 l 0.02994,-0.09488 0.0034,-1.9449292 0.0034,-1.944929 h 0.466793 0.466793 l 0.0059,0.03848 c 0.0032,0.02117 0.0089,0.07432 0.01268,0.118124 0.01583,0.184681 0.124155,0.449516 0.254775,0.622862 0.16216,0.215202 0.40486,0.39032 0.657307,0.474273 0.108179,0.03598 0.288149,0.07237 0.358198,0.07244 l 0.03848,3.8e-5 v 0.46773 0.467731 l -0.02664,-9.8e-5 c -0.133484,-4.95e-4 -0.405458,-0.0385 -0.557635,-0.0779 -0.197226,-0.05106 -0.47462,-0.172958 -0.641294,-0.281805 -0.04559,-0.02977 -0.08665,-0.05424 -0.09125,-0.05438 -0.0046,-1.36e-4 -0.01026,0.491307 -0.01258,1.092104 -0.0042,1.0770262 -0.0046,1.0938532 -0.0302,1.1989292 -0.04137,0.169683 -0.0707,0.250938 -0.145303,0.402603 -0.17039,0.346374 -0.450454,0.626358 -0.798225,0.797996 -0.247177,0.121992 -0.431386,0.166111 -0.722317,0.172998 -0.104204,0.0025 -0.223648,-2.86e-4 -0.265431,-0.0061 z"
       id="path1-1" /></g><style
     type="text/css"
     id="style1">
	.frame-color{fill:#000000;}
	.background-color{fill:#ffffff;}
	.text-color{fill:#FFFFFF;}
	.icon-color{fill:#000000;opacity:1;}
	.icon-black{fill:#000000;opacity:0}

	.circle-color{fill:#000000;}
	.circle-color-black{fill:#FFFFFF;}
	.circle-outline{fill:#000000;opacity:0}

	.show_on_light{opacity:0;}
	.hide_on_light{opacity:1;}
</style></svg>
