<?xml version="1.0" encoding="UTF-8" standalone="no"?>
<!-- Created with Inkscape (http://www.inkscape.org/) -->

<svg
   sodipodi:docname="youtube_qr.svg"
   inkscape:version="1.3.2 (091e20e, 2023-11-25, custom)"
   id="svg5"
   version="1.1"
   viewBox="0 0 30 50"
   height="50mm"
   width="30mm"
   xml:space="preserve"
   xmlns:inkscape="http://www.inkscape.org/namespaces/inkscape"
   xmlns:sodipodi="http://sodipodi.sourceforge.net/DTD/sodipodi-0.dtd"
   xmlns="http://www.w3.org/2000/svg"
   xmlns:svg="http://www.w3.org/2000/svg"><sodipodi:namedview
     id="namedview7"
     pagecolor="#6d6d6d"
     bordercolor="#666666"
     borderopacity="1.0"
     inkscape:pageshadow="2"
     inkscape:pageopacity="0.0"
     inkscape:pagecheckerboard="0"
     inkscape:document-units="mm"
     showgrid="false"
     inkscape:snap-bbox="true"
     inkscape:bbox-paths="true"
     inkscape:bbox-nodes="true"
     inkscape:snap-bbox-edge-midpoints="true"
     inkscape:snap-bbox-midpoints="true"
     inkscape:object-paths="true"
     inkscape:snap-intersection-paths="true"
     inkscape:snap-smooth-nodes="true"
     inkscape:snap-midpoints="true"
     inkscape:snap-object-midpoints="true"
     inkscape:snap-page="true"
     inkscape:snap-center="true"
     inkscape:snap-text-baseline="true"
     inkscape:snap-global="false"
     showguides="true"
     inkscape:guide-bbox="true"
     inkscape:zoom="5.227403"
     inkscape:cx="56.529026"
     inkscape:cy="124.05778"
     inkscape:window-width="1920"
     inkscape:window-height="1137"
     inkscape:window-x="-8"
     inkscape:window-y="-8"
     inkscape:window-maximized="1"
     inkscape:current-layer="layer1"
     inkscape:showpageshadow="2"
     inkscape:deskcolor="#d1d1d1" /><defs
     id="defs2" /><g
     inkscape:label="Layer 1"
     inkscape:groupmode="layer"
     id="layer1"><rect
       x="2.6041784"
       y="17.731577"
       width="24.777033"
       height="24.777033"
       fill="#ffffff"
       id="rect1"
       style="stroke-width:0.0123885;shape-rendering:crispEdges"
       ry="0.95893741" /><path
       style="fill:#ffffff;fill-opacity:1;stroke-width:0.00500955"
       d="m 14.922592,14.119809 c -1.23365,-0.05736 -2.38289,-0.531007 -3.29879,-1.359553 -0.94537,-0.855172 -1.54307,-2.001649 -1.70041,-3.2614048 -0.0289,-0.23096 -0.0374,-0.385007 -0.0374,-0.661255 0,-0.284075 0.008,-0.4336 0.0402,-0.68131 0.16012,-1.262225 0.77023,-2.414677 1.73355,-3.274211 0.28135,-0.251055 0.61025,-0.484982 0.94119,-0.66946 0.58073,-0.323727 1.22659,-0.535608 1.88847,-0.619532 0.2495,-0.03167 0.39552,-0.04043 0.68131,-0.04043 0.28576,0 0.4318,0.008 0.68129,0.04043 1.05173,0.133434 2.03445,0.581195 2.83041,1.289829 0.65092,0.579541 1.14896,1.305402 1.44674,2.108655 0.13981,0.37708 0.23572,0.767564 0.28607,1.164719 0.0317,0.249482 0.0402,0.395523 0.0402,0.68131 0,0.285768 -0.008,0.431809 -0.0402,0.68129 -0.13762,1.0850378 -0.61224,2.1005698 -1.35798,2.9055548 -1.01846,1.099357 -2.41585,1.707437 -3.90657,1.699949 -0.0799,-4.38e-4 -0.18243,-0.002 -0.22793,-0.004 z m 0.50848,-0.515672 c 1.17504,-0.06851 2.25484,-0.547816 3.08999,-1.3721 0.76759,-0.757606 1.25255,-1.737808 1.38571,-2.8008188 0.0285,-0.22638 0.0329,-0.308232 0.0329,-0.593622 0,-0.285389 -0.004,-0.367262 -0.0329,-0.593642 -0.16152,-1.28935 -0.84436,-2.456798 -1.89351,-3.237207 -0.66504,-0.494702 -1.43043,-0.802815 -2.24906,-0.90536 -0.22638,-0.02848 -0.30825,-0.03286 -0.59364,-0.03286 -0.28539,0 -0.36725,0.004 -0.59363,0.03286 -1.28598,0.161117 -2.45168,0.841351 -3.23185,1.886059 -0.4765,0.638074 -0.78704,1.385902 -0.89841,2.163563 -0.0376,0.263044 -0.0448,0.372818 -0.0448,0.686587 0,0.276726 0.002,0.337807 0.0249,0.533517 0.17067,1.5099548 1.05251,2.8485168 2.37925,3.6110418 0.63383,0.364295 1.3532,0.578088 2.09148,0.621583 0.0996,0.006 0.43526,0.006 0.53352,4.39e-4 z"
       id="path33545-0-5-9-5"
       sodipodi:nodetypes="cccsccccsccccsccccccscscccscscsccccc" /><path
       style="font-size:4.1419px;line-height:1.25;font-family:'Century Gothic';-inkscape-font-specification:'Century Gothic, Normal';fill:#ffffff;stroke-width:0.238956"
       d="m 3.9687032,43.96928 h 0.28516 v 0.817054 h 0.448976 v 0.24269 h -0.448976 v 1.957695 h -0.28516 v -1.957695 h -0.386281 v -0.24269 h 0.386281 z m 1.154798,-0.03236 h 0.28516 v 1.73523 l 1.017273,-0.885816 h 0.416617 l -1.20738,1.049632 1.278164,1.150753 h -0.400437 l -1.104237,-0.98896 v 0.98896 h -0.28516 z m 2.392513,2.604867 q 0.103143,0 0.17595,0.07281 0.07281,0.07281 0.07281,0.177972 0,0.103143 -0.07281,0.177972 -0.07281,0.07281 -0.17595,0.07281 -0.103143,0 -0.17595,-0.07281 -0.07281,-0.07483 -0.07281,-0.177972 0,-0.105165 0.07281,-0.177972 0.07281,-0.07281 0.17595,-0.07281 z m 0.728068,-1.755454 h 0.289205 v 0.321564 q 0.129434,-0.190107 0.273026,-0.283138 0.143591,-0.09505 0.299317,-0.09505 0.1173,0 0.250779,0.07483 l -0.147636,0.238645 q -0.08899,-0.03843 -0.149659,-0.03843 -0.141569,0 -0.273025,0.1173 -0.131457,0.115277 -0.200219,0.359989 -0.05258,0.188084 -0.05258,0.760427 v 0.744248 h -0.289205 z m 2.3945368,-0.05663 q 0.507625,0 0.841323,0.368079 0.303362,0.33572 0.303362,0.794808 0,0.46111 -0.321564,0.806942 -0.319541,0.34381 -0.823121,0.34381 -0.505604,0 -0.8271671,-0.34381 Q 9.4919112,46.3537 9.4919112,45.89259 q 0,-0.457065 0.3033607,-0.792786 0.3336981,-0.370101 0.8433471,-0.370101 z m 0,0.27707 q -0.3519,0 -0.604702,0.260891 -0.2528011,0.260892 -0.2528011,0.630993 0,0.238645 0.115277,0.444931 0.1152781,0.206286 0.3114521,0.319541 0.196174,0.111232 0.430774,0.111232 0.234599,0 0.430773,-0.111232 0.196174,-0.113255 0.311452,-0.319541 0.115277,-0.206286 0.115277,-0.444931 0,-0.370101 -0.254824,-0.630993 -0.252801,-0.260891 -0.602678,-0.260891 z m 1.66849,-0.220443 h 0.281115 v 0.380214 q 0.147636,-0.210331 0.303362,-0.307407 0.214375,-0.129434 0.450998,-0.129434 0.15977,0 0.303362,0.06269 0.143591,0.06269 0.234599,0.16786 0.09101,0.103143 0.157748,0.297294 0.141569,-0.258868 0.353923,-0.392348 0.212353,-0.135501 0.457065,-0.135501 0.228532,0 0.40246,0.115277 0.17595,0.115278 0.260891,0.321564 0.08494,0.206286 0.08494,0.618858 v 1.201313 h -0.289205 v -1.201313 q 0,-0.353922 -0.05056,-0.485379 -0.05056,-0.133479 -0.173927,-0.214376 -0.121345,-0.0809 -0.291228,-0.0809 -0.206286,0 -0.378191,0.121345 -0.169882,0.121344 -0.248757,0.323586 -0.07887,0.202241 -0.07887,0.675485 v 0.861548 h -0.281115 v -1.126484 q 0,-0.398415 -0.05056,-0.539984 -0.04854,-0.143591 -0.171905,-0.228532 -0.123367,-0.08696 -0.29325,-0.08696 -0.196174,0 -0.368079,0.119322 -0.169883,0.1173 -0.252802,0.317519 -0.0809,0.200219 -0.0809,0.612791 v 0.932332 h -0.281115 z m 6.079371,0 v 2.200385 h -0.279093 v -0.378191 q -0.177973,0.216398 -0.400438,0.325608 -0.220443,0.10921 -0.483356,0.10921 -0.467178,0 -0.798853,-0.337743 -0.329653,-0.339765 -0.329653,-0.825144 0,-0.475267 0.333698,-0.813009 0.333698,-0.337743 0.802897,-0.337743 0.271003,0 0.489424,0.115277 0.220443,0.115278 0.386281,0.345833 V 44.78633 Z m -1.132551,0.216398 q -0.236623,0 -0.436841,0.1173 -0.200219,0.115278 -0.319541,0.325609 -0.1173,0.210331 -0.1173,0.44493 0,0.232578 0.119322,0.444931 0.119322,0.212353 0.319541,0.331676 0.202241,0.1173 0.432796,0.1173 0.232578,0 0.440886,-0.1173 0.208309,-0.1173 0.319541,-0.317519 0.113255,-0.200219 0.113255,-0.450998 0,-0.382236 -0.252801,-0.639082 -0.250779,-0.256847 -0.618858,-0.256847 z m 1.76961,-0.216398 h 0.283138 v 0.394371 q 0.169882,-0.22651 0.376168,-0.337743 0.206286,-0.113255 0.448976,-0.113255 0.246734,0 0.436841,0.125389 0.192129,0.12539 0.283138,0.337743 0.09101,0.212353 0.09101,0.661329 v 1.132551 h -0.281115 v -1.049632 q 0,-0.380214 -0.03236,-0.507626 -0.05056,-0.21842 -0.190106,-0.32763 -0.139547,-0.111233 -0.364035,-0.111233 -0.256846,0 -0.46111,0.169883 -0.202241,0.169882 -0.266958,0.420661 -0.04045,0.163816 -0.04045,0.598634 v 0.806943 h -0.283138 z m 2.772727,-0.817054 h 0.28516 v 0.817054 h 0.448975 v 0.24269 h -0.448975 v 1.957695 h -0.28516 V 45.02902 h -0.386281 v -0.24269 h 0.386281 z m 0.920198,0.817054 h 0.299317 l 0.756382,1.694782 0.734136,-1.694782 h 0.301339 l -1.312545,3.005305 h -0.299317 l 0.424706,-0.970758 z m 2.455208,-0.849413 h 0.28516 v 1.73523 l 1.017273,-0.885817 h 0.416617 l -1.20738,1.049632 1.278164,1.150753 h -0.400437 l -1.104237,-0.98896 v 0.98896 h -0.28516 z"
       id="text1"
       aria-label="tk.romantyk" /><path
       id="path519"
       d="m -290.30105,-2434.8354 v -1.3654 -1.076 c 0,-0.1597 -0.12971,-0.2908 -0.29082,-0.2908 h -3.5159 c -0.15975,0 -0.29083,0.1297 -0.29083,0.2908 v 1.076 1.3654 1.0759 c 0,0.1598 0.12972,0.2909 0.29083,0.2909 h 3.5159 c 0.15975,0 0.29082,-0.1298 0.29082,-0.2909 z m -6.53751,-5.4629 c -0.15976,0 -0.29083,0.131 -0.29083,0.2907 v 1.076 1.3654 1.3654 1.3654 1.3654 1.3654 1.0759 c 0,0.1598 0.12971,0.2908 0.29083,0.2908 h 8.97885 c 0.15974,0 0.29083,-0.1297 0.29083,-0.2908 v -1.0759 -1.3654 -1.3654 -1.3654 -1.3654 -1.3654 -1.076 c 0,-0.1597 -0.12972,-0.2907 -0.29083,-0.2907 z m 7.90292,2.7321 v 1.3654 1.3654 1.3654 1.1988 c 0,0.093 -0.0751,0.1666 -0.16659,0.1666 h -6.49382 c -0.0929,0 -0.16658,-0.075 -0.16658,-0.1666 v -1.1988 -1.3654 -1.3654 -1.3654 -1.1989 c 0,-0.093 0.0751,-0.1665 0.16658,-0.1665 h 6.49382 c 0.0928,0 0.16659,0.075 0.16659,0.1665 z m 28.67331,-27.3079 v -1.3654 -1.076 c 0,-0.1598 -0.1297,-0.2907 -0.29083,-0.2907 h -3.51589 c -0.15975,0 -0.29083,0.1295 -0.29083,0.2907 v 1.076 1.3654 1.0759 c 0,0.1598 0.12972,0.2908 0.29083,0.2908 h 3.51589 c 0.15976,0 0.29083,-0.1297 0.29083,-0.2908 z m -6.53751,-5.463 c -0.15975,0 -0.29083,0.1311 -0.29083,0.2908 v 1.076 1.3653 1.3655 1.3654 1.3654 1.3653 1.0759 c 0,0.1598 0.12971,0.2909 0.29083,0.2909 h 8.97885 c 0.15975,0 0.29083,-0.1297 0.29083,-0.2909 v -1.0759 -1.3653 -1.3654 -1.3654 -1.3655 -1.3653 -1.076 c 0,-0.1597 -0.12972,-0.2908 -0.29083,-0.2908 z m 7.90291,2.7321 v 1.3655 1.3654 1.3654 1.1988 c 0,0.093 -0.0751,0.1665 -0.16658,0.1665 h -6.49382 c -0.0928,0 -0.16658,-0.075 -0.16658,-0.1665 v -1.1988 -1.3654 -1.3654 -1.3655 -1.1988 c 0,-0.093 0.0751,-0.1665 0.16658,-0.1665 h 6.49382 c 0.0929,0 0.16658,0.075 0.16658,0.1665 z m -31.40412,2.7309 v -1.3654 -1.076 c 0,-0.1598 -0.12971,-0.2907 -0.29082,-0.2907 h -3.5159 c -0.15975,0 -0.29083,0.1295 -0.29083,0.2907 v 1.076 1.3654 1.0759 c 0,0.1598 0.12972,0.2908 0.29083,0.2908 h 3.5159 c 0.15975,0 0.29082,-0.1297 0.29082,-0.2908 z m -6.53751,-5.463 c -0.15976,0 -0.29083,0.1311 -0.29083,0.2908 v 1.076 1.3653 1.3655 1.3654 1.3654 1.3653 1.0759 c 0,0.1598 0.12971,0.2909 0.29083,0.2909 h 8.97885 c 0.15974,0 0.29083,-0.1297 0.29083,-0.2909 v -1.0759 -1.3653 -1.3654 -1.3654 -1.3655 -1.3653 -1.076 c 0,-0.1597 -0.12972,-0.2908 -0.29083,-0.2908 z m 7.90292,2.7321 v 1.3655 1.3654 1.3654 1.1988 c 0,0.093 -0.0751,0.1665 -0.16659,0.1665 h -6.49382 c -0.0929,0 -0.16658,-0.075 -0.16658,-0.1665 v -1.1988 -1.3654 -1.3654 -1.3655 -1.1988 c 0,-0.093 0.0751,-0.1665 0.16658,-0.1665 h 6.49382 c 0.0928,0 0.16659,0.075 0.16659,0.1665 z m 26.62522,36.8658 h -0.6827 v -1.3654 h 1.3654 v 0.6827 a 0.6826982,0.6826982 0 0 1 -0.6827,0.6827 z m -0.6827,-1.3654 h -0.68269 a 0.6827,0.6827 0 0 0 0,1.3654 h 0.68269 z m -2.73079,0.6827 v -0.6827 h 0.6827 a 0.6826982,0.6826982 0 0 0 -0.6827,0.6827 z m -0.68269,0.6827 h -0.6827 v -1.3654 h 1.36539 v 0.6827 a 0.6826982,0.6826982 0 0 1 -0.68269,0.6827 z m -0.6827,-1.3654 h -0.6827 a 0.6827,0.6827 0 0 0 0,1.3654 h 0.6827 z m -4.0962,0.6827 a 0.6826982,0.6826982 0 0 0 0.6827,0.6827 v 0 a 0.6827,0.6827 0 0 0 0,-1.3654 v 0 a 0.6826982,0.6826982 0 0 0 -0.6827,0.6827 z m -4.77888,0.6827 h -0.6827 v -1.3654 h 1.3654 v 0.6827 a 0.6826982,0.6826982 0 0 1 -0.6827,0.6827 z m -0.6827,-1.3654 h -0.68269 a 0.6827,0.6827 0 0 0 0,1.3654 h 0.68269 z m -5.46159,0.6827 v -0.6827 h 0.6827 a 0.6826982,0.6826982 0 0 0 -0.6827,0.6827 z m -1.36539,-0.6827 v 0.6827 a 0.68269874,0.68269874 0 0 0 1.36539,0 v 0 -0.6827 z m 0,0.6827 v -0.6827 h -0.6827 a 0.6826982,0.6826982 0 0 1 0.6827,0.6827 z m -1.3654,0 v -0.6827 h 0.6827 a 0.6826982,0.6826982 0 0 0 -0.6827,0.6827 z m -1.36539,-0.6827 v 0.6827 a 0.68269874,0.68269874 0 0 0 1.36539,0 v 0 -0.6827 z m 27.30792,-0.6827 v -0.6827 h 0.68271 a 0.6826982,0.6826982 0 0 0 -0.68271,0.6827 z m -1.3654,-0.6827 v 0.6827 a 0.6827,0.6827 0 0 0 1.3654,0 v 0 -0.6827 z m 0,0.6827 v -0.6827 h -0.68269 a 0.6826982,0.6826982 0 0 1 0.68269,0.6827 z m -1.36539,0 v -0.6827 h 0.6827 a 0.6826982,0.6826982 0 0 0 -0.6827,0.6827 z m -1.3654,-0.6827 h 1.3654 v 1.3654 h -1.3654 z m -0.68269,1.3654 h 0.68269 v -0.6827 a 0.6826982,0.6826982 0 0 1 -0.68269,0.6827 z m -2.0481,0 h 0.6827 a 0.6827,0.6827 0 0 0 0,-1.3654 h -0.6827 z m -1.36539,-1.3654 h 1.36539 v 1.3654 h -1.36539 z m -0.6827,1.3654 h 0.6827 v -0.6827 a 0.6826982,0.6826982 0 0 1 -0.6827,0.6827 z m -4.77889,0 h 0.6827 a 0.6827,0.6827 0 0 0 0,-1.3654 h -0.6827 z m -0.6827,0 h 0.6827 v -1.3654 h -1.3654 v 0.6827 a 0.6826982,0.6826982 0 0 0 0.6827,0.6827 z m -3.41349,-1.3654 h 1.3654 v 1.3654 h -1.3654 z m -0.68269,1.3654 h 0.68269 v -0.6827 a 0.6826982,0.6826982 0 0 1 -0.68269,0.6827 z m -3.4135,-0.6827 v -0.6827 h 0.68271 a 0.6826982,0.6826982 0 0 0 -0.68271,0.6827 z m -0.6827,0.6827 h -0.6827 v -1.3654 h 1.3654 v 0.6827 a 0.6826982,0.6826982 0 0 1 -0.6827,0.6827 z m -2.04809,-1.3654 h 1.36539 v 1.3654 h -1.36539 z m -1.3654,0 h 1.3654 v 1.3654 h -1.3654 z m -1.36539,0.6827 v 0.6827 h 1.36539 v -1.3654 h -0.6827 a 0.6826982,0.6826982 0 0 0 -0.68269,0.6827 z m 27.30792,-0.6827 h 0.68271 a 0.6827,0.6827 0 0 0 0,-1.3654 h -0.68271 z m -1.3654,-1.3654 h 1.3654 v 1.3654 h -1.3654 z m -1.36539,0 h 1.36539 v 1.3654 h -1.36539 z m -1.3654,0 h 1.3654 v 1.3654 h -1.3654 z m 0,0.6827 v -0.6827 h -0.68269 a 0.6826982,0.6826982 0 0 1 0.68269,0.6827 z m -2.73079,0 v 0.6827 h 0.6827 a 0.6826982,0.6826982 0 0 1 -0.6827,-0.6827 z m 0,0.6827 v -0.6827 a 0.6826982,0.6826982 0 0 0 -1.36539,0 v 0 0.6827 z m -6.82698,-0.6827 v 0.6827 h 0.6827 a 0.6826982,0.6826982 0 0 1 -0.6827,-0.6827 z m 0,0.6827 v -0.6827 a 0.6827,0.6827 0 0 0 -1.3654,0 v 0 0.6827 z m -2.73079,0 v -0.6827 a 0.6827,0.6827 0 0 0 -1.3654,0 v 0 0.6827 z m -2.73079,-0.6827 v -0.6827 h 0.6827 a 0.6826982,0.6826982 0 0 0 -0.6827,0.6827 z m -0.68271,0.6827 h -0.68269 v -1.3654 h 1.3654 v 0.6827 a 0.6826982,0.6826982 0 0 1 -0.68271,0.6827 z m -2.04809,-1.3654 h 1.3654 v 1.3654 h -1.3654 z m -1.3654,0.6827 v 0.6827 h 1.3654 v -1.3654 h -0.6827 a 0.6826982,0.6826982 0 0 0 -0.6827,0.6827 z m -1.36539,0 v 0.6827 h 0.68269 a 0.6826982,0.6826982 0 0 1 -0.68269,-0.6827 z m 0.68269,0.6827 h 0.6827 v -0.6827 a 0.6826982,0.6826982 0 0 1 -0.6827,0.6827 z m -2.04809,-1.3654 h 1.3654 v 1.3654 h -1.3654 z m -0.6827,1.3654 h 0.6827 v -0.6827 a 0.6826982,0.6826982 0 0 1 -0.6827,0.6827 z m 0.6827,-0.6827 v -0.6827 h -0.6827 a 0.6826982,0.6826982 0 0 1 0.6827,0.6827 z m 25.94253,-1.3655 v 0.6828 h 0.68271 a 0.6826982,0.6826982 0 0 1 -0.68271,-0.6828 z m -1.3654,-0.6826 h 1.3654 v 1.3654 h -1.3654 z m -1.36539,0 h 1.36539 v 1.3654 h -1.36539 z m -1.3654,0 h 1.3654 v 1.3654 h -1.3654 z m -1.36539,0 h 1.36539 v 1.3654 h -1.36539 z m -0.6827,1.3654 h 0.6827 v -1.3654 h -1.3654 v 0.6826 a 0.6826982,0.6826982 0 0 0 0.6827,0.6828 z m -0.6827,-0.6828 v -0.6826 h -0.68269 a 0.6826982,0.6826982 0 0 1 0.68269,0.6826 z m -1.36539,0 v -0.6826 h 0.6827 a 0.6826982,0.6826982 0 0 0 -0.6827,0.6826 z m -1.3654,-0.6826 v 0.6826 a 0.6827,0.6827 0 0 0 1.3654,0 v 0 -0.6826 z m 0,0.6826 v -0.6826 h -0.68269 a 0.6826982,0.6826982 0 0 1 0.68269,0.6826 z m -1.36539,0 v -0.6826 h 0.6827 a 0.6826982,0.6826982 0 0 0 -0.6827,0.6826 z m -1.36541,-0.6826 v 0.6826 a 0.682705,0.682705 0 0 0 1.36541,0 v 0 -0.6826 z m 0,0.6826 v -0.6826 h -0.68269 a 0.6826982,0.6826982 0 0 1 0.68269,0.6826 z m -2.73079,0 v -0.6826 h 0.6827 a 0.6826982,0.6826982 0 0 0 -0.6827,0.6826 z m -1.36539,-0.6826 v 0.6826 a 0.6826982,0.6826982 0 0 0 1.36539,0 v 0 -0.6826 z m 0,0.6826 v -0.6826 h -0.6827 a 0.6826982,0.6826982 0 0 1 0.6827,0.6826 z m -2.73079,0.6828 h 0.6827 a 0.68273988,0.68273988 0 0 0 0,-1.3654 h -0.6827 z m -1.3654,-1.3654 h 1.3654 v 1.3654 h -1.3654 z m -0.68269,1.3654 h 0.68269 v -0.6828 a 0.6826982,0.6826982 0 0 1 -0.68269,0.6828 z m 0.68269,-0.6828 v -0.6826 h -0.68269 a 0.6826982,0.6826982 0 0 1 0.68269,0.6826 z m -4.09619,0 v 0.6828 h -1.3654 v -1.3654 h 0.6827 a 0.6826982,0.6826982 0 0 1 0.6827,0.6826 z m -2.0481,0.6828 h 0.6827 v -1.3654 h -1.36539 v 0.6826 a 0.6826982,0.6826982 0 0 0 0.68269,0.6828 z m 26.62523,-1.3654 v -0.6827 a 0.6827,0.6827 0 0 0 -1.3654,0 v 0 0.6827 z m -2.04809,0 h 0.68269 v -0.6827 a 0.6826982,0.6826982 0 0 1 -0.68269,0.6827 z m -2.0481,-0.6827 v 0.6827 h 0.6827 a 0.6826982,0.6826982 0 0 1 -0.6827,-0.6827 z m 0,0 v -0.6827 h 0.6827 a 0.6826982,0.6826982 0 0 0 -0.6827,0.6827 z m -1.36539,-0.6827 h 1.36539 v 1.3654 h -1.36539 z m -1.3654,0 h 1.3654 v 1.3654 h -1.3654 z m -1.36539,0 h 1.36539 v 1.3654 h -1.36539 z m -1.3654,0 h 1.3654 v 1.3654 h -1.3654 z m -1.36539,0 h 1.36539 v 1.3654 h -1.36539 z m -1.36541,0 h 1.36541 v 1.3654 h -1.36541 z m -1.36539,0 h 1.36539 v 1.3654 h -1.36539 z m -1.3654,0 h 1.3654 v 1.3654 h -1.3654 z m -1.36539,0 h 1.36539 v 1.3654 h -1.36539 z m -0.6827,1.3654 h 0.6827 v -1.3654 h -1.3654 v 0.6827 a 0.6826982,0.6826982 0 0 0 0.6827,0.6827 z m -2.04809,-0.6827 v 0.6827 h 0.6827 a 0.6826982,0.6826982 0 0 1 -0.6827,-0.6827 z m -1.3654,-0.6827 h 1.3654 v 1.3654 h -1.3654 z m -1.3654,0 h 1.3654 v 1.3654 h -1.3654 z m -1.3654,0 h 1.3654 v 1.3654 h -1.3654 z m 0,0 h -0.6827 a 0.6827,0.6827 0 0 0 0,1.3654 h 0.6827 z m -2.73079,0.6827 v 0.6827 h 0.6827 a 0.6826982,0.6826982 0 0 1 -0.6827,-0.6827 z m 0,0.6827 v -0.6827 a 0.68269874,0.68269874 0 0 0 -1.36539,0 v 0 0.6827 z m 23.21174,-1.3654 h 0.6827 a 0.6827,0.6827 0 0 0 0,-1.3654 h -0.6827 z m -1.3654,-1.3654 h 1.3654 v 1.3654 h -1.3654 z m -1.36539,0 h 1.36539 v 1.3654 h -1.36539 z m -0.6827,1.3654 h 0.6827 v -0.6827 a 0.6826982,0.6826982 0 0 1 -0.6827,0.6827 z m -3.41349,-0.6827 v 0.6827 h 0.6827 a 0.6826982,0.6826982 0 0 1 -0.6827,-0.6827 z m -1.36539,-0.6827 h 1.36539 v 1.3654 h -1.36539 z m -1.36541,0.6827 v 0.6827 h 0.6827 a 0.6826982,0.6826982 0 0 1 -0.6827,-0.6827 z m 0.6827,0.6827 h 0.68271 v -0.6827 a 0.6826982,0.6826982 0 0 1 -0.68271,0.6827 z m 0.68271,-0.6827 v -0.6827 h -0.68271 a 0.6826982,0.6826982 0 0 1 0.68271,0.6827 z m -1.36541,0 v 0.6827 h -1.36539 v -1.3654 h 0.6827 a 0.6826982,0.6826982 0 0 1 0.68269,0.6827 z m -2.73079,0 v 0.6827 h 1.3654 v -1.3654 h -0.6827 a 0.6826982,0.6826982 0 0 0 -0.6827,0.6827 z m -1.36539,0 v 0.6827 h 0.6827 a 0.6826982,0.6826982 0 0 1 -0.6827,-0.6827 z m 0.6827,0.6827 h 0.68269 v -0.6827 a 0.6826982,0.6826982 0 0 1 -0.68269,0.6827 z m -0.6827,0 v -0.6827 a 0.6827,0.6827 0 0 0 -1.3654,0 v 0 0.6827 z m -4.09619,-1.3654 h 1.3654 v 1.3654 h -1.3654 z m -1.3654,0 h 1.3654 v 1.3654 h -1.3654 z m -1.3654,0 h 1.3654 v 1.3654 h -1.3654 z m -0.6827,1.3654 h 0.6827 v -0.6827 a 0.6826982,0.6826982 0 0 1 -0.6827,0.6827 z m 0.6827,-0.6827 v -0.6827 h -0.6827 a 0.6826982,0.6826982 0 0 1 0.6827,0.6827 z m -2.73079,0 a 0.6826982,0.6826982 0 0 0 0.6827,0.6827 v 0 a 0.6827,0.6827 0 0 0 0,-1.3654 v 0 a 0.6826982,0.6826982 0 0 0 -0.6827,0.6827 z m 21.84634,-1.3654 v 0.6827 h 0.6827 a 0.6826982,0.6826982 0 0 1 -0.6827,-0.6827 z m -1.36539,-0.6827 h 1.36539 v 1.3654 h -1.36539 z m -2.73079,0.6827 a 0.6826982,0.6826982 0 0 0 0.6827,0.6827 v 0 a 0.6827,0.6827 0 0 0 0,-1.3654 v 0 a 0.6826982,0.6826982 0 0 0 -0.6827,0.6827 z m -2.73079,-0.6827 h 1.36539 v 1.3654 h -1.36539 z m -0.68271,1.3654 h 0.68271 v -1.3654 h -1.36541 v 0.6827 a 0.6826982,0.6826982 0 0 0 0.6827,0.6827 z m -4.77888,-1.3654 v 0.6827 a 0.6826982,0.6826982 0 0 0 1.36539,0 v 0 -0.6827 z m -4.09619,0 h 1.3654 v 1.3654 h -1.3654 z m -1.3654,0.6827 v 0.6827 h 0.68271 a 0.6826982,0.6826982 0 0 1 -0.68271,-0.6827 z m 0.68271,0.6827 h 0.68269 v -0.6827 a 0.6826982,0.6826982 0 0 1 -0.68269,0.6827 z m 0.68269,-0.6827 v -0.6827 h -0.68269 a 0.6826982,0.6826982 0 0 1 0.68269,0.6827 z m -1.3654,0 v 0.6827 h -1.3654 v -1.3654 h 0.6827 a 0.6826982,0.6826982 0 0 1 0.6827,0.6827 z m -2.0481,0.6827 h 0.6827 v -1.3654 h -1.36539 v 0.6827 a 0.6826982,0.6826982 0 0 0 0.68269,0.6827 z m 23.89444,-2.7308 v 0.6826 a 0.68270282,0.68270282 0 0 0 1.3654,0 v 0 -0.6826 z m 0,0.6826 v -0.6826 h -0.6827 a 0.6826982,0.6826982 0 0 1 0.6827,0.6826 z m -1.3654,0 v -0.6826 h 0.6827 a 0.6826982,0.6826982 0 0 0 -0.6827,0.6826 z m -1.36539,-0.6826 v 0.6826 a 0.68269874,0.68269874 0 0 0 1.36539,0 v 0 -0.6826 z m 0,0.6826 v -0.6826 h -0.6827 a 0.6826982,0.6826982 0 0 1 0.6827,0.6826 z m -1.3654,0 v -0.6826 h 0.6827 a 0.6826982,0.6826982 0 0 0 -0.6827,0.6826 z m -1.36539,-0.6826 h 1.36539 v 1.3654 h -1.36539 z m 0,0.6826 v -0.6826 h -0.6827 a 0.6826982,0.6826982 0 0 1 0.6827,0.6826 z m -4.09619,0 v -0.6826 h 0.6827 a 0.6826982,0.6826982 0 0 0 -0.6827,0.6826 z m -1.36539,-0.6826 h 1.36539 v 1.3654 h -1.36539 z m -1.36541,0 h 1.36541 v 1.3654 h -1.36541 z m -2.73079,1.3654 v -0.6828 a 0.6826982,0.6826982 0 0 0 -1.36539,0 v 0 0.6828 z m -5.46158,-1.3654 h 1.3654 v 1.3654 h -1.3654 z m 0,0 h -0.68269 a 0.68273988,0.68273988 0 0 0 0,1.3654 h 0.68269 z m -2.7308,0.6826 v 0.6828 h 0.6827 a 0.6826982,0.6826982 0 0 1 -0.6827,-0.6828 z m 0,0.6828 v -0.6828 a 0.68269874,0.68269874 0 0 0 -1.36539,0 v 0 0.6828 z m -4.09618,-1.3654 v 0.6826 a 0.68269874,0.68269874 0 0 0 1.36539,0 v 0 -0.6826 z m 0,0.6826 v -0.6826 h -0.6827 a 0.6826982,0.6826982 0 0 1 0.6827,0.6826 z m 28.67332,-1.3653 v 0.6827 h -1.3654 v -1.3654 h 0.68271 a 0.6826982,0.6826982 0 0 1 0.68269,0.6827 z m -2.7308,-0.6827 h 1.3654 v 1.3654 h -1.3654 z m -1.36539,0 h 1.36539 v 1.3654 h -1.36539 z m -1.3654,0 h 1.3654 v 1.3654 h -1.3654 z m -1.36539,0 h 1.36539 v 1.3654 h -1.36539 z m -1.3654,0 h 1.3654 v 1.3654 h -1.3654 z m -1.36539,0 h 1.36539 v 1.3654 h -1.36539 z m -1.3654,0 h 1.3654 v 1.3654 h -1.3654 z m -1.36539,0 h 1.36539 v 1.3654 h -1.36539 z m -1.36541,0.6827 v 0.6827 h 1.36541 v -1.3654 h -0.68271 a 0.6826982,0.6826982 0 0 0 -0.6827,0.6827 z m -4.09618,0 v -0.6827 h 0.6827 a 0.6826982,0.6826982 0 0 0 -0.6827,0.6827 z m -1.3654,-0.6827 v 0.6827 a 0.6827,0.6827 0 0 0 1.3654,0 v 0 -0.6827 z m -2.73079,0 h 1.3654 v 1.3654 h -1.3654 z m -0.68269,1.3654 h 0.68269 v -0.6827 a 0.6826982,0.6826982 0 0 1 -0.68269,0.6827 z m -2.04811,-1.3654 v 0.6827 a 0.6827,0.6827 0 0 0 1.3654,0 v 0 -0.6827 z m -2.73079,0.6827 v -0.6827 h 0.6827 a 0.6826982,0.6826982 0 0 0 -0.6827,0.6827 z m -1.36539,-0.6827 h 1.36539 v 1.3654 h -1.36539 z m -1.3654,0 h 1.3654 v 1.3654 h -1.3654 z m -1.36539,0 h 1.36539 v 1.3654 h -1.36539 z m -1.36541,0 h 1.36541 v 1.3654 h -1.36541 z m -1.36539,0 h 1.36539 v 1.3654 h -1.36539 z m -0.6827,1.3654 h 0.6827 v -1.3654 h -1.3654 v 0.6827 a 0.6826982,0.6826982 0 0 0 0.6827,0.6827 z m -0.6827,-0.6827 v -0.6827 h -0.6827 a 0.6826982,0.6826982 0 0 1 0.6827,0.6827 z m -1.36539,0 v -0.6827 h 0.68269 a 0.6826982,0.6826982 0 0 0 -0.68269,0.6827 z m -0.6827,0.6827 h -0.6827 v -1.3654 h 1.3654 v 0.6827 a 0.6826982,0.6826982 0 0 1 -0.6827,0.6827 z m -1.3654,0 h 0.6827 v -1.3654 h -1.36539 v 0.6827 a 0.6826982,0.6826982 0 0 0 0.68269,0.6827 z m 37.5484,-2.0481 v 0.6827 h 0.68271 a 0.6826982,0.6826982 0 0 1 -0.68271,-0.6827 z m 0,0.6827 v -0.6827 a 0.6827,0.6827 0 0 0 -1.3654,0 v 0 0.6827 z m -2.73079,-0.6827 v 0.6827 h 0.6827 a 0.6826982,0.6826982 0 0 1 -0.6827,-0.6827 z m 0.6827,0.6827 h 0.68269 v -0.6827 a 0.6826982,0.6826982 0 0 1 -0.68269,0.6827 z m -0.6827,-0.6827 v 0.6827 h -1.3654 v -1.3654 h 0.6827 a 0.6826982,0.6826982 0 0 1 0.6827,0.6827 z m -2.73079,-0.6827 h 1.36539 v 1.3654 h -1.36539 z m -1.3654,0 h 1.3654 v 1.3654 h -1.3654 z m -1.36539,0 h 1.36539 v 1.3654 h -1.36539 z m -0.6827,1.3654 h 0.6827 v -0.6827 a 0.6826982,0.6826982 0 0 1 -0.6827,0.6827 z m -4.77889,0 h 0.6827 a 0.6827,0.6827 0 0 0 0,-1.3654 h -0.6827 z m -1.3654,-1.3654 h 1.3654 v 1.3654 h -1.3654 z m -1.36539,0 h 1.36539 v 1.3654 h -1.36539 z m -1.3654,0.6827 v 0.6827 h 1.3654 v -1.3654 h -0.6827 a 0.6826982,0.6826982 0 0 0 -0.6827,0.6827 z m -1.36539,0 v -0.6827 h 0.6827 a 0.6826982,0.6826982 0 0 0 -0.6827,0.6827 z m -1.3654,-0.6827 h 1.3654 v 1.3654 h -1.3654 z m 0,0.6827 v -0.6827 h -0.68269 a 0.6826982,0.6826982 0 0 1 0.68269,0.6827 z m -1.3654,0.6827 v -0.6827 a 0.6827,0.6827 0 0 0 -1.3654,0 v 0 0.6827 z m -3.41349,0 h -0.6827 v -1.3654 h 1.3654 v 0.6827 a 0.6826982,0.6826982 0 0 1 -0.6827,0.6827 z m -2.04809,-1.3654 h 1.36539 v 1.3654 h -1.36539 z m -1.3654,0 h 1.3654 v 1.3654 h -1.3654 z m -1.36539,0.6827 v 0.6827 h 0.68269 a 0.6826982,0.6826982 0 0 1 -0.68269,-0.6827 z m 0.68269,0.6827 h 0.6827 v -0.6827 a 0.6826982,0.6826982 0 0 1 -0.6827,0.6827 z m 0.6827,-0.6827 v -0.6827 h -0.6827 a 0.6826982,0.6826982 0 0 1 0.6827,0.6827 z m -1.36539,0 v -0.6827 h 0.68269 a 0.6826982,0.6826982 0 0 0 -0.68269,0.6827 z m -1.36541,-0.6827 h 1.36541 v 1.3654 h -1.36541 z m -1.36539,0.6827 v 0.6827 h 0.68269 a 0.6826982,0.6826982 0 0 1 -0.68269,-0.6827 z m 0.68269,0.6827 h 0.6827 v -0.6827 a 0.6826982,0.6826982 0 0 1 -0.6827,0.6827 z m 0.6827,-0.6827 v -0.6827 h -0.6827 a 0.6826982,0.6826982 0 0 1 0.6827,0.6827 z m -1.36539,0 v 0.6827 h -1.3654 v -1.3654 h 0.6827 a 0.6826982,0.6826982 0 0 1 0.6827,0.6827 z m -2.73079,-0.6827 h 1.36539 v 1.3654 h -1.36539 z m -1.3654,0 h 1.3654 v 1.3654 h -1.3654 z m -1.36539,0 h 1.36539 v 1.3654 h -1.36539 z m 32.76951,-0.6827 v 0.6827 h 0.6827 a 0.6826982,0.6826982 0 0 1 -0.6827,-0.6827 z m 0,0 v 0.6827 h -1.3654 v -1.3654 h 0.6827 a 0.6826982,0.6826982 0 0 1 0.6827,0.6827 z m -2.73079,0 v 0.6827 h 1.36539 v -1.3654 h -0.68269 a 0.6826982,0.6826982 0 0 0 -0.6827,0.6827 z m -2.73079,-0.6827 v 0.6827 a 0.6826982,0.6826982 0 0 0 1.36539,0 v 0 -0.6827 z m 0,0.6827 v -0.6827 h -0.68271 a 0.6826982,0.6826982 0 0 1 0.68271,0.6827 z m -4.0962,0 v 0.6827 h 0.6827 a 0.6826982,0.6826982 0 0 1 -0.6827,-0.6827 z m 0,0 v -0.6827 h 0.6827 a 0.6826982,0.6826982 0 0 0 -0.6827,0.6827 z m -1.36539,-0.6827 h 1.36539 v 1.3654 h -1.36539 z m -0.6827,1.3654 h 0.6827 v -0.6827 a 0.6826982,0.6826982 0 0 1 -0.6827,0.6827 z m 0.6827,-0.6827 v -0.6827 h -0.6827 a 0.6826982,0.6826982 0 0 1 0.6827,0.6827 z m -2.73079,0.6827 h 0.6827 a 0.6827,0.6827 0 0 0 0,-1.3654 h -0.6827 z m -1.3654,-1.3654 h 1.3654 v 1.3654 h -1.3654 z m 0,0 h -0.68269 a 0.6827,0.6827 0 0 0 0,1.3654 h 0.68269 z m -5.46159,0 h 1.3654 v 1.3654 h -1.3654 z m -1.36539,0.6827 v 0.6827 h 0.68269 a 0.6826982,0.6826982 0 0 1 -0.68269,-0.6827 z m 0.68269,0.6827 h 0.6827 v -0.6827 a 0.6826982,0.6826982 0 0 1 -0.6827,0.6827 z m 0.6827,-0.6827 v -0.6827 h -0.6827 a 0.6826982,0.6826982 0 0 1 0.6827,0.6827 z m -1.36539,0 v -0.6827 h 0.68269 a 0.6826982,0.6826982 0 0 0 -0.68269,0.6827 z m -1.3654,-0.6827 h 1.3654 v 1.3654 h -1.3654 z m -1.36539,0 h 1.36539 v 1.3654 h -1.36539 z m -1.36541,0 h 1.36541 v 1.3654 h -1.36541 z m -0.6827,1.3654 h 0.6827 v -1.3654 h -1.36539 v 0.6827 a 0.6826982,0.6826982 0 0 0 0.68269,0.6827 z m -3.41348,-0.6827 v 0.6827 h 0.68269 a 0.6826982,0.6826982 0 0 1 -0.68269,-0.6827 z m 0,0 v -0.6827 h 0.68269 a 0.6826982,0.6826982 0 0 0 -0.68269,0.6827 z m -1.3654,-0.6827 h 1.3654 v 1.3654 h -1.3654 z m -1.36539,0 h 1.36539 v 1.3654 h -1.36539 z m 36.86569,-0.6827 a 0.6826982,0.6826982 0 0 0 0.6827,0.6827 v 0 a 0.68275,0.68275 0 0 0 0,-1.3655 v 0 a 0.6826982,0.6826982 0 0 0 -0.6827,0.6828 z m -8.19237,0 v 0.6827 h -1.36539 v -1.3655 h 0.6827 a 0.6826982,0.6826982 0 0 1 0.68269,0.6828 z m -1.36539,-0.6828 h -0.68271 a 0.68275,0.68275 0 0 0 0,1.3655 h 0.68271 z m -4.0962,1.3655 h 0.6827 a 0.68275,0.68275 0 0 0 0,-1.3655 h -0.6827 z m -1.36539,-1.3655 h 1.36539 v 1.3655 h -1.36539 z m -0.6827,1.3655 h 0.6827 v -1.3655 h -1.3654 v 0.6828 a 0.6826982,0.6826982 0 0 0 0.6827,0.6827 z m -4.77889,-0.6827 v -0.6828 h 0.68271 a 0.6826982,0.6826982 0 0 0 -0.68271,0.6828 z m -1.3654,-0.6828 v 0.6828 a 0.6827,0.6827 0 0 0 1.3654,0 v 0 -0.6828 z m -1.36539,0.6828 v 0.6827 h -1.3654 v -1.3655 h 0.6827 a 0.6826982,0.6826982 0 0 1 0.6827,0.6828 z m -2.73079,-0.6828 h 1.36539 v 1.3655 h -1.36539 z m -1.3654,0 h 1.3654 v 1.3655 h -1.3654 z m -1.36539,0.6828 v 0.6827 h 0.68269 a 0.6826982,0.6826982 0 0 1 -0.68269,-0.6827 z m 0.68269,0.6827 h 0.6827 v -0.6827 a 0.6826982,0.6826982 0 0 1 -0.6827,0.6827 z m 0.6827,-0.6827 v -0.6828 h -0.6827 a 0.6826982,0.6826982 0 0 1 0.6827,0.6828 z m -1.36539,0 v 0.6827 h -1.36541 v -1.3655 h 0.6827 a 0.6826982,0.6826982 0 0 1 0.68271,0.6828 z m -2.7308,0 v 0.6827 h 1.36539 v -1.3655 h -0.6827 a 0.6826982,0.6826982 0 0 0 -0.68269,0.6828 z m -1.3654,0 v -0.6828 h 0.6827 a 0.6826982,0.6826982 0 0 0 -0.6827,0.6828 z m -0.6827,0.6827 h -0.68269 v -1.3655 h 1.36539 v 0.6828 a 0.6826982,0.6826982 0 0 1 -0.6827,0.6827 z m -2.04809,-1.3655 h 1.3654 v 1.3655 h -1.3654 z m -1.36539,0.6828 v 0.6827 h 1.36539 v -1.3655 h -0.6827 a 0.6826982,0.6826982 0 0 0 -0.68269,0.6828 z m 35.5003,-2.0481 v 0.6827 a 0.68269874,0.68269874 0 0 0 1.36539,0 v 0 -0.6827 z m -6.82698,0.6827 a 0.6826982,0.6826982 0 0 0 0.6827,0.6826 v 0 a 0.6826982,0.6826982 0 0 0 0,-1.3653 v 0 a 0.6826982,0.6826982 0 0 0 -0.6827,0.6827 z m -5.46159,0 v 0.6826 h 0.6827 a 0.6826982,0.6826982 0 0 1 -0.6827,-0.6826 z m 0,0 v -0.6827 h 0.6827 a 0.6826982,0.6826982 0 0 0 -0.6827,0.6827 z m -1.36539,-0.6827 h 1.36539 v 1.3653 h -1.36539 z m -1.3654,0.6827 v 0.6826 h 1.3654 v -1.3653 h -0.6827 a 0.6826982,0.6826982 0 0 0 -0.6827,0.6827 z m -2.73079,0 v -0.6827 h 0.68269 a 0.6826982,0.6826982 0 0 0 -0.68269,0.6827 z m -0.68269,0.6826 h -0.68271 v -1.3653 h 1.3654 v 0.6827 a 0.6826982,0.6826982 0 0 1 -0.68269,0.6826 z m -2.04811,-0.6826 v 0.6826 h 1.3654 v -1.3653 h -0.6827 a 0.6826982,0.6826982 0 0 0 -0.6827,0.6827 z m -2.73079,0 v 0.6826 h 0.6827 a 0.6826982,0.6826982 0 0 1 -0.6827,-0.6826 z m 0,0 v 0.6826 h -1.36539 v -1.3653 h 0.68269 a 0.6826982,0.6826982 0 0 1 0.6827,0.6827 z m -2.73079,-0.6827 h 1.3654 v 1.3653 h -1.3654 z m 0,0 h -0.6827 a 0.6826982,0.6826982 0 0 0 0,1.3653 h 0.6827 z m -5.46159,1.3653 h 0.6827 a 0.6826982,0.6826982 0 0 0 0,-1.3653 h -0.6827 z m -1.36539,-1.3653 h 1.36539 v 1.3653 h -1.36539 z m -1.3654,0 h 1.3654 v 1.3653 h -1.3654 z m -0.6827,1.3653 h 0.6827 v -0.6826 a 0.6826982,0.6826982 0 0 1 -0.6827,0.6826 z m 36.183,-2.048 v -0.6827 h 0.6827 a 0.6826982,0.6826982 0 0 0 -0.6827,0.6827 z m -1.36539,-0.6827 h 1.36539 v 1.3654 h -1.36539 z m -2.73079,1.3654 h 0.6827 a 0.6827,0.6827 0 0 0 0,-1.3654 h -0.6827 z m -0.6827,0 h 0.6827 v -1.3654 h -1.3654 v 0.6827 a 0.6826982,0.6826982 0 0 0 0.6827,0.6827 z m -0.6827,-0.6827 v -0.6827 h -0.68269 a 0.6826982,0.6826982 0 0 1 0.68269,0.6827 z m -5.46159,0.6827 h 0.6827 a 0.6827,0.6827 0 0 0 0,-1.3654 h -0.6827 z m -1.36539,-1.3654 h 1.36539 v 1.3654 h -1.36539 z m -1.3654,0 h 1.3654 v 1.3654 h -1.3654 z m -1.36539,0 h 1.36539 v 1.3654 h -1.36539 z m -0.6827,1.3654 h 0.6827 v -0.6827 a 0.6826982,0.6826982 0 0 1 -0.6827,0.6827 z m 0.6827,-0.6827 v -0.6827 h -0.6827 a 0.6826982,0.6826982 0 0 1 0.6827,0.6827 z m -1.3654,0 v -0.6827 h 0.6827 a 0.6826982,0.6826982 0 0 0 -0.6827,0.6827 z m -0.68269,0.6827 h -0.6827 v -1.3654 h 1.36539 v 0.6827 a 0.6826982,0.6826982 0 0 1 -0.68269,0.6827 z m -2.0481,-1.3654 h 1.3654 v 1.3654 h -1.3654 z m -1.3654,0.6827 v 0.6827 h 1.3654 v -1.3654 h -0.68269 a 0.6826982,0.6826982 0 0 0 -0.68271,0.6827 z m -0.6827,0.6827 h 0.6827 v -0.6827 a 0.6826982,0.6826982 0 0 1 -0.6827,0.6827 z m -2.04809,0 h 0.68269 a 0.6827,0.6827 0 0 0 0,-1.3654 h -0.68269 z m -0.6827,0 h 0.6827 v -1.3654 h -1.3654 v 0.6827 a 0.6826982,0.6826982 0 0 0 0.6827,0.6827 z m -2.04809,-0.6827 v 0.6827 h 0.68269 a 0.6826982,0.6826982 0 0 1 -0.68269,-0.6827 z m -1.3654,-0.6827 h 1.3654 v 1.3654 h -1.3654 z m -0.6827,1.3654 h 0.6827 v -0.6827 a 0.6826982,0.6826982 0 0 1 -0.6827,0.6827 z m 0.6827,-0.6827 v -0.6827 h -0.6827 a 0.6826982,0.6826982 0 0 1 0.6827,0.6827 z m -4.09619,0 a 0.6826982,0.6826982 0 0 0 0.68269,0.6827 v 0 a 0.6827,0.6827 0 0 0 0,-1.3654 v 0 a 0.6826982,0.6826982 0 0 0 -0.68269,0.6827 z m -1.3654,0 v 0.6827 h 0.6827 a 0.6826982,0.6826982 0 0 1 -0.6827,-0.6827 z m 0,0 v 0.6827 h -1.36539 v -1.3654 h 0.68269 a 0.6826982,0.6826982 0 0 1 0.6827,0.6827 z m -2.73079,0 v 0.6827 h 1.3654 v -1.3654 h -0.6827 a 0.6826982,0.6826982 0 0 0 -0.6827,0.6827 z m 35.5003,-0.6827 h 0.6827 a 0.6827,0.6827 0 0 0 0,-1.3654 h -0.6827 z m -1.36539,-1.3654 h 1.36539 v 1.3654 h -1.36539 z m -2.73079,0.6827 v 0.6827 h 0.6827 a 0.6826982,0.6826982 0 0 1 -0.6827,-0.6827 z m 0,0 v -0.6827 h 0.6827 a 0.6826982,0.6826982 0 0 0 -0.6827,0.6827 z m -1.3654,-0.6827 h 1.3654 v 1.3654 h -1.3654 z m 0,0 h -0.68269 a 0.6827,0.6827 0 0 0 0,1.3654 h 0.68269 z m -6.82698,0.6827 v 0.6827 h 0.6827 a 0.6826982,0.6826982 0 0 1 -0.6827,-0.6827 z m 0,0 v 0.6827 h -1.3654 v -1.3654 h 0.6827 a 0.6826982,0.6826982 0 0 1 0.6827,0.6827 z m -2.73079,-0.6827 h 1.36539 v 1.3654 h -1.36539 z m -1.3654,0 h 1.3654 v 1.3654 h -1.3654 z m -1.36539,0.6827 v 0.6827 h 1.36539 v -1.3654 h -0.68269 a 0.6826982,0.6826982 0 0 0 -0.6827,0.6827 z m -0.68271,0.6827 h 0.68271 v -0.6827 a 0.6826982,0.6826982 0 0 1 -0.68271,0.6827 z m -4.77888,-0.6827 v 0.6827 h 0.68269 a 0.6826982,0.6826982 0 0 1 -0.68269,-0.6827 z m 0,0.6827 v -0.6827 a 0.6827,0.6827 0 0 0 -1.3654,0 v 0 0.6827 z m -2.73079,-0.6827 v 0.6827 h -1.3654 v -1.3654 h 0.6827 a 0.6826982,0.6826982 0 0 1 0.6827,0.6827 z m -1.3654,-0.6827 h -0.6827 a 0.6827,0.6827 0 0 0 0,1.3654 h 0.6827 z m -4.09619,0.6827 v -0.6827 h 0.68269 a 0.6826982,0.6826982 0 0 0 -0.68269,0.6827 z m -1.3654,-0.6827 v 0.6827 a 0.6827,0.6827 0 0 0 1.3654,0 v 0 -0.6827 z m 32.76951,-0.6827 v 0.6827 h 0.6827 a 0.6826982,0.6826982 0 0 1 -0.6827,-0.6827 z m -1.36539,-0.6826 h 1.36539 v 1.3653 h -1.36539 z m 0,0.6826 v -0.6826 h -0.6827 a 0.6826982,0.6826982 0 0 1 0.6827,0.6826 z m -1.3654,0 v -0.6826 h 0.6827 a 0.6826982,0.6826982 0 0 0 -0.6827,0.6826 z m -0.68269,0.6827 h -0.6827 v -1.3653 h 1.36539 v 0.6826 a 0.6826982,0.6826982 0 0 1 -0.68269,0.6827 z m -2.0481,-0.6827 v 0.6827 h 1.3654 v -1.3653 h -0.6827 a 0.6826982,0.6826982 0 0 0 -0.6827,0.6826 z m -0.68269,0.6827 h 0.68269 v -0.6827 a 0.6826982,0.6826982 0 0 1 -0.68269,0.6827 z m -2.0481,-0.6827 a 0.6826982,0.6826982 0 0 0 0.6827,0.6827 v 0 a 0.68270813,0.68270813 0 0 0 0,-1.3653 v 0 a 0.6826982,0.6826982 0 0 0 -0.6827,0.6826 z m -2.0481,0.6827 h -0.6827 v -1.3653 h 1.36541 v 0.6826 a 0.6826982,0.6826982 0 0 1 -0.68271,0.6827 z m -1.36539,0 h 0.68269 v -1.3653 h -1.36539 v 0.6826 a 0.6826982,0.6826982 0 0 0 0.6827,0.6827 z m -8.87508,-0.6827 a 0.6826982,0.6826982 0 0 0 0.68271,0.6827 v 0 a 0.68270813,0.68270813 0 0 0 0,-1.3653 v 0 a 0.6826982,0.6826982 0 0 0 -0.68271,0.6826 z m -2.73079,-0.6826 v 0.6826 a 0.68269874,0.68269874 0 0 0 1.36539,0 v 0 -0.6826 z m 0,0.6826 v -0.6826 h -0.6827 a 0.6826982,0.6826982 0 0 1 0.6827,0.6826 z m -2.73079,0 a 0.6826982,0.6826982 0 0 0 0.68269,0.6827 v 0 a 0.68270813,0.68270813 0 0 0 0,-1.3653 v 0 a 0.6826982,0.6826982 0 0 0 -0.68269,0.6826 z m -4.7789,0.6827 h -0.68269 v -1.3653 h 1.36539 v 0.6826 a 0.6826982,0.6826982 0 0 1 -0.6827,0.6827 z m -2.04809,-1.3653 h 1.3654 v 1.3653 h -1.3654 z m 0,0.6826 v -0.6826 h -0.6827 a 0.6826982,0.6826982 0 0 1 0.6827,0.6826 z m -2.73079,0.6827 h 0.6827 a 0.68270813,0.68270813 0 0 0 0,-1.3653 h -0.6827 z m -0.6827,0 h 0.6827 v -1.3653 h -1.36539 v 0.6826 a 0.6826982,0.6826982 0 0 0 0.68269,0.6827 z m 37.5484,-2.048 a 0.6826982,0.6826982 0 0 0 0.68271,0.6827 v 0 a 0.68275,0.68275 0 0 0 0,-1.3655 v 0 a 0.6826982,0.6826982 0 0 0 -0.68271,0.6828 z m -1.3654,0 v 0.6827 h -1.36539 v -1.3655 h 0.6827 a 0.6826982,0.6826982 0 0 1 0.68269,0.6828 z m -2.73079,-0.6828 h 1.3654 v 1.3655 h -1.3654 z m -1.36539,0 h 1.36539 v 1.3655 h -1.36539 z m -0.6827,1.3655 h 0.6827 v -0.6827 a 0.6826982,0.6826982 0 0 1 -0.6827,0.6827 z m -2.04809,-0.6827 a 0.6826982,0.6826982 0 0 0 0.6827,0.6827 v 0 a 0.68275,0.68275 0 0 0 0,-1.3655 v 0 a 0.6826982,0.6826982 0 0 0 -0.6827,0.6828 z m -4.0962,-0.6828 h 1.36541 v 1.3655 h -1.36541 z m -1.36539,0.6828 v 0.6827 h 1.36539 v -1.3655 h -0.68269 a 0.6826982,0.6826982 0 0 0 -0.6827,0.6828 z m -2.73079,0 a 0.6826982,0.6826982 0 0 0 0.6827,0.6827 v 0 a 0.68275,0.68275 0 0 0 0,-1.3655 v 0 a 0.6826982,0.6826982 0 0 0 -0.6827,0.6828 z m -1.3654,0 v -0.6828 h 0.6827 a 0.6826982,0.6826982 0 0 0 -0.6827,0.6828 z m -0.68269,0.6827 h -0.6827 v -1.3655 h 1.36539 v 0.6828 a 0.6826982,0.6826982 0 0 1 -0.68269,0.6827 z m -0.6827,-1.3655 h -0.68271 a 0.68275,0.68275 0 0 0 0,1.3655 h 0.68271 z m -4.0962,0.6828 v 0.6827 h -1.36539 v -1.3655 h 0.68269 a 0.6826982,0.6826982 0 0 1 0.6827,0.6828 z m -1.36539,-0.6828 h -0.6827 a 0.68275,0.68275 0 0 0 0,1.3655 h 0.6827 z m -4.09619,1.3655 h 0.6827 a 0.68275,0.68275 0 0 0 0,-1.3655 h -0.6827 z m 0,-1.3655 h -0.6827 a 0.68275,0.68275 0 0 0 0,1.3655 h 0.6827 z m -2.7308,0.6828 v -0.6828 h 0.6827 a 0.6826982,0.6826982 0 0 0 -0.6827,0.6828 z m -1.36539,-0.6828 h 1.36539 v 1.3655 h -1.36539 z m -1.3654,0 h 1.3654 v 1.3655 h -1.3654 z m -0.6827,1.3655 h 0.6827 v -1.3655 h -1.36539 v 0.6828 a 0.6826982,0.6826982 0 0 0 0.68269,0.6827 z m -2.04809,-0.6827 v 0.6827 h 0.6827 a 0.6826982,0.6826982 0 0 1 -0.6827,-0.6827 z m -1.36539,-0.6828 h 1.36539 v 1.3655 h -1.36539 z m 36.86569,-0.6827 a 0.6826982,0.6826982 0 0 0 0.6827,0.6827 v 0 a 0.6827,0.6827 0 0 0 0,-1.3654 v 0 a 0.6826982,0.6826982 0 0 0 -0.6827,0.6827 z m -1.36539,0 v 0.6827 h 0.6827 a 0.6826982,0.6826982 0 0 1 -0.6827,-0.6827 z m -1.3654,-0.6827 h 1.3654 v 1.3654 h -1.3654 z m -1.36539,0.6827 v 0.6827 h 1.36539 v -1.3654 h -0.68269 a 0.6826982,0.6826982 0 0 0 -0.6827,0.6827 z m -4.09619,0 a 0.6826982,0.6826982 0 0 0 0.6827,0.6827 v 0 a 0.6827,0.6827 0 0 0 0,-1.3654 v 0 a 0.6826982,0.6826982 0 0 0 -0.6827,0.6827 z m -1.36539,0 v -0.6827 h 0.6827 a 0.6826982,0.6826982 0 0 0 -0.6827,0.6827 z m -1.36541,-0.6827 h 1.36541 v 1.3654 h -1.36541 z m -0.68269,1.3654 h 0.68269 v -0.6827 a 0.6826982,0.6826982 0 0 1 -0.68269,0.6827 z m -2.0481,-0.6827 a 0.6826982,0.6826982 0 0 0 0.6827,0.6827 v 0 a 0.6827,0.6827 0 0 0 0,-1.3654 v 0 a 0.6826982,0.6826982 0 0 0 -0.6827,0.6827 z m -2.73079,0.6827 h 0.6827 a 0.6827,0.6827 0 0 0 0,-1.3654 h -0.6827 z m -1.36539,-1.3654 h 1.36539 v 1.3654 h -1.36539 z m -0.68271,1.3654 h 0.68271 v -0.6827 a 0.6826982,0.6826982 0 0 1 -0.68271,0.6827 z m -7.50967,-0.6827 a 0.6826982,0.6826982 0 0 0 0.68269,0.6827 v 0 a 0.6827,0.6827 0 0 0 0,-1.3654 v 0 a 0.6826982,0.6826982 0 0 0 -0.68269,0.6827 z m -2.73079,0 v -0.6827 h 0.68269 a 0.6826982,0.6826982 0 0 0 -0.68269,0.6827 z m -0.68271,0.6827 h -0.6827 v -1.3654 h 1.36541 v 0.6827 a 0.6826982,0.6826982 0 0 1 -0.68271,0.6827 z m -2.04809,-1.3654 h 1.36539 v 1.3654 h -1.36539 z m -1.3654,0.6827 v 0.6827 h 0.6827 a 0.6826982,0.6826982 0 0 1 -0.6827,-0.6827 z m 0.6827,0.6827 h 0.6827 v -0.6827 a 0.6826982,0.6826982 0 0 1 -0.6827,0.6827 z m 0.6827,-0.6827 v -0.6827 h -0.6827 a 0.6826982,0.6826982 0 0 1 0.6827,0.6827 z m -1.3654,0.6827 v -0.6827 a 0.68269874,0.68269874 0 0 0 -1.36539,0 v 0 0.6827 z m -4.09618,-1.3654 h 1.36539 v 1.3654 h -1.36539 z m 35.5003,-0.6827 v -0.6827 h 0.6827 a 0.6826982,0.6826982 0 0 0 -0.6827,0.6827 z m -1.3654,-0.6827 h 1.3654 v 1.3654 h -1.3654 z m -0.68269,1.3654 h 0.68269 v -0.6827 a 0.6826982,0.6826982 0 0 1 -0.68269,0.6827 z m 0.68269,-0.6827 v -0.6827 h -0.68269 a 0.6826982,0.6826982 0 0 1 0.68269,0.6827 z m -6.82697,0.6827 h 0.6827 a 0.68270813,0.68270813 0 0 0 0,-1.3654 h -0.6827 z m -1.36541,-1.3654 h 1.36541 v 1.3654 h -1.36541 z m 0,0.6827 v -0.6827 h -0.68269 a 0.6826982,0.6826982 0 0 1 0.68269,0.6827 z m -5.46158,0 v 0.6827 h 0.6827 a 0.6826982,0.6826982 0 0 1 -0.6827,-0.6827 z m -1.36539,-0.6827 h 1.36539 v 1.3654 h -1.36539 z m -2.7308,0.6827 a 0.6826982,0.6826982 0 0 0 0.68271,0.6827 v 0 a 0.68270813,0.68270813 0 0 0 0,-1.3654 v 0 a 0.6826982,0.6826982 0 0 0 -0.68271,0.6827 z m -4.09619,0 a 0.6826982,0.6826982 0 0 0 0.6827,0.6827 v 0 a 0.68270813,0.68270813 0 0 0 0,-1.3654 v 0 a 0.6826982,0.6826982 0 0 0 -0.6827,0.6827 z m -2.73079,0.6827 h 0.6827 a 0.68270813,0.68270813 0 0 0 0,-1.3654 h -0.6827 z m -1.36539,-1.3654 h 1.36539 v 1.3654 h -1.36539 z m -1.36541,0 h 1.36541 v 1.3654 h -1.36541 z m -1.36539,0 h 1.36539 v 1.3654 h -1.36539 z m 0,0 h -0.6827 a 0.68270813,0.68270813 0 0 0 0,1.3654 h 0.6827 z m -4.09619,1.3654 v -0.6827 a 0.68269874,0.68269874 0 0 0 -1.36539,0 v 0 0.6827 z m 36.8657,-2.7307 v 0.6826 a 0.68270282,0.68270282 0 0 0 1.3654,0 v 0 -0.6826 z m -2.73079,1.3653 h 0.6827 a 0.6826982,0.6826982 0 0 0 0,-1.3653 h -0.6827 z m -1.3654,-1.3653 h 1.3654 v 1.3653 h -1.3654 z m -1.36539,0 h 1.36539 v 1.3653 h -1.36539 z m -1.3654,0 h 1.3654 v 1.3653 h -1.3654 z m -0.68269,1.3653 h 0.68269 v -1.3653 h -1.36539 v 0.6826 a 0.6826982,0.6826982 0 0 0 0.6827,0.6827 z m -3.41349,-0.6827 v 0.6827 h 0.6827 a 0.6826982,0.6826982 0 0 1 -0.6827,-0.6827 z m 0,0 v -0.6826 h 0.6827 a 0.6826982,0.6826982 0 0 0 -0.6827,0.6826 z m -1.36541,-0.6826 h 1.36541 v 1.3653 h -1.36541 z m 0,0 h -0.68269 a 0.6826982,0.6826982 0 0 0 0,1.3653 h 0.68269 z m -5.46158,0.6826 v -0.6826 h 0.6827 a 0.6826982,0.6826982 0 0 0 -0.6827,0.6826 z m -1.36539,-0.6826 h 1.36539 v 1.3653 h -1.36539 z m 0,0.6826 v -0.6826 h -0.68271 a 0.6826982,0.6826982 0 0 1 0.68271,0.6826 z m -5.46159,0 a 0.6826982,0.6826982 0 0 0 0.68269,0.6827 v 0 a 0.6826982,0.6826982 0 0 0 0,-1.3653 v 0 a 0.6826982,0.6826982 0 0 0 -0.68269,0.6826 z m -2.73079,0 a 0.6826982,0.6826982 0 0 0 0.68269,0.6827 v 0 a 0.6826982,0.6826982 0 0 0 0,-1.3653 v 0 a 0.6826982,0.6826982 0 0 0 -0.68269,0.6826 z m -4.0962,0 v 0.6827 h 0.6827 a 0.6826982,0.6826982 0 0 1 -0.6827,-0.6827 z m -1.36539,-0.6826 h 1.36539 v 1.3653 h -1.36539 z m -0.6827,1.3653 h 0.6827 v -0.6827 a 0.6826982,0.6826982 0 0 1 -0.6827,0.6827 z m 0.6827,-0.6827 v -0.6826 h -0.6827 a 0.6826982,0.6826982 0 0 1 0.6827,0.6826 z m -4.09619,-0.6826 v 0.6826 a 0.6827,0.6827 0 0 0 1.3654,0 v 0 -0.6826 z m 0,0.6826 v -0.6826 h -0.6827 a 0.6826982,0.6826982 0 0 1 0.6827,0.6826 z m 38.2311,-0.6826 v -0.6827 a 0.68270282,0.68270282 0 0 0 -1.3654,0 v 0 0.6827 z m -8.19238,-0.6827 v 0.6827 h 0.6827 a 0.6826982,0.6826982 0 0 1 -0.6827,-0.6827 z m 0,0.6827 v -0.6827 a 0.6826982,0.6826982 0 0 0 -1.36539,0 v 0 0.6827 z m -4.09618,0 h 0.6827 a 0.6827,0.6827 0 0 0 0,-1.3654 h -0.6827 z m -1.36541,-1.3654 h 1.36541 v 1.3654 h -1.36541 z m -0.68269,1.3654 h 0.68269 v -0.6827 a 0.6826982,0.6826982 0 0 1 -0.68269,0.6827 z m 0.68269,-0.6827 v -0.6827 h -0.68269 a 0.6826982,0.6826982 0 0 1 0.68269,0.6827 z m -1.36539,0 v -0.6827 h 0.6827 a 0.6826982,0.6826982 0 0 0 -0.6827,0.6827 z m -0.6827,0.6827 h -0.6827 v -1.3654 h 1.3654 v 0.6827 a 0.6826982,0.6826982 0 0 1 -0.6827,0.6827 z m -2.04809,-1.3654 h 1.36539 v 1.3654 h -1.36539 z m -1.3654,0 h 1.3654 v 1.3654 h -1.3654 z m -1.36539,0 h 1.36539 v 1.3654 h -1.36539 z m -1.3654,0 h 1.3654 v 1.3654 h -1.3654 z m -0.68269,1.3654 h 0.68269 v -1.3654 h -1.3654 v 0.6827 a 0.6826982,0.6826982 0 0 0 0.68271,0.6827 z m -4.7789,-1.3654 v 0.6827 a 0.6827,0.6827 0 0 0 1.3654,0 v 0 -0.6827 z m 0,0.6827 v -0.6827 h -0.6827 a 0.6826982,0.6826982 0 0 1 0.6827,0.6827 z m -4.09618,0 a 0.6826982,0.6826982 0 0 0 0.68269,0.6827 v 0 a 0.6827,0.6827 0 0 0 0,-1.3654 v 0 a 0.6826982,0.6826982 0 0 0 -0.68269,0.6827 z m -1.36541,0 v 0.6827 h -1.36539 v -1.3654 h 0.68269 a 0.6826982,0.6826982 0 0 1 0.6827,0.6827 z m -1.36539,-0.6827 h -0.6827 a 0.6827,0.6827 0 0 0 0,1.3654 h 0.6827 z m -2.73079,0.6827 v 0.6827 h -1.3654 v -1.3654 h 0.6827 a 0.6826982,0.6826982 0 0 1 0.6827,0.6827 z m -1.3654,-0.6827 h -0.6827 a 0.6827,0.6827 0 0 0 0,1.3654 h 0.6827 z m 25.94254,-0.6827 v 0.6827 h 0.6827 a 0.6826982,0.6826982 0 0 1 -0.6827,-0.6827 z m 0,0 v 0.6827 h -1.36541 v -1.3655 h 0.6827 a 0.6826982,0.6826982 0 0 1 0.68271,0.6828 z m -2.7308,-0.6828 h 1.36539 v 1.3655 h -1.36539 z m -1.3654,0.6828 v 0.6827 h 1.3654 v -1.3655 h -0.6827 a 0.6826982,0.6826982 0 0 0 -0.6827,0.6828 z m -0.68269,0.6827 h 0.68269 v -0.6827 a 0.6826982,0.6826982 0 0 1 -0.68269,0.6827 z m -2.0481,-0.6827 v 0.6827 h 0.6827 a 0.6826982,0.6826982 0 0 1 -0.6827,-0.6827 z m -1.36539,-0.6828 h 1.36539 v 1.3655 h -1.36539 z m -1.3654,0.6828 v 0.6827 h 0.68269 a 0.6826982,0.6826982 0 0 1 -0.68269,-0.6827 z m 0.68269,0.6827 h 0.68271 v -0.6827 a 0.6826982,0.6826982 0 0 1 -0.68271,0.6827 z m -2.04809,-1.3655 h 1.3654 v 1.3655 h -1.3654 z m -2.73079,0.6828 v 0.6827 h -1.3654 v -1.3655 h 0.6827 a 0.6826982,0.6826982 0 0 1 0.6827,0.6828 z m -2.0481,0.6827 h 0.6827 v -1.3655 h -1.36539 v 0.6828 a 0.6826982,0.6826982 0 0 0 0.68269,0.6827 z m 15.70207,-2.0482 a 0.6826982,0.6826982 0 0 0 0.6827,0.6827 v 0 a 0.68270813,0.68270813 0 0 0 0,-1.3654 v 0 a 0.6826982,0.6826982 0 0 0 -0.6827,0.6827 z m -1.36541,0 v 0.6827 h 0.6827 a 0.6826982,0.6826982 0 0 1 -0.6827,-0.6827 z m -1.36539,-0.6827 h 1.36539 v 1.3654 h -1.36539 z m -0.6827,1.3654 h 0.6827 v -0.6827 a 0.6826982,0.6826982 0 0 1 -0.6827,0.6827 z m -2.04809,-0.6827 a 0.6826982,0.6826982 0 0 0 0.6827,0.6827 v 0 a 0.68270813,0.68270813 0 0 0 0,-1.3654 v 0 a 0.6826982,0.6826982 0 0 0 -0.6827,0.6827 z m -2.73079,-0.6827 h 1.36539 v 1.3654 h -1.36539 z m 0,0.6827 v -0.6827 h -0.68271 a 0.6826982,0.6826982 0 0 1 0.68271,0.6827 z m -1.3654,0.6827 v -0.6827 a 0.68270282,0.68270282 0 0 0 -1.3654,0 v 0 0.6827 z m -4.09619,-0.6827 a 0.6826982,0.6826982 0 0 0 0.68269,0.6827 v 0 a 0.68270813,0.68270813 0 0 0 0,-1.3654 v 0 a 0.6826982,0.6826982 0 0 0 -0.68269,0.6827 z m -1.3654,0 v 0.6827 h 0.6827 a 0.6826982,0.6826982 0 0 1 -0.6827,-0.6827 z m 0,0.6827 v -0.6827 a 0.68269874,0.68269874 0 0 0 -1.36539,0 v 0 0.6827 z m 13.65396,-1.3654 v -0.6827 a 0.68269874,0.68269874 0 0 0 -1.36539,0 v 0 0.6827 z m -5.46158,-0.6827 v 0.6827 h -1.36539 v -1.3653 h 0.6827 a 0.6826982,0.6826982 0 0 1 0.68269,0.6826 z m -2.0481,0.6827 h 0.68271 v -1.3653 h -1.3654 v 0.6826 a 0.6826982,0.6826982 0 0 0 0.68269,0.6827 z m -0.68269,-0.6827 v -0.6826 h -0.68269 a 0.6826982,0.6826982 0 0 1 0.68269,0.6826 z m -1.3654,0 v -0.6826 h 0.68271 a 0.6826982,0.6826982 0 0 0 -0.68271,0.6826 z m -1.3654,-0.6826 v 0.6826 a 0.6827,0.6827 0 0 0 1.3654,0 v 0 -0.6826 z m 0,0.6826 v -0.6826 h -0.6827 a 0.6826982,0.6826982 0 0 1 0.6827,0.6826 z m -2.73079,0 a 0.6826982,0.6826982 0 0 0 0.6827,0.6827 v 0 a 0.6826982,0.6826982 0 0 0 0,-1.3653 v 0 a 0.6826982,0.6826982 0 0 0 -0.6827,0.6826 z m 15.01937,-2.048 v 0.6827 a 0.6826982,0.6826982 0 0 0 1.36539,0 v 0 -0.6827 z m -2.7308,0.6827 v -0.6827 h 0.6827 a 0.6826982,0.6826982 0 0 0 -0.6827,0.6827 z m -1.3654,-0.6827 v 0.6827 a 0.6827,0.6827 0 0 0 1.3654,0 v 0 -0.6827 z m -2.73079,0 v 0.6827 a 0.6827,0.6827 0 0 0 1.3654,0 v 0 -0.6827 z m -1.36539,0.6827 v 0.6827 h 0.6827 a 0.6826982,0.6826982 0 0 1 -0.6827,-0.6827 z m 1.36539,0 v -0.6827 h -0.68269 a 0.6826982,0.6826982 0 0 1 0.68269,0.6827 z m -1.36539,0 v 0.6827 h -1.3654 v -1.3654 h 0.68269 a 0.6826982,0.6826982 0 0 1 0.68271,0.6827 z m -2.7308,-0.6827 h 1.3654 v 1.3654 h -1.3654 z m -1.3654,0 h 1.3654 v 1.3654 h -1.3654 z m -0.6827,1.3654 h 0.6827 v -1.3654 h -1.36539 v 0.6827 a 0.6826982,0.6826982 0 0 0 0.68269,0.6827 z m 12.97128,-2.7308 h 1.36539 v 1.3654 h -1.36539 z m -2.0481,1.3654 h -0.6827 v -1.3654 h 1.36539 v 0.6827 a 0.6826982,0.6826982 0 0 1 -0.68269,0.6827 z m -2.0481,-1.3654 h 1.3654 v 1.3654 h -1.3654 z m -1.36539,0.6827 v 0.6827 h -1.3654 v -1.3654 h 0.6827 a 0.6826982,0.6826982 0 0 1 0.6827,0.6827 z m -2.04809,0.6827 h 0.68269 v -1.3654 h -1.36539 v 0.6827 a 0.6826982,0.6826982 0 0 0 0.6827,0.6827 z m -0.6827,-0.6827 v -0.6827 h -0.68271 a 0.6826982,0.6826982 0 0 1 0.68271,0.6827 z m -2.7308,0 v 0.6827 h 0.68271 a 0.6826982,0.6826982 0 0 1 -0.68271,-0.6827 z m -1.3654,-0.6827 h 1.3654 v 1.3654 h -1.3654 z m -1.36539,0.6827 v 0.6827 h 1.36539 v -1.3654 h -0.6827 a 0.6826982,0.6826982 0 0 0 -0.68269,0.6827 z m 15.01936,-0.6827 v -0.6827 a 0.6826982,0.6826982 0 0 0 -1.36539,0 v 0 0.6827 z m -2.7308,-0.6827 v 0.6827 h -1.36539 v -1.3655 h 0.6827 a 0.6826982,0.6826982 0 0 1 0.68269,0.6828 z m -2.73079,-0.6828 h 1.3654 v 1.3655 h -1.3654 z m -2.73079,0.6828 v 0.6827 h 0.6827 a 0.6826982,0.6826982 0 0 1 -0.6827,-0.6827 z m 0,0 v -0.6828 h 0.6827 a 0.6826982,0.6826982 0 0 0 -0.6827,0.6828 z m -1.36539,-0.6828 h 1.36539 v 1.3655 h -1.36539 z m -0.68271,1.3655 h 0.68271 v -1.3655 h -1.3654 v 0.6828 a 0.6826982,0.6826982 0 0 0 0.68269,0.6827 z m -0.68269,-0.6827 v -0.6828 h -0.68269 a 0.6826982,0.6826982 0 0 1 0.68269,0.6828 z m -1.3654,0 v -0.6828 h 0.68271 a 0.6826982,0.6826982 0 0 0 -0.68271,0.6828 z m -1.3654,-0.6828 h 1.3654 v 1.3655 h -1.3654 z m -0.6827,1.3655 h 0.6827 v -0.6827 a 0.6826982,0.6826982 0 0 1 -0.6827,0.6827 z m -2.04809,-0.6827 a 0.6826982,0.6826982 0 0 0 0.6827,0.6827 v 0 a 0.68275,0.68275 0 0 0 0,-1.3655 v 0 a 0.6826982,0.6826982 0 0 0 -0.6827,0.6828 z m 13.65396,-2.0481 v 0.6826 a 0.682705,0.682705 0 0 0 1.36541,0 v 0 -0.6826 z m -1.36539,0.6826 v 0.6827 h 0.6827 a 0.6826982,0.6826982 0 0 1 -0.6827,-0.6827 z m 1.36539,0 v -0.6826 h -0.68269 a 0.6826982,0.6826982 0 0 1 0.68269,0.6826 z m -1.36539,0 v -0.6826 h 0.6827 a 0.6826982,0.6826982 0 0 0 -0.6827,0.6826 z m -1.3654,-0.6826 h 1.3654 v 1.3653 h -1.3654 z m -2.04809,1.3653 h -0.6827 v -1.3653 h 1.3654 v 0.6826 a 0.6826982,0.6826982 0 0 1 -0.6827,0.6827 z m -2.04809,-1.3653 h 1.36539 v 1.3653 h -1.36539 z m -1.3654,0 h 1.3654 v 1.3653 h -1.3654 z m -1.3654,0 h 1.3654 v 1.3653 h -1.3654 z m -1.3654,0 h 1.3654 v 1.3653 h -1.3654 z m 0,0.6826 v -0.6826 h -0.6827 a 0.6826982,0.6826982 0 0 1 0.6827,0.6826 z m 12.28858,-1.3653 v 0.6827 h -1.36541 v -1.3654 h 0.6827 a 0.6826982,0.6826982 0 0 1 0.68271,0.6827 z m -2.7308,-0.6827 h 1.36539 v 1.3654 h -1.36539 z m -1.3654,0.6827 v 0.6827 h 1.3654 v -1.3654 h -0.6827 a 0.6826982,0.6826982 0 0 0 -0.6827,0.6827 z m -1.36539,0 v 0.6827 h -1.3654 v -1.3654 h 0.6827 a 0.6826982,0.6826982 0 0 1 0.6827,0.6827 z m -2.73079,-0.6827 h 1.36539 v 1.3654 h -1.36539 z m -1.3654,0.6827 v 0.6827 h 1.3654 v -1.3654 h -0.68271 a 0.6826982,0.6826982 0 0 0 -0.68269,0.6827 z m -1.3654,0 v 0.6827 h 0.68271 a 0.6826982,0.6826982 0 0 1 -0.68271,-0.6827 z m 0.68271,0.6827 h 0.68269 v -0.6827 a 0.6826982,0.6826982 0 0 1 -0.68269,0.6827 z m -0.68271,-0.6827 v 0.6827 h -1.3654 v -1.3654 h 0.6827 a 0.6826982,0.6826982 0 0 1 0.6827,0.6827 z m -2.73079,-0.6827 h 1.36539 v 1.3654 h -1.36539 z m -1.3654,0 h 1.3654 v 1.3654 h -1.3654 z m 0,0 h -0.6827 a 0.6827,0.6827 0 0 0 0,1.3654 h 0.6827 z"
       style="display:inline;stroke-width:0.0136539"
       transform="matrix(0.57,0,0,0.57,173,1427)" /><path
       style="display:inline;fill:#ffffff;fill-opacity:1;stroke-width:0.0265774"
       d="m 14.397974,10.716584 c -0.768918,-0.02057 -1.243372,-0.05804 -1.397126,-0.110323 -0.20567,-0.06995 -0.355385,-0.215841 -0.430287,-0.419286 -0.0241,-0.06546 -0.05952,-0.2768259 -0.08129,-0.4850798 -0.05238,-0.5010551 -0.04634,-1.3017304 0.01325,-1.7549656 0.02348,-0.178628 0.04943,-0.3164861 0.06974,-0.3704253 0.07815,-0.2076252 0.220725,-0.349483 0.424924,-0.4227858 0.094,-0.033741 0.437042,-0.074013 0.752626,-0.08835 0.492409,-0.022368 0.635303,-0.025061 1.326746,-0.024991 1.023982,1.058e-4 1.506179,0.019702 1.907089,0.077484 0.197759,0.028505 0.306685,0.077727 0.426392,0.1926873 0.110458,0.1060744 0.172256,0.2278466 0.204605,0.4031691 0.04182,0.2266226 0.06101,0.4287169 0.082,0.8630347 0.01414,0.2930169 -0.001,0.8151835 -0.03255,1.1216253 -0.02147,0.2085982 -0.05714,0.4223451 -0.08153,0.4885941 -0.06044,0.164168 -0.172676,0.295135 -0.316642,0.369491 -0.09277,0.04791 -0.150331,0.06499 -0.283671,0.08412 -0.273283,0.03922 -0.545944,0.05657 -1.162438,0.07395 -0.216757,0.0061 -1.216225,0.0076 -1.421827,0.0021 z m 0.831528,-1.443412 c 0.374187,-0.2138852 0.680341,-0.3912361 0.680341,-0.3941133 0,-0.00287 -0.298243,-0.1739375 -0.662761,-0.3801339 -0.36452,-0.2061966 -0.673046,-0.3809337 -0.685616,-0.388305 l -0.02285,-0.013402 v 0.7851715 c 0,0.4318445 0.0023,0.783933 0.0053,0.7824182 0.0029,-0.0015 0.311427,-0.1777507 0.685614,-0.3916358 z"
       id="path1" /></g><style
     type="text/css"
     id="style1">
	.frame-color{fill:#000000;}
	.background-color{fill:#ffffff;}
	.text-color{fill:#FFFFFF;}
	.icon-color{fill:#000000;opacity:1;}
	.icon-black{fill:#000000;opacity:0}

	.circle-color{fill:#000000;}
	.circle-color-black{fill:#FFFFFF;}
	.circle-outline{fill:#000000;opacity:0}

	.show_on_light{opacity:0;}
	.hide_on_light{opacity:1;}
</style></svg>
